<svg width="16" height="16" viewBox="0 0 16 16" fill="none" xmlns="http://www.w3.org/2000/svg">
  <path d="M14.72 0H1.28C0.573075 0 0 0.573075 0 1.28V14.72C0 15.4269 0.573075 16 1.28 16H14.72C15.4269 16 16 15.4269 16 14.72V1.28C16 0.573075 15.4269 0 14.72 0Z" fill="url(#paint0_radial_967_1044)" />
  <path d="M14.72 0H1.28C0.573075 0 0 0.573075 0 1.28V14.72C0 15.4269 0.573075 16 1.28 16H14.72C15.4269 16 16 15.4269 16 14.72V1.28C16 0.573075 15.4269 0 14.72 0Z" fill="url(#paint1_radial_967_1044)" fill-opacity="0.57" />
  <path d="M14.72 0H1.28C0.573075 0 0 0.573075 0 1.28V14.72C0 15.4269 0.573075 16 1.28 16H14.72C15.4269 16 16 15.4269 16 14.72V1.28C16 0.573075 15.4269 0 14.72 0Z" fill="url(#paint2_radial_967_1044)" fill-opacity="0.68" />
  <path d="M14.72 0H1.28C0.573075 0 0 0.573075 0 1.28V14.72C0 15.4269 0.573075 16 1.28 16H14.72C15.4269 16 16 15.4269 16 14.72V1.28C16 0.573075 15.4269 0 14.72 0Z" fill="url(#paint3_radial_967_1044)" fill-opacity="0.08" />
  <path d="M14.72 0H1.28C0.573075 0 0 0.573075 0 1.28V14.72C0 15.4269 0.573075 16 1.28 16H14.72C15.4269 16 16 15.4269 16 14.72V1.28C16 0.573075 15.4269 0 14.72 0Z" fill="url(#paint4_linear_967_1044)" fill-opacity="0.03" />
  <path d="M5.63202 13.5999V8.6399L10.32 13.5999H12.928V13.4719L7.53602 7.8239L12.512 2.4639V2.3999H9.88802L5.63202 7.1359V2.3999H3.52002V13.5999H5.63202Z" fill="white" />
  <defs>
    <radialGradient id="paint0_radial_967_1044" cx="0" cy="0" r="1" gradientUnits="userSpaceOnUse" gradientTransform="translate(-12.3852 7.65727) rotate(140.172) scale(27.5202 33.2093)">
      <stop stop-color="#2F80F2" />
      <stop offset="0.999657" stop-color="#A942B5" />
    </radialGradient>
    <radialGradient id="paint1_radial_967_1044" cx="0" cy="0" r="1" gradientUnits="userSpaceOnUse" gradientTransform="translate(-0.259163 0.2492) rotate(46.3208) scale(25.4572 26.6755)">
      <stop stop-color="#45F9DE" />
      <stop offset="1" stop-color="#A942B5" stop-opacity="0" />
    </radialGradient>
    <radialGradient id="paint2_radial_967_1044" cx="0" cy="0" r="1" gradientUnits="userSpaceOnUse" gradientTransform="translate(-15.84 -8.11818) rotate(180) scale(15.367 7.9134)">
      <stop stop-color="#E957C5" />
      <stop offset="1" stop-color="#A942B5" stop-opacity="0" />
    </radialGradient>
    <radialGradient id="paint3_radial_967_1044" cx="0" cy="0" r="1" gradientUnits="userSpaceOnUse" gradientTransform="translate(-14.2738 0.98231) rotate(119.938) scale(9.2243 13.829)">
      <stop stop-opacity="0.184878" />
      <stop offset="1" stop-color="#101010" />
    </radialGradient>
    <linearGradient id="paint4_linear_967_1044" x1="15.078" y1="9.43458" x2="0" y2="0" gradientUnits="userSpaceOnUse">
      <stop stop-color="white" stop-opacity="0.184878" />
      <stop offset="1" stop-color="white" />
    </linearGradient>
  </defs>
</svg>
  