<svg width="16" height="16" viewBox="0 0 16 16" fill="#ffffff" xmlns="http://www.w3.org/2000/svg">
  <path d="M1.47607 4.27565C2.00021 3.24747 3.09735 2.73848 3.94834 3.13197L3.9921 3.15316L5.92276 4.14269C6.34981 4.02039 6.80638 4.05162 7.21286 4.23082L7.27332 4.25865L8.59032 4.92101L12.4739 6.88894C13.1678 7.24316 13.5374 8.00216 13.5319 8.84898L13.531 8.89877L14.2249 9.23289L13.0276 11.5955L12.3263 11.2404C11.6656 11.7676 10.8339 11.9338 10.1338 11.6045L10.0814 11.5788L4.90324 8.95984C4.89613 8.96293 4.88778 8.96293 4.88067 8.95984C4.48485 8.75915 4.17454 8.4224 4.00663 8.01159L3.98468 7.95516L2.08602 6.98434C2.07983 6.97692 2.07148 6.97135 2.06221 6.96857L2.05602 6.96748C1.19915 6.53534 0.942802 5.32131 1.47622 4.27565H1.47607Z" fill="#2845AE" />
  <path d="M2.41146 11.0325L5.72067 12.8002L3.61421 14.9534C3.58684 14.9871 3.53999 14.9987 3.5001 14.9815H3.49082L0.327422 13.3632C0.291706 13.344 0.269287 13.3066 0.269287 13.2659C0.269287 13.2418 0.277172 13.2182 0.291861 13.199L2.41146 11.0324V11.0325ZM5.18725 8.26803L5.20256 8.27314L8.37122 9.89133C8.42007 9.91405 8.44327 9.97142 8.42378 10.0217L8.41605 10.0371C8.41312 10.0449 8.40863 10.0518 8.40307 10.0578V10.0691L5.95243 12.5757L2.6338 10.8062L5.0883 8.30112C5.11195 8.2719 5.15061 8.25891 5.18725 8.26788V8.26803ZM14.2399 9.25911C14.6626 9.47232 14.728 10.172 14.397 10.8267C14.0658 11.4814 13.4616 11.8387 13.0389 11.6255C12.616 11.4121 12.5506 10.7126 12.8816 10.0577C13.2128 9.40491 13.817 9.04574 14.2397 9.25911H14.2399ZM5.35006 4.01738C5.54255 4.01537 5.7335 4.05217 5.91131 4.12592C5.75669 4.16922 5.60703 4.22812 5.46416 4.30172L5.41561 4.32599H5.34635C4.73655 4.32599 4.10418 4.78242 3.76557 5.43721C3.40269 6.15554 3.44769 6.95057 3.84226 7.42199C3.87071 7.60087 3.9171 7.77636 3.9808 7.94582C3.20448 7.4744 2.98926 6.3165 3.50752 5.29883C3.90024 4.5038 4.64115 4.01738 5.35006 4.01738ZM9.93514 3.53839L13.2465 5.30625L11.9575 6.62696L8.5903 4.92095L9.93545 3.53839H9.93514ZM12.466 1.01354L12.4815 1.01865L15.6671 2.63684C15.7213 2.66266 15.7454 2.72775 15.7213 2.78264C15.7185 2.78929 15.7146 2.79547 15.7101 2.80104L13.4766 5.07433L10.1598 3.30833L12.3672 1.04663C12.3875 1.02174 12.4187 1.00844 12.4506 1.01107L12.466 1.01354Z" fill="#5493F7" />
</svg>
  