<svg width="464" height="464" viewBox="0 0 464 464" fill="none" xmlns="http://www.w3.org/2000/svg">
  <path d="M260.57 140.387L133.517 267.44C128.116 272.841 128.116 281.598 133.517 286.999L181.628 335.11C187.029 340.511 195.786 340.511 201.187 335.11L328.24 208.057C333.641 202.656 333.641 193.899 328.24 188.499L280.128 140.387C274.727 134.986 265.97 134.986 260.57 140.387Z" fill="#0062FE" />
  <path d="M132.231 283.248L99.626 315.853L152.765 368.992L185.37 336.387L132.231 283.248Z" fill="#C1E1FF" />
  <path d="M133.44 267.51C128.08 272.87 128.08 281.57 133.44 286.93L181.68 335.17C187.04 340.53 195.74 340.53 201.1 335.17L328.29 207.98C333.65 202.62 333.65 193.92 328.29 188.56" fill="#65B1FE" />
  <path d="M270.426 265.85L258.978 277.298L421.74 440.06L433.188 428.612L270.426 265.85Z" fill="#C1E1FF" />
  <path d="M31.327 26.7556L19.8789 38.2036L191.317 209.642L202.765 198.194L31.327 26.7556Z" fill="#C1E1FF" />
  <path d="M304.117 271.223L263.663 311.677C256.95 318.39 256.95 329.274 263.663 335.987L306.591 378.916C313.305 385.629 324.189 385.629 330.902 378.916L371.355 338.462C378.068 331.749 378.068 320.865 371.355 314.152L328.427 271.223C321.714 264.51 310.83 264.51 304.117 271.223Z" fill="#65B1FE" />
  <path d="M384.102 351.196L343.649 391.65C336.936 398.363 336.936 409.247 343.649 415.96L386.577 458.889C393.29 465.602 404.174 465.602 410.888 458.889L451.341 418.435C458.054 411.722 458.054 400.838 451.341 394.125L408.413 351.196C401.7 344.483 390.816 344.483 384.102 351.196Z" fill="#65B1FE" />
  <path d="M45.4857 12.5861L5.03212 53.0397C-1.68099 59.7528 -1.68099 70.6369 5.03212 77.35L47.9606 120.278C54.6737 126.992 65.5578 126.992 72.2709 120.278L112.724 79.8249C119.438 73.1118 119.438 62.2276 112.724 55.5145L69.796 12.5861C63.0829 5.87297 52.1988 5.87297 45.4857 12.5861Z" fill="#65B1FE" />
  <path d="M125.472 92.5734L85.018 133.027C78.3048 139.74 78.3049 150.624 85.018 157.337L127.946 200.266C134.66 206.979 145.544 206.979 152.257 200.266L192.71 159.812C199.423 153.099 199.423 142.215 192.71 135.502L149.782 92.5734C143.069 85.8603 132.185 85.8603 125.472 92.5734Z" fill="#65B1FE" />
  <path d="M26.4199 367.04V409.64C26.4199 427.62 40.9899 442.19 58.9699 442.19H101.57" fill="#C1E1FF" />
  <path d="M82.52 309.8C66.32 312.82 60.14 332.76 71.79 344.42L124.2 396.83C135.85 408.48 155.8 402.3 158.82 386.1C160.06 379.46 157.94 372.64 153.17 367.87L100.76 315.46C95.99 310.69 89.16 308.57 82.53 309.81L82.52 309.8Z" fill="#65B1FE" />
  <path d="M27.3004 333.919L27.2933 333.926C17.9051 343.315 17.9051 358.536 27.2933 367.924L100.691 441.322C110.079 450.71 125.3 450.71 134.689 441.322L134.696 441.315C144.084 431.927 144.084 416.705 134.696 407.317L61.2981 333.919C51.9098 324.531 36.6886 324.531 27.3004 333.919Z" fill="#0062FE" />
  <path d="M263.66 311.67C256.95 318.38 256.95 329.27 263.66 335.98L306.58 378.9C313.29 385.61 324.18 385.61 330.89 378.9L371.34 338.45C378.05 331.74 378.05 320.85 371.34 314.14" fill="#C1E1FF" />
  <path d="M343.65 391.65C336.94 398.36 336.94 409.25 343.65 415.96L386.57 458.88C393.28 465.59 404.17 465.59 410.88 458.88L451.33 418.43C458.04 411.72 458.04 400.83 451.33 394.12" fill="#C1E1FF" />
  <path d="M5.03982 53.04C-1.67018 59.75 -1.67018 70.64 5.03982 77.35L47.9598 120.27C54.6698 126.98 65.5598 126.98 72.2698 120.27L112.72 79.82C119.43 73.11 119.43 62.22 112.72 55.51" fill="#C1E1FF" />
  <path d="M85.0198 133.03C78.3098 139.74 78.3098 150.63 85.0198 157.34L127.95 200.27C134.66 206.98 145.55 206.98 152.26 200.27L192.71 159.82C199.42 153.11 199.42 142.22 192.71 135.51" fill="#C1E1FF" />
  <path d="M230.87 268.68C247.952 268.68 261.8 254.832 261.8 237.75C261.8 220.668 247.952 206.82 230.87 206.82C213.788 206.82 199.94 220.668 199.94 237.75C199.94 254.832 213.788 268.68 230.87 268.68Z" fill="#0062FE" />
  <path d="M230.87 254.54C240.143 254.54 247.66 247.023 247.66 237.75C247.66 228.477 240.143 220.96 230.87 220.96C221.597 220.96 214.08 228.477 214.08 237.75C214.08 247.023 221.597 254.54 230.87 254.54Z" fill="#C1E1FF" />
  <path d="M339.81 162.64L304.32 127.15C289.43 112.26 263.96 120.16 260.1 140.86L293.93 174.69L327.76 208.52C348.46 204.66 356.35 179.19 341.47 164.3L339.81 162.64Z" fill="#65B1FE" />
</svg>
  