<svg width="15" height="14" viewBox="0 0 15 14" fill="none" xmlns="http://www.w3.org/2000/svg">
  <path fill-rule="evenodd" clip-rule="evenodd"
    d="M0.292893 9.54299C-0.0976313 9.93352 -0.0976312 10.5667 0.292893 10.9572L2.89289 13.5572C3.28342 13.9477 3.91658 13.9477 4.30711 13.5572C4.69763 13.1667 4.69763 12.5335 4.30711 12.143L3.41418 11.2501L11.75 11.2501C12.3023 11.2501 12.75 10.8023 12.75 10.2501C12.75 9.69778 12.3023 9.25006 11.75 9.25006L3.41425 9.25006L4.30711 8.3572C4.69763 7.96668 4.69763 7.33351 4.30711 6.94299C3.91658 6.55247 3.28342 6.55247 2.89289 6.94299L0.292893 9.54299ZM1.59985 3.75006C1.59985 3.19778 2.04757 2.75006 2.59985 2.75006L11.5858 2.75006L10.6929 1.8572C10.3024 1.46668 10.3024 0.833515 10.6929 0.442991C11.0834 0.0524669 11.7166 0.0524668 12.1071 0.442991L14.7071 3.04299C15.0977 3.43351 15.0977 4.06668 14.7071 4.4572L12.1071 7.0572C11.7166 7.44773 11.0834 7.44773 10.6929 7.0572C10.3024 6.66668 10.3024 6.03351 10.6929 5.64299L11.5858 4.75006L2.59985 4.75006C2.04757 4.75006 1.59985 4.30235 1.59985 3.75006Z"
    fill="url(#paint0_linear_940_3989)" />
  <defs>
    <linearGradient id="paint0_linear_940_3989" x1="7.5215" y1="13.8501" x2="7.5215" y2="0.150098"
      gradientUnits="userSpaceOnUse">
      <stop stop-color="white" />
      <stop offset="1" stop-color="white" />
    </linearGradient>
  </defs>
</svg>
  