<?xml version="1.0" encoding="utf-8"?>
<!-- Generator: Adobe Illustrator 26.3.1, SVG Export Plug-In . SVG Version: 6.00 Build 0)  -->
<svg version="1.1" id="Layer_1" xmlns="http://www.w3.org/2000/svg" xmlns:xlink="http://www.w3.org/1999/xlink" x="0px" y="0px"
	 viewBox="0 0 282 120.6" style="enable-background:new 0 0 282 120.6;" xml:space="preserve">
<style type="text/css">
	.st0{fill:#FFFFFF;}
</style>
<g>
	<g id="c_00000062193752810054806530000006915352133019823496_">
		<path class="st0" d="M225,55.2l18.4-18.3l-7-7l-14.9,14.9l-14.9-14.9l-7,7L218,55.2c1,1,2.2,1.4,3.5,1.4
			C222.8,56.7,224.1,56.2,225,55.2L225,55.2z M251.7,74.8L236.8,60l14.9-14.9l-7-7l-18.4,18.3c-1.9,1.9-1.9,5,0,7l18.4,18.3
			L251.7,74.8L251.7,74.8L251.7,74.8z M221.5,75.2L236.5,90l7-7L225,64.7c-1.9-1.9-5.1-1.9-7,0l-18.4,18.3l7,7L221.5,75.2
			L221.5,75.2L221.5,75.2z M216.8,63.5c0.9-0.9,1.4-2.2,1.4-3.5c0-1.3-0.5-2.6-1.4-3.5l-18.4-18.3l-7,7L206.3,60l-14.9,14.9l7,7
			L216.8,63.5L216.8,63.5L216.8,63.5z"/>
	</g>
	<g>
		<path class="st0" d="M33.6,67.3H30v-20h8.2c2.3,0,4.1,0.6,5.2,1.8c1.1,1.2,1.7,2.6,1.7,4.2c0,1.8-0.6,3.3-1.8,4.4
			c-1.2,1.1-2.8,1.7-4.6,1.7h-5V67.3z M33.6,56.3h4.3c1.1,0,2-0.3,2.5-0.8c0.6-0.5,0.9-1.3,0.9-2.2c0-0.8-0.3-1.5-0.8-2.1
			s-1.5-0.9-2.9-0.9h-3.9V56.3z"/>
		<path class="st0" d="M53.1,67.6c-2.2,0-3.8-0.8-5-2.4c-1.1-1.6-1.7-3.4-1.7-5.4c0-2.2,0.6-4,1.9-5.5c1.3-1.5,3-2.2,5-2.2
			c2,0,3.6,0.7,4.9,2.1c1.3,1.4,1.9,3.2,1.9,5.5c0,2.3-0.7,4.2-2,5.6C56.8,66.9,55.1,67.6,53.1,67.6z M53.2,64.9
			c2.2,0,3.4-1.7,3.4-5c0-1.5-0.3-2.7-0.8-3.6c-0.5-0.9-1.4-1.3-2.5-1.3c-1.1,0-2,0.5-2.6,1.4c-0.6,0.9-0.8,2.1-0.8,3.6
			c0,1.6,0.3,2.8,0.9,3.7C51.4,64.4,52.2,64.9,53.2,64.9z"/>
		<path class="st0" d="M81.4,52.5l-4.3,14.8h-3l-2.7-10.3l-2.6,10.3h-3.1l-4.5-14.8h3.5l2.9,9.9l2.5-9.9h3l2.6,9.9l2.9-9.9H81.4z"/>
		<path class="st0" d="M92.9,62.6l3,0.4c-0.4,1.3-1.1,2.4-2.3,3.3c-1.1,0.9-2.5,1.3-4.3,1.3c-2,0-3.7-0.7-4.9-2.1
			c-1.2-1.4-1.9-3.2-1.9-5.6c0-2.2,0.6-4.1,1.9-5.5c1.3-1.5,3-2.2,5.1-2.2c2.1,0,3.7,0.7,4.9,2.2s1.7,3.3,1.7,5.6l0,0.4H86.1
			c0,1,0.1,1.8,0.3,2.4s0.6,1.1,1.1,1.6c0.6,0.4,1.3,0.7,2.1,0.7C91.2,65,92.4,64.2,92.9,62.6z M92.7,58.2c0-1.1-0.3-1.9-1-2.6
			s-1.4-1-2.3-1c-0.9,0-1.7,0.3-2.3,0.9c-0.6,0.6-1,1.5-1.1,2.7H92.7z"/>
		<path class="st0" d="M102.6,67.3h-3.3V52.5h3v3.5c0.4-1.4,1-2.4,1.8-3c0.8-0.6,1.5-1,2.3-1c0.1,0,0.3,0,0.4,0v3.6
			c-1.7,0-2.8,0.5-3.4,1.6c-0.6,1.1-0.8,2.1-0.8,3.1V67.3z"/>
		<path class="st0" d="M118.6,62.6l3,0.4c-0.4,1.3-1.1,2.4-2.3,3.3s-2.5,1.3-4.3,1.3c-2,0-3.7-0.7-4.9-2.1c-1.2-1.4-1.9-3.2-1.9-5.6
			c0-2.2,0.6-4.1,1.9-5.5c1.3-1.5,3-2.2,5.1-2.2c2.1,0,3.7,0.7,4.9,2.2c1.1,1.4,1.7,3.3,1.7,5.6l0,0.4h-10.1c0,1,0.1,1.8,0.3,2.4
			s0.6,1.1,1.1,1.6c0.6,0.4,1.3,0.7,2.1,0.7C116.9,65,118,64.2,118.6,62.6z M118.4,58.2c0-1.1-0.3-1.9-1-2.6c-0.6-0.7-1.4-1-2.3-1
			c-0.9,0-1.7,0.3-2.3,0.9s-1,1.5-1.1,2.7H118.4z"/>
		<path class="st0" d="M137,67.3h-3.1v-3c-0.9,2.2-2.3,3.3-4.4,3.3c-1.8,0-3.2-0.8-4.2-2.3c-1-1.5-1.4-3.4-1.4-5.6
			c0-2.1,0.5-3.9,1.5-5.5c1-1.5,2.4-2.3,4.3-2.3c1.9,0,3.2,0.9,4,2.6v-7.2h3.3V67.3z M133.7,58.6c0-1.2-0.3-2.1-0.9-2.8
			c-0.6-0.7-1.3-1-2.2-1c-1,0-1.8,0.4-2.3,1.3c-0.6,0.9-0.8,2.1-0.8,3.8c0,3.3,1,4.9,3.1,4.9c0.8,0,1.5-0.4,2.2-1.1
			c0.6-0.7,0.9-1.6,0.9-2.7V58.6z"/>
		<path class="st0" d="M150,67.3h-1.5v-20h3.3v7.2c0.6-1.1,1.3-1.8,1.9-2.2c0.6-0.4,1.4-0.5,2.2-0.5c1.6,0,3,0.7,4,2.1
			s1.6,3.3,1.6,5.7c0,2.2-0.5,4.1-1.6,5.6s-2.6,2.3-4.5,2.3c-2,0-3.5-0.9-4.6-2.7L150,67.3z M151.8,61c0,1.3,0.3,2.3,0.9,2.9
			s1.3,0.9,2.2,0.9c0.9,0,1.6-0.4,2.2-1.1c0.6-0.7,0.9-2.1,1-4.2c0-1.5-0.3-2.7-0.8-3.6s-1.3-1.2-2.3-1.2c-0.9,0-1.7,0.4-2.3,1.1
			c-0.6,0.7-0.9,1.7-0.9,3V61z"/>
		<path class="st0" d="M175.3,52.5l-5.7,16.8c-0.4,1-0.8,1.8-1.4,2.4c-0.6,0.6-1.5,0.9-2.6,0.9c-0.4,0-1.1,0-1.9-0.1v-2.6l1.6,0
			c0.7,0,1.2-0.1,1.6-0.3s0.6-0.6,0.8-1.2c0.2-0.6,0.3-0.9,0.3-1c0-0.1-0.1-0.4-0.3-0.9l-5.1-13.9h3.5l3.6,9.7l3.1-9.7H175.3z"/>
	</g>
</g>
</svg>
