<?xml version="1.0" encoding="utf-8"?>
<!-- Generator: Adobe Illustrator 26.3.1, SVG Export Plug-In . SVG Version: 6.00 Build 0)  -->
<svg version="1.0" id="Layer_1" xmlns="http://www.w3.org/2000/svg" xmlns:xlink="http://www.w3.org/1999/xlink" x="0px" y="0px"
	 viewBox="0 0 518.1 123.3" style="enable-background:new 0 0 518.1 123.3;" xml:space="preserve">
<style type="text/css">
	.st0{fill:#FFFFFF;}
</style>
<g>
	<g>
		<g id="c_00000126324850233911593780000005892399429895309988_">
			<path class="st0" d="M298.3,56.2l18.4-18.3l-7-7l-14.9,14.9l-14.9-14.9l-7,7l18.4,18.3c1,1,2.2,1.4,3.5,1.4
				C296.1,57.6,297.4,57.1,298.3,56.2L298.3,56.2z M325,75.8l-14.9-14.9L325,46l-7-7l-18.4,18.3c-1.9,1.9-1.9,5,0,7L318,82.7
				L325,75.8L325,75.8L325,75.8z M294.8,76.1l15,14.9l7-7l-18.4-18.3c-1.9-1.9-5.1-1.9-7,0L272.9,84l7,7L294.8,76.1L294.8,76.1
				L294.8,76.1z M290.1,64.4c0.9-0.9,1.4-2.2,1.4-3.5s-0.5-2.6-1.4-3.5l-18.4-18.3l-7,7L279.6,61l-14.9,14.9l7,7L290.1,64.4
				L290.1,64.4L290.1,64.4z M264.4,88.5h-15.5l-1.1-7h-10.1l-1.2,7H221l13.4-55.3h18.4L264.4,88.5L264.4,88.5z M246,69.7l-1-6.4
				c0,0-0.1-0.3-0.1-1c0-0.5-0.3-2.6-0.8-6.2c0-0.4-0.1-1-0.2-1.7c-0.1-0.7-0.2-1.6-0.3-2.7l-0.5-5.2c0,0.5-0.1,1.1-0.2,1.7
				c-0.1,0.6-0.2,1.3-0.3,2c-0.2,1.5-0.3,2.5-0.4,3.1c-0.1,0.6-0.1,0.9-0.1,1l-1,6.7l-1.5,8.7L246,69.7L246,69.7z M357.1,88.5V75.3
				h-12.9v-8.4h11.6V54.3h-11.6v-8.1h12.9v-13h-27.9v55.3H357.1L357.1,88.5z M386.6,75.3h-11.3v-42h-15v55.3h26.3V75.3L386.6,75.3
				L386.6,75.3z M432.7,88.5h-15.5l-1.1-7H406l-1.2,7h-15.5l13.4-55.3h18.4L432.7,88.5L432.7,88.5L432.7,88.5z M414.3,69.7l-1-6.4
				c0,0-0.1-0.3-0.1-1c0-0.5-0.3-2.6-0.8-6.2c0-0.4-0.1-1-0.2-1.7s-0.2-1.6-0.3-2.7l-0.5-5.2c0,0.5-0.1,1.1-0.2,1.7
				c-0.1,0.6-0.2,1.3-0.3,2c-0.2,1.5-0.3,2.5-0.4,3.1s-0.1,0.9-0.1,1l-1,6.7l-1.5,8.7L414.3,69.7L414.3,69.7z M475.4,88.5h-16.2
				l-7.4-19.7c-0.1-0.3-0.2-0.8-0.4-1.3c-0.2-0.5-0.4-1.2-0.7-2l0.1,3.7v19.3h-14.9V33.3h15.4c6.8,0,11.8,1.3,15.2,4
				c4.3,3.4,6.4,8.2,6.4,14.5c0,6.7-2.9,11.3-8.6,13.9L475.4,88.5L475.4,88.5L475.4,88.5z M458,51.9c0-4.1-2.2-6.2-6.5-6.2H451v13.2
				h1c1.7,0,3.2-0.7,4.3-2C457.4,55.6,458,53.9,458,51.9z"/>
		</g>
		<path class="st0" d="M37.8,86.3h-4.1V63.4h9.4c2.7,0,4.7,0.7,6,2s1.9,2.9,1.9,4.8c0,2.1-0.7,3.8-2.1,5.1c-1.4,1.3-3.2,1.9-5.3,1.9
			h-5.7v9.1H37.8z M37.8,73.7h4.9c1.3,0,2.3-0.3,2.9-0.9c0.7-0.6,1-1.5,1-2.5c0-0.9-0.3-1.7-0.9-2.4c-0.6-0.7-1.7-1-3.4-1h-4.5V73.7
			z"/>
		<path class="st0" d="M60.2,86.7c-2.5,0-4.4-0.9-5.7-2.7c-1.3-1.8-2-3.9-2-6.2c0-2.5,0.7-4.6,2.2-6.3s3.4-2.5,5.8-2.5
			c2.3,0,4.1,0.8,5.6,2.4s2.2,3.7,2.2,6.3c0,2.7-0.8,4.8-2.3,6.5C64.5,85.9,62.5,86.7,60.2,86.7z M60.3,83.5c2.6,0,3.9-1.9,3.9-5.8
			c0-1.7-0.3-3.1-0.9-4.1c-0.6-1-1.6-1.5-2.8-1.5c-1.3,0-2.3,0.5-2.9,1.6c-0.6,1-1,2.4-1,4.1c0,1.8,0.3,3.3,1,4.2
			C58.2,83,59.2,83.5,60.3,83.5z"/>
		<path class="st0" d="M92.8,69.4l-5,17h-3.4l-3.1-11.9l-3,11.9h-3.5l-5.2-17h4.1L77,80.8l2.9-11.4h3.5l3,11.4l3.3-11.4H92.8z"/>
		<path class="st0" d="M106,80.9l3.5,0.5c-0.4,1.5-1.3,2.8-2.6,3.8c-1.3,1-2.9,1.5-4.9,1.5c-2.4,0-4.2-0.8-5.7-2.4
			c-1.4-1.6-2.1-3.7-2.1-6.4c0-2.6,0.7-4.7,2.2-6.4c1.4-1.7,3.4-2.5,5.9-2.5c2.4,0,4.3,0.8,5.6,2.5s2,3.8,2,6.4v0.4H98.1
			c0,1.2,0.1,2.1,0.3,2.8c0.2,0.7,0.7,1.3,1.3,1.8c0.6,0.5,1.5,0.8,2.4,0.8C104.1,83.7,105.3,82.8,106,80.9z M105.8,75.9
			c0-1.2-0.4-2.2-1.1-3s-1.6-1.2-2.7-1.2s-1.9,0.4-2.6,1.1s-1.1,1.7-1.2,3.1H105.8z"/>
		<path class="st0" d="M117.1,86.3h-3.8v-17h3.5v4c0.5-1.6,1.2-2.7,2-3.5c0.9-0.7,1.7-1.1,2.7-1.1c0.1,0,0.3,0,0.5,0V73
			c-1.9,0-3.2,0.6-3.9,1.9c-0.6,1.2-0.9,2.4-0.9,3.6L117.1,86.3L117.1,86.3z"/>
		<path class="st0" d="M135.4,80.9l3.5,0.5c-0.4,1.5-1.3,2.8-2.6,3.8s-2.9,1.5-4.9,1.5c-2.4,0-4.2-0.8-5.7-2.4
			c-1.4-1.6-2.1-3.7-2.1-6.4c0-2.6,0.7-4.7,2.2-6.4c1.4-1.7,3.4-2.5,5.9-2.5c2.4,0,4.3,0.8,5.6,2.5s2,3.8,2,6.4v0.4h-11.6
			c0,1.2,0.1,2.1,0.3,2.8c0.2,0.7,0.7,1.3,1.3,1.8s1.5,0.8,2.4,0.8C133.5,83.7,134.8,82.8,135.4,80.9z M135.2,75.9
			c0-1.2-0.4-2.2-1.1-3c-0.7-0.8-1.6-1.2-2.7-1.2c-1.1,0-1.9,0.4-2.6,1.1c-0.7,0.7-1.1,1.7-1.2,3.1H135.2z"/>
		<path class="st0" d="M156.6,86.3H153v-3.4c-1,2.5-2.7,3.8-5,3.8c-2.1,0-3.7-0.9-4.8-2.6s-1.7-3.9-1.7-6.5c0-2.4,0.6-4.5,1.7-6.3
			c1.2-1.8,2.8-2.7,4.9-2.7c2.2,0,3.7,1,4.6,3v-8.3h3.8v23H156.6z M152.8,76.3c0-1.4-0.3-2.4-1-3.2s-1.5-1.2-2.5-1.2
			c-1.1,0-2,0.5-2.7,1.5s-1,2.5-1,4.4c0,3.8,1.2,5.7,3.6,5.7c0.9,0,1.8-0.4,2.5-1.2c0.7-0.8,1.1-1.9,1.1-3.1L152.8,76.3L152.8,76.3z
			"/>
		<path class="st0" d="M171.6,86.3h-1.7V63.4h3.8v8.3c0.7-1.3,1.5-2.1,2.2-2.5s1.6-0.6,2.6-0.6c1.9,0,3.4,0.8,4.6,2.4
			c1.2,1.6,1.8,3.8,1.8,6.6c0,2.5-0.6,4.7-1.8,6.5s-2.9,2.7-5.2,2.7s-4-1-5.3-3.1L171.6,86.3z M173.7,79.1c0,1.5,0.3,2.6,1,3.4
			c0.7,0.7,1.5,1.1,2.5,1.1s1.9-0.4,2.5-1.2s1-2.5,1.1-4.9c0-1.8-0.3-3.1-0.9-4.1c-0.6-1-1.5-1.4-2.6-1.4s-1.9,0.4-2.6,1.2
			c-0.7,0.8-1,2-1,3.5V79.1z"/>
		<path class="st0" d="M200.6,69.4L194,88.7c-0.4,1.2-1,2.1-1.7,2.8c-0.7,0.7-1.7,1-3,1c-0.5,0-1.2,0-2.2-0.1v-3h1.8
			c0.8,0,1.4-0.1,1.8-0.4c0.4-0.3,0.7-0.7,0.9-1.4c0.2-0.7,0.3-1.1,0.3-1.2s-0.1-0.4-0.4-1l-5.8-15.9h4l4.1,11.2l3.5-11.2
			L200.6,69.4L200.6,69.4z"/>
	</g>
</g>
</svg>
