<svg width="48" height="49" viewBox="0 0 48 49" fill="none" xmlns="http://www.w3.org/2000/svg">
  <g clip-path="url(#clip0_1103_321)">
    <path d="M33.0042 20.4154L28.5602 15.9857C27.8963 15.324 26.82 15.324 26.1561 15.9857L13.7229 28.3787C13.0591 29.0404 13.0591 30.1132 13.7229 30.7749L18.167 35.2046C18.8309 35.8663 19.9072 35.8663 20.571 35.2046L33.0042 22.8116C33.6681 22.1499 33.6681 21.0771 33.0042 20.4154Z" fill="#0062FE" />
    <path d="M13.504 28.597C12.9609 29.1383 12.9609 30.0157 13.504 30.5557L18.3862 35.4221C18.9292 35.9634 19.8094 35.9634 20.3512 35.4221L33.222 22.5929C33.7651 22.0516 33.7651 21.1743 33.222 20.6343" fill="#65B1FE" />
    <path d="M18.6338 35.6698L13.2561 30.3096L9.95672 33.5983L15.3344 38.9585L18.6338 35.6698Z" fill="#000036" />
    <path d="M42.6798 46.0037L43.8381 44.8491L27.3676 28.4319L26.2092 29.5865L42.6798 46.0037Z" fill="#000036" />
    <path d="M19.3607 22.7601L20.519 21.6055L3.1695 4.31209L2.01116 5.46668L19.3607 22.7601Z" fill="#000036" />
    <path d="M30.7756 28.9721L26.6819 33.0526C26.0024 33.7298 26.0024 34.8278 26.6819 35.505L31.0259 39.835C31.7053 40.5122 32.8069 40.5122 33.4863 39.835L37.5801 35.7545C38.2595 35.0772 38.2595 33.9792 37.5801 33.302L33.2361 28.9721C32.5566 28.2948 31.4551 28.2948 30.7756 28.9721Z" fill="#65B1FE" />
    <path d="M38.8704 37.0399L34.7766 41.1204C34.0972 41.7977 34.0972 42.8957 34.7766 43.5729L39.1206 47.9028C39.8 48.5801 40.9016 48.5801 41.581 47.9028L45.6748 43.8223C46.3542 43.1451 46.3542 42.0471 45.6748 41.3699L41.3308 37.0399C40.6514 36.3627 39.5498 36.3627 38.8704 37.0399Z" fill="#65B1FE" />
    <path d="M4.60327 2.88418L0.509516 6.96468C-0.169915 7.64191 -0.169915 8.73992 0.509516 9.41715L4.8535 13.7471C5.53293 14.4243 6.63451 14.4243 7.31394 13.7471L11.4077 9.66657C12.0871 8.98934 12.0871 7.89133 11.4077 7.2141L7.06371 2.88418C6.38428 2.20695 5.2827 2.20695 4.60327 2.88418Z" fill="#65B1FE" />
    <path d="M12.698 10.9521L8.60424 15.0326C7.92481 15.7098 7.92481 16.8078 8.60424 17.485L12.9482 21.8149C13.6277 22.4922 14.7292 22.4922 15.4087 21.8149L19.5024 17.7344C20.1818 17.0572 20.1819 15.9592 19.5024 15.282L15.1584 10.9521C14.479 10.2748 13.3774 10.2748 12.698 10.9521Z" fill="#65B1FE" />
    <path d="M26.6824 33.0513C26.003 33.7285 26.003 34.8265 26.6824 35.5037L31.0268 39.834C31.7062 40.5112 32.8077 40.5112 33.4872 39.834L37.5806 35.7538C38.26 35.0766 38.26 33.9786 37.5806 33.3014" fill="#C1E1FF" />
    <path d="M34.7764 41.1206C34.097 41.7979 34.097 42.8958 34.7764 43.5731L39.1208 47.9033C39.8002 48.5806 40.9017 48.5806 41.5812 47.9033L45.6746 43.8232C46.354 43.1459 46.354 42.048 45.6746 41.3707" fill="#C1E1FF" />
    <path d="M0.509584 6.96338C-0.169861 7.64062 -0.169861 8.73858 0.509584 9.41583L4.85392 13.7461C5.53336 14.4233 6.63489 14.4233 7.31433 13.7461L11.4077 9.66595C12.0872 8.9887 12.0872 7.89074 11.4077 7.2135" fill="#C1E1FF" />
    <path d="M8.60382 15.0327C7.92438 15.71 7.92438 16.8079 8.60382 17.4852L12.9482 21.8154C13.6276 22.4927 14.7291 22.4927 15.4086 21.8154L19.502 17.7353C20.1814 17.058 20.1814 15.9601 19.502 15.2828" fill="#C1E1FF" />
    <path d="M2.54932 38.7622V43.0591C2.54932 44.8728 4.02402 46.3427 5.8436 46.3427H10.1545" fill="#000036" />
    <path d="M8.22667 32.9875C6.58725 33.2915 5.96185 35.304 7.14059 36.4789L12.4449 41.766C13.6236 42.941 15.6427 42.3176 15.9476 40.6835C16.0725 40.0139 15.8589 39.3264 15.3763 38.8441L10.072 33.557C9.58942 33.076 8.8984 32.8618 8.22667 32.9875Z" fill="#65B1FE" />
    <path d="M13.5061 42.8229L6.07931 35.4202C5.12901 34.473 3.58827 34.473 2.63797 35.4202C1.68767 36.3674 1.68767 37.9032 2.63797 38.8504L10.0648 46.2531C11.0151 47.2004 12.5558 47.2004 13.5061 46.2531C14.4564 45.3059 14.4564 43.7702 13.5061 42.8229Z" fill="#0062FE" />
    <path d="M23.3638 28.716C25.0929 28.716 26.4946 27.3189 26.4946 25.5953C26.4946 23.8718 25.0929 22.4746 23.3638 22.4746C21.6346 22.4746 20.2329 23.8718 20.2329 25.5953C20.2329 27.3189 21.6346 28.716 23.3638 28.716Z" fill="#0062FE" />
    <path d="M23.3637 27.2902C24.3025 27.2902 25.0636 26.5316 25.0636 25.5958C25.0636 24.66 24.3025 23.9014 23.3637 23.9014C22.4249 23.9014 21.6638 24.66 21.6638 25.5958C21.6638 26.5316 22.4249 27.2902 23.3637 27.2902Z" fill="#000036" />
    <path d="M34.3879 18.0201L30.7964 14.4402C29.2895 12.9382 26.712 13.7347 26.3208 15.8229L29.7451 19.2361L33.1693 22.6493C35.2643 22.2606 36.0634 19.6902 34.5565 18.1882L34.3879 18.0201Z" fill="#65B1FE" />
    <path d="M47.6769 19.5951C49.1091 18.0674 45.6514 12.5302 39.9559 7.22765C34.2591 1.92513 28.4813 -1.13531 27.049 0.393627C26.5703 0.904127 26.6411 1.86356 27.1545 3.11031C28.1789 5.59611 30.9764 9.22989 34.77 12.7611C39.0255 16.7232 43.3274 19.4322 45.8277 19.9119C46.6732 20.0735 47.314 19.9812 47.6756 19.5951H47.6769Z" fill="#0062FE" />
    <path d="M45.829 19.912C43.3287 19.4322 39.0269 16.7233 34.7713 12.7611C30.9778 9.22994 28.1802 5.59615 27.1559 3.11035C26.7801 4.6675 28.9047 8.16917 32.4216 11.8466C33.2233 12.6841 33.2078 14.0079 32.3907 14.8313L30.8349 16.4L32.0754 17.6224L33.7715 15.9126C34.5487 15.1289 35.7995 15.0571 36.6565 15.7536C40.8426 19.1539 44.6593 20.9419 45.8303 19.9145L45.829 19.912Z" fill="#65B1FE" />
  </g>
  <defs>
    <clipPath id="clip0_1103_321">
      <rect width="48" height="48.4103" fill="white" />
    </clipPath>
  </defs>
</svg>
  