<svg width="18" height="18" viewBox="0 0 18 18" fill="none" xmlns="http://www.w3.org/2000/svg">
  <g clip-path="url(#clip0_967_4134)">
    <path d="M11.2237 0H1.773C0.883519 0 0.105225 0.7875 0.105225 1.6875C0.105225 2.5875 0.883519 3.375 1.773 3.375H11.2237V0Z" fill="white" />
    <path d="M16.783 5.625H0.105225V15.75C0.105225 16.9875 1.10589 18 2.32892 18H16.783C17.4501 18 17.8948 17.55 17.8948 16.875V6.75C17.8948 6.075 17.4501 5.625 16.783 5.625ZM14.0033 13.5C13.1139 13.5 12.3356 12.7125 12.3356 11.8125C12.3356 10.9125 13.1139 10.125 14.0033 10.125C14.8928 10.125 15.6711 10.9125 15.6711 11.8125C15.6711 12.7125 14.8928 13.5 14.0033 13.5Z" fill="white" />
  </g>
  <defs>
    <clipPath id="clip0_967_4134">
      <rect width="17.7896" height="18" fill="white" transform="translate(0.105225)" />
    </clipPath>
  </defs>
</svg>
  