<svg width="44" height="44" viewBox="0 0 44 44" fill="none" xmlns="http://www.w3.org/2000/svg">
  <g filter="url(#filter0_di_923_794)">
    <path d="M7 22C7 13.7738 13.6686 7 21.8948 7C30.121 7 36.7896 13.7738 36.7896 22C36.7896 30.2262 30.121 37 21.8948 37C13.6686 37 7 30.2262 7 22Z" fill="white" shape-rendering="crispEdges" />
    <g clip-path="url(#clip0_923_794)">
      <path d="M21.8948 13C26.8077 13 30.7896 17.0298 30.7896 22C30.7896 26.971 26.8077 31 21.8948 31C16.9827 31 13 26.9706 13 22C13 17.0298 16.9827 13 21.8948 13Z" fill="#F5AC37" />
      <path d="M22.2226 22.6355H25.6025C25.6745 22.6355 25.7085 22.6355 25.7138 22.5399C25.7414 22.192 25.7414 21.8421 25.7138 21.4938C25.7138 21.4262 25.6805 21.3982 25.6081 21.3982H18.8815C18.7983 21.3982 18.7759 21.4262 18.7759 21.5052V22.5063C18.7759 22.6355 18.7759 22.6355 18.9092 22.6355H22.2226ZM25.3363 20.2282C25.3459 20.2027 25.3459 20.1747 25.3363 20.1496C25.2799 20.0253 25.213 19.9066 25.1354 19.7952C25.0185 19.6049 24.8808 19.4295 24.7239 19.272C24.6498 19.1768 24.5642 19.0913 24.4681 19.0188C23.987 18.6045 23.415 18.3113 22.8002 18.1639C22.49 18.0934 22.173 18.0598 21.8551 18.0626H18.8699C18.7867 18.0626 18.7755 18.0962 18.7755 18.1695V20.1662C18.7755 20.2505 18.7755 20.2731 18.8811 20.2731H25.2963C25.2963 20.2731 25.3519 20.2618 25.3631 20.2282H25.3359H25.3363ZM25.3363 23.8056C25.2418 23.7951 25.1466 23.7951 25.0521 23.8056H18.8871C18.8039 23.8056 18.7759 23.8056 18.7759 23.9182V25.8703C18.7759 25.9602 18.7759 25.9829 18.8871 25.9829H21.7335C21.8696 25.9934 22.0057 25.9837 22.1389 25.9549C22.552 25.925 22.9583 25.8342 23.3458 25.6848C23.4866 25.6354 23.6227 25.571 23.7512 25.4936H23.7901C24.4573 25.1425 24.9993 24.5909 25.3411 23.9137C25.3411 23.9137 25.3799 23.8287 25.3363 23.8064V23.8056ZM17.6587 26.995V26.9614V25.6508V25.2065V23.8846C17.6587 23.8113 17.6587 23.8003 17.5699 23.8003H16.3634C16.2966 23.8003 16.269 23.8003 16.269 23.7104V22.6416H17.5587C17.6307 22.6416 17.6587 22.6416 17.6587 22.546V21.4886C17.6587 21.4209 17.6587 21.4043 17.5699 21.4043H16.3634C16.2966 21.4043 16.269 21.4043 16.269 21.3144V20.3246C16.269 20.2626 16.269 20.246 16.3578 20.246H17.553C17.6363 20.246 17.6587 20.246 17.6587 20.1391V17.1072C17.6587 17.0173 17.6587 16.9946 17.77 16.9946H21.9392C22.2418 17.0068 22.5424 17.0404 22.8398 17.0959C23.4526 17.2105 24.0414 17.432 24.5798 17.7483C24.9368 17.961 25.2654 18.2177 25.558 18.5134C25.7782 18.7447 25.9767 18.9949 26.1528 19.2614C26.3278 19.5316 26.4731 19.8203 26.5871 20.1221C26.6011 20.2006 26.6756 20.2537 26.7533 20.2403H27.7483C27.876 20.2403 27.876 20.2403 27.8816 20.3643V21.2869C27.8816 21.3768 27.8484 21.3995 27.7591 21.3995H26.9918C26.9142 21.3995 26.8917 21.3995 26.8973 21.5007C26.9278 21.8433 26.9278 22.1872 26.8973 22.5298C26.8973 22.6254 26.8973 22.6367 27.0034 22.6367H27.8812C27.92 22.6874 27.8812 22.738 27.8812 22.789C27.8868 22.8542 27.8868 22.9202 27.8812 22.9854V23.6663C27.8812 23.7618 27.8536 23.7902 27.7699 23.7902H26.7192C26.646 23.776 26.5747 23.8234 26.5579 23.8971C26.3078 24.5552 25.9075 25.1453 25.3903 25.6184C25.2014 25.7905 25.0029 25.9525 24.7955 26.102C24.573 26.2316 24.3564 26.3664 24.1283 26.4733C23.7084 26.6645 23.2681 26.8054 22.8162 26.895C22.3871 26.9727 21.952 27.0079 21.5153 27.0019H17.6571V26.9962L17.6587 26.995Z" fill="#FEFEFD" />
    </g>
  </g>
  <defs>
    <filter id="filter0_di_923_794" x="0" y="0" width="43.7896" height="44" filterUnits="userSpaceOnUse" color-interpolation-filters="sRGB">
      <feFlood flood-opacity="0" result="BackgroundImageFix" />
      <feColorMatrix in="SourceAlpha" type="matrix" values="0 0 0 0 0 0 0 0 0 0 0 0 0 0 0 0 0 0 127 0" result="hardAlpha" />
      <feOffset />
      <feGaussianBlur stdDeviation="3.5" />
      <feComposite in2="hardAlpha" operator="out" />
      <feColorMatrix type="matrix" values="0 0 0 0 1 0 0 0 0 1 0 0 0 0 1 0 0 0 0.25 0" />
      <feBlend mode="normal" in2="BackgroundImageFix" result="effect1_dropShadow_923_794" />
      <feBlend mode="normal" in="SourceGraphic" in2="effect1_dropShadow_923_794" result="shape" />
      <feColorMatrix in="SourceAlpha" type="matrix" values="0 0 0 0 0 0 0 0 0 0 0 0 0 0 0 0 0 0 127 0" result="hardAlpha" />
      <feOffset dy="4" />
      <feGaussianBlur stdDeviation="2" />
      <feComposite in2="hardAlpha" operator="arithmetic" k2="-1" k3="1" />
      <feColorMatrix type="matrix" values="0 0 0 0 0 0 0 0 0 0 0 0 0 0 0 0 0 0 0.3 0" />
      <feBlend mode="normal" in2="shape" result="effect2_innerShadow_923_794" />
    </filter>
    <clipPath id="clip0_923_794">
      <rect width="17.7896" height="18" fill="white" transform="translate(13 13)" />
    </clipPath>
  </defs>
</svg>
  