<svg width="30" height="30" viewBox="0 0 30 30" fill="none" xmlns="http://www.w3.org/2000/svg">
  <rect width="29.6493" height="30" rx="14.8247" fill="white" />
  <g clip-path="url(#clip0_1915_19272)">
    <path d="M14.8247 0C23.0129 0 29.6493 6.71632 29.6493 15C29.6493 23.285 23.0129 30 14.8247 30C6.63781 30 0 23.2844 0 15C0 6.71632 6.63781 0 14.8247 0Z" fill="#F5AC37" />
    <path d="M15.3709 16.0592H21.0041C21.1241 16.0592 21.1809 16.0592 21.1895 15.8999C21.2356 15.3201 21.2356 14.7369 21.1895 14.1564C21.1895 14.0436 21.1342 13.9971 21.0134 13.9971H9.80251C9.66375 13.9971 9.62639 14.0436 9.62639 14.1753V15.8439C9.62639 16.0592 9.62639 16.0592 9.84854 16.0592H15.3709ZM20.5604 12.047C20.5764 12.0044 20.5764 11.9579 20.5604 11.916C20.4664 11.7088 20.355 11.511 20.2255 11.3254C20.0307 11.0081 19.8013 10.7159 19.5397 10.4533C19.4163 10.2947 19.2736 10.1522 19.1135 10.0314C18.3116 9.34087 17.3583 8.85216 16.3336 8.60646C15.8166 8.48901 15.2882 8.43298 14.7585 8.43771H9.78316C9.6444 8.43771 9.62573 8.49373 9.62573 8.61591V11.9437C9.62573 12.0841 9.62573 12.1219 9.80184 12.1219H20.4937C20.4937 12.1219 20.5864 12.103 20.6051 12.047H20.5598H20.5604ZM20.5604 18.0093C20.403 17.9918 20.2442 17.9918 20.0868 18.0093H9.81185C9.67309 18.0093 9.62639 18.0093 9.62639 18.197V21.4505C9.62639 21.6003 9.62639 21.6381 9.81185 21.6381H14.5557C14.7825 21.6557 15.0094 21.6395 15.2315 21.5916C15.92 21.5416 16.5971 21.3904 17.2429 21.1413C17.4777 21.059 17.7045 20.9517 17.9187 20.8227H17.9834C19.0954 20.2375 19.9987 19.3181 20.5684 18.1895C20.5684 18.1895 20.6331 18.0478 20.5604 18.0107V18.0093ZM7.76447 23.325V23.269V21.0846V20.3442V18.1409C7.76447 18.0188 7.76447 18.0005 7.61637 18.0005H5.60568C5.49427 18.0005 5.44824 18.0005 5.44824 17.8507V16.0693H7.59769C7.71777 16.0693 7.76447 16.0693 7.76447 15.91V14.1476C7.76447 14.0349 7.76447 14.0072 7.61637 14.0072H5.60568C5.49427 14.0072 5.44824 14.0072 5.44824 13.8573V12.2076C5.44824 12.1043 5.44824 12.0767 5.59634 12.0767H7.58835C7.72711 12.0767 7.76447 12.0767 7.76447 11.8985V6.84537C7.76447 6.69552 7.76447 6.65771 7.94993 6.65771H14.8986C15.403 6.67797 15.904 6.73399 16.3996 6.82647C17.421 7.01749 18.4023 7.38672 19.2996 7.9139C19.8946 8.26828 20.4424 8.69624 20.93 9.18899C21.2969 9.57442 21.6278 9.99157 21.9214 10.4357C22.2129 10.886 22.455 11.3672 22.6452 11.8701C22.6685 12.0011 22.7926 12.0895 22.922 12.0672H24.5805C24.7933 12.0672 24.7933 12.0672 24.8026 12.2738V13.8114C24.8026 13.9613 24.7473 13.9991 24.5985 13.9991H23.3196C23.1902 13.9991 23.1528 13.9991 23.1622 14.1678C23.2129 14.7389 23.2129 15.312 23.1622 15.883C23.1622 16.0423 23.1622 16.0612 23.339 16.0612H24.802C24.8667 16.1456 24.802 16.23 24.802 16.315C24.8113 16.4237 24.8113 16.5337 24.802 16.6424V17.7771C24.802 17.9364 24.7559 17.9837 24.6165 17.9837H22.8653C22.7432 17.96 22.6245 18.039 22.5965 18.1619C22.1795 19.2587 21.5124 20.2422 20.6505 21.0306C20.3356 21.3175 20.0047 21.5875 19.6592 21.8366C19.2882 22.0526 18.9273 22.2774 18.5471 22.4556C17.8473 22.7742 17.1134 23.0091 16.3603 23.1583C15.6451 23.2879 14.92 23.3466 14.1921 23.3365H7.7618V23.327L7.76447 23.325Z" fill="#FEFEFD" />
  </g>
  <defs>
    <clipPath id="clip0_1915_19272">
      <rect width="29.6493" height="30" fill="white" />
    </clipPath>
  </defs>
</svg>
  