<svg xmlns="http://www.w3.org/2000/svg" fill="none" viewBox="0 0 47 48">
  <g clip-path="url(#a)">
    <path fill="#D1E2FE"
      d="M25.619 11.448 12.85 17.881 7.394 6.014 20.288 0l5.33 11.448ZM37.41 24.035l1.004-4.983-4.333-9.275 6.916-3.289 5.218 12.277-8.804 5.27Z" />
    <path fill="#669BFF"
      d="M38.977 26.154v1.906l-3.533 1.652-.761-1.642 4.294-1.916ZM13.617 34.311 7.954 22.21l.176-2.567 5.205 11.106.282 3.563Z" />
    <path fill="#D1E2FE" d="M13.617 34.313v.032l-7.754 3.617L0 25.987l7.978-3.727 5.64 12.053Z" />
    <path fill="#B8CAFE"
      d="m38.412 19.052-1 4.984-3.839 1.657-13.904 6.026-.018.008-6.033 2.586-.281-3.565 25.075-11.696Z" />
    <path fill="#447AD3" d="M39.442 38.092v3.594L25.9 48l.376-3.755 13.166-6.153Z" />
    <path fill="#1F54FE"
      d="M26.276 44.244 25.9 48l-5.521-11.025-1.29-2.721.29-2.721.127-.062 6.77 12.773ZM5.865 37.962l-.439 2.665L.121 30.354 0 25.989l5.865 11.973Z" />
    <path fill="#669BFF" d="m19.38 31.533-.29 2.72-7.259 3.386-.407.19-5.998 2.799.44-2.666" />
    <path fill="#669BFF" d="m20.282 36.767-8.45 3.859-.086-2.947 7.343-3.425 1.193 2.513Z" />
    <path fill="#1F54FE" d="m12.723 17.604-1.574.748-3.755-7.673V6.014l5.33 11.59Z" />
    <path fill="#669BFF"
      d="m46.205 18.777-13.014 6.184.352.752 1.138 2.359 4.284-1.726 7.527-3.519-.289-4.048.002-.002ZM10.334 38.338l1.412-.659.085 2.947-1.497-2.288Z" />
    <path fill="#B8CAFE" d="M39.436 38.096 26.27 44.25 19.507 31.47l13.708-6.52 2.437 5.177.1.214h.001l3.683 7.754Z" />
    <path fill="#FFFEFF" d="M8.13 19.642 33.158 7.76l5.255 11.292-25.078 11.696" />
  </g>
  <defs>
    <clipPath id="a">
      <path fill="#fff" d="M0 0h46.494v48H0z" />
    </clipPath>
  </defs>
</svg>