<svg xmlns="http://www.w3.org/2000/svg" xmlns:xlink="http://www.w3.org/1999/xlink" width="193.639" height="34.494" viewBox="0 0 193.639 34.494">
  <defs>
    <linearGradient id="linear-gradient" x1="0.82" y1="0.94" x2="0.035" y2="0.042" gradientUnits="objectBoundingBox">
      <stop offset="0" stop-color="#1984ff"/>
      <stop offset="1" stop-color="#4dd9f6"/>
    </linearGradient>
  </defs>
  <g id="logo" transform="translate(0)">
    <rect id="Rectangle_9410" data-name="Rectangle 9410" width="3.008" height="14.4" transform="translate(50.491 12.751)" fill="#fff"/>
    <rect id="Rectangle_9411" data-name="Rectangle 9411" width="3.008" height="3.461" transform="translate(90.45 7.325)" fill="#fff"/>
    <rect id="Rectangle_9412" data-name="Rectangle 9412" width="3.008" height="14.4" transform="translate(90.45 12.76)" fill="#fff"/>
    <path id="Path_10348" data-name="Path 10348" d="M702.4,127.062a3.786,3.786,0,0,1-.412,1.809,3.012,3.012,0,0,1-1.132,1.2,3.508,3.508,0,0,1-3.327.013,2.868,2.868,0,0,1-1.119-1.158,3.624,3.624,0,0,1-.4-1.731v-8.626h-3.012v8.892a6.575,6.575,0,0,0,.679,3.048,5.011,5.011,0,0,0,1.9,2.05,5.442,5.442,0,0,0,2.849.732v-.008a5.138,5.138,0,0,0,2.742-.714,3.989,3.989,0,0,0,1.358-1.38v1.779h2.848v-14.4H702.4Z" transform="translate(-618.438 -105.815)" fill="#fff"/>
    <rect id="Rectangle_9413" data-name="Rectangle 9413" width="3.008" height="3.461" transform="translate(50.491 7.317)" fill="#fff"/>
    <path id="Path_10349" data-name="Path 10349" d="M341.831,68.02H338.69V87.854l11.713,0v-2.8h-8.572Z" transform="translate(-302.255 -60.703)" fill="#fff"/>
    <path id="Path_10350" data-name="Path 10350" d="M536.552,117.716a5.367,5.367,0,0,0-1.781-1.465,6.538,6.538,0,0,0-3.062-.692,6.934,6.934,0,0,0-3.675.985,7.234,7.234,0,0,0-2.582,2.689,7.683,7.683,0,0,0-.968,3.837,7.77,7.77,0,0,0,.95,3.83,7.2,7.2,0,0,0,2.582,2.7,6.985,6.985,0,0,0,3.714,1,6.682,6.682,0,0,0,3.035-.687,4.919,4.919,0,0,0,1.651-1.312v7H539.4V115.873h-2.849Zm-.709,7.786a4.3,4.3,0,0,1-1.571,1.691,4.209,4.209,0,0,1-2.249.612h0a4.255,4.255,0,0,1-2.277-.609,4.2,4.2,0,0,1-1.557-1.694,5.2,5.2,0,0,1-.559-2.436,5.12,5.12,0,0,1,.559-2.423,4.2,4.2,0,0,1,1.571-1.677,4.278,4.278,0,0,1,2.259-.612,4.21,4.21,0,0,1,2.249.612,4.321,4.321,0,0,1,1.571,1.677,5.034,5.034,0,0,1,.572,2.423A5.113,5.113,0,0,1,535.843,125.5Z" transform="translate(-468.061 -103.126)" fill="#fff"/>
    <path id="Path_10351" data-name="Path 10351" d="M1437.554,128.617l-3.739-10.117h-3.275l5.641,14.4,2.741,0,5.67-14.4h-3.3Z" transform="translate(-1276.646 -105.752)" fill="#fff"/>
    <path id="Path_10352" data-name="Path 10352" d="M1584.422,117.552a6.212,6.212,0,0,0-2.152-1.531,7.191,7.191,0,0,0-2.9-.559,6.822,6.822,0,0,0-3.622.968,7.158,7.158,0,0,0-2.542,2.649,7.733,7.733,0,0,0-.944,3.861,7.935,7.935,0,0,0,.932,3.847,7.011,7.011,0,0,0,2.6,2.717,7.278,7.278,0,0,0,3.82,1v.005a7.628,7.628,0,0,0,2.7-.468,6.541,6.541,0,0,0,2.131-1.277,5.163,5.163,0,0,0,1.318-1.823l-2.451-1.2a4.328,4.328,0,0,1-1.45,1.506,4.054,4.054,0,0,1-2.224.585,4.259,4.259,0,0,1-2.275-.612,4.1,4.1,0,0,1-1.545-1.7,4.674,4.674,0,0,1-.43-1.67H1586.1a3.99,3.99,0,0,0,.107-.692c.018-.25.027-.488.027-.72a7.562,7.562,0,0,0-.466-2.661A6.837,6.837,0,0,0,1584.422,117.552Zm-8.618,2.735a3.9,3.9,0,0,1,1.438-1.7,3.854,3.854,0,0,1,2.13-.6,3.586,3.586,0,0,1,3.421,2.224,3.853,3.853,0,0,1,.271,1.238h-7.6A5.518,5.518,0,0,1,1575.8,120.286Z" transform="translate(-1403.116 -103.04)" fill="#fff"/>
    <rect id="Rectangle_9414" data-name="Rectangle 9414" width="3.008" height="3.461" transform="translate(148.835 7.312)" fill="#fff"/>
    <path id="Path_10353" data-name="Path 10353" d="M1736.169,116.713a4.948,4.948,0,0,0-2.556.626,3.576,3.576,0,0,0-1.278,1.381V116.9h-2.875v14.4h3.012V123a3.55,3.55,0,0,1,.918-2.622,3.26,3.26,0,0,1,2.41-.918h1.249v-2.745Z" transform="translate(-1543.409 -104.155)" fill="#fff"/>
    <path id="Path_10354" data-name="Path 10354" d="M1128.671,72.687a8.742,8.742,0,0,0-3.526-3.474,11.059,11.059,0,0,0-5.365-1.24h-6.5V87.8h6.5a10.962,10.962,0,0,0,5.365-1.251,8.811,8.811,0,0,0,3.526-3.5,11.345,11.345,0,0,0,0-10.366ZM1125.9,81.66a6.048,6.048,0,0,1-2.409,2.466,7.336,7.336,0,0,1-3.658.879h-3.408V70.77h3.409a7.248,7.248,0,0,1,3.647.879,6.185,6.185,0,0,1,2.409,2.464,7.728,7.728,0,0,1,.861,3.765A7.919,7.919,0,0,1,1125.9,81.66Z" transform="translate(-993.516 -60.657)" fill="#fff"/>
    <path id="Path_10355" data-name="Path 10355" d="M907.915,72.511a5.336,5.336,0,0,0-1.647-1.3,6.539,6.539,0,0,0-3.062-.692,6.932,6.932,0,0,0-3.674.985A7.217,7.217,0,0,0,896.95,74.2a7.679,7.679,0,0,0-.958,3.829,7.767,7.767,0,0,0,.946,3.838,7.2,7.2,0,0,0,2.582,2.7,6.986,6.986,0,0,0,3.714,1,6.7,6.7,0,0,0,3.035-.688,4.929,4.929,0,0,0,1.784-1.477v1.851H910.9V65.09h-2.981Zm-.568,7.945a4.3,4.3,0,0,1-1.565,1.691,4.219,4.219,0,0,1-2.259.612h0a4.181,4.181,0,0,1-3.828-2.295,5.215,5.215,0,0,1-.558-2.436,5.132,5.132,0,0,1,.558-2.423,4.206,4.206,0,0,1,1.568-1.687,4.3,4.3,0,0,1,2.259-.612,4.229,4.229,0,0,1,2.259.612,4.335,4.335,0,0,1,1.571,1.677,5.04,5.04,0,0,1,.572,2.424A5.113,5.113,0,0,1,907.347,80.455Z" transform="translate(-799.603 -58.088)" fill="#fff"/>
    <rect id="Rectangle_9415" data-name="Rectangle 9415" width="3.008" height="14.4" transform="translate(148.835 12.747)" fill="#fff"/>
    <path id="Path_10356" data-name="Path 10356" d="M1298.093,117.338a3.576,3.576,0,0,0-1.278,1.381V116.9h-2.875v14.4h3.012V123a3.549,3.549,0,0,1,.918-2.622,3.255,3.255,0,0,1,2.409-.918h1.251v-2.745h-.879a4.948,4.948,0,0,0-2.558.626Z" transform="translate(-1154.741 -104.155)" fill="#fff"/>
    <path id="Path_10357" data-name="Path 10357" d="M12.308,34.494c-.176,0-.354,0-.529-.014C6.454,34.472,2.188,31.067.633,25.591-1.421,18.532,1.3,8.366,12.025,1.578L14.595,0V2.992c0,5.64,2.282,8.881,4.489,12.014,1.829,2.582,3.717,5.247,3.717,8.922A10.506,10.506,0,0,1,12.383,34.494ZM9.144,30.682a2.225,2.225,0,0,0,.707.114h0a2.673,2.673,0,0,0,1.926-.78c1.454-1.492,1.248-4.144-.5-6.95C8.312,18.345,7.283,13.572,8.231,9.1,3.283,14.625,2.676,20.781,3.812,24.671A8.465,8.465,0,0,0,9.144,30.682ZM11.92,8.315c-1.4,4.056-.645,8.415,2.233,12.991,2,3.2,2.5,6.449,1.445,8.991a6.961,6.961,0,0,0,3.824-6.37c0-2.557-1.382-4.556-2.983-6.871l-.1-.138A25.051,25.051,0,0,1,11.92,8.315Z" fill="url(#linear-gradient)"/>
  </g>
</svg>
