<?xml version="1.0" standalone="no"?>
<!DOCTYPE svg PUBLIC "-//W3C//DTD SVG 20010904//EN"
 "http://www.w3.org/TR/2001/REC-SVG-20010904/DTD/svg10.dtd">
<svg version="1.0" xmlns="http://www.w3.org/2000/svg"
 width="64.000000pt" height="64.000000pt" viewBox="0 0 64.000000 64.000000"
 preserveAspectRatio="xMidYMid meet">

<g transform="translate(0.000000,64.000000) scale(0.100000,-0.100000)"
fill="#000000" stroke="none">
<path d="M294 546 c-18 -14 -18 -15 4 -13 12 1 22 7 22 14 0 16 -2 16 -26 -1z"/>
<path d="M125 508 c-40 -35 -79 -104 -89 -158 -12 -66 40 -199 97 -252 37 -33
111 -58 175 -58 80 0 122 20 185 85 95 99 114 163 82 271 -16 55 -84 143 -85
111 0 -10 4 -16 9 -13 11 7 61 -75 61 -98 0 -9 -6 -16 -12 -16 -9 0 -10 -2 -2
-8 14 -9 28 -52 17 -52 -14 0 -29 14 -38 35 -7 18 -9 18 -12 3 -6 -23 19 -48
46 -48 23 0 27 -20 11 -50 -6 -12 -17 -16 -30 -13 -21 6 -28 -11 -9 -22 16
-11 -32 -57 -53 -52 -10 3 -21 1 -24 -5 -13 -20 -96 -49 -142 -50 -50 0 -114
21 -127 43 -6 8 -4 10 6 4 12 -8 12 -6 0 8 -7 9 -17 15 -20 12 -4 -2 -8 2 -8
10 0 8 4 15 9 15 5 0 8 8 6 17 -3 16 9 18 132 19 74 1 140 -2 146 -7 6 -5 16
0 24 11 8 11 20 20 27 20 7 0 13 5 13 10 0 6 -3 9 -7 9 -5 -1 -24 -1 -43 0
-31 2 -33 3 -12 11 28 12 28 38 0 50 l-23 9 23 0 c26 1 64 31 39 31 -8 0 -28
-5 -46 -11 -32 -11 -43 -42 -18 -52 7 -3 5 -6 -5 -6 -11 -1 -18 6 -18 18 0 40
-9 49 -44 41 -19 -4 -39 -10 -45 -14 -16 -10 -14 -34 4 -39 11 -4 10 -4 -2 -3
-13 1 -18 10 -18 34 0 17 -3 32 -7 32 -5 0 -8 -27 -8 -59 0 -81 -16 -85 -25
-8 -5 34 -10 54 -12 45 -3 -10 -9 -18 -15 -18 -5 0 -8 7 -4 15 3 8 2 15 -3 15
-5 0 -12 -11 -15 -25 -8 -32 -24 -32 -36 1 -10 25 -33 54 -44 54 -3 0 -2 -7 1
-17 4 -10 2 -14 -5 -9 -6 3 -13 -3 -17 -14 -3 -11 -10 -20 -15 -20 -5 0 -10
-10 -12 -22 -2 -13 -10 -23 -18 -23 -17 0 -15 36 3 47 9 6 9 8 0 8 -29 0 -5
76 34 112 29 26 66 68 59 68 -3 0 -21 -14 -41 -32z m38 -147 c3 -11 -1 -22 -7
-24 -7 -3 -13 5 -14 19 -2 29 14 32 21 5z m-33 -22 c0 -16 -4 -28 -9 -25 -5 4
-8 14 -6 24 2 9 4 20 4 25 1 4 3 7 6 7 3 0 5 -14 5 -31z m260 -16 c0 -29 -3
-33 -27 -32 -27 0 -27 1 -5 9 29 12 28 28 -3 40 -34 13 -32 21 5 18 27 -2 30
-6 30 -35z m-180 -28 c0 -12 -19 -12 -23 0 -4 9 -1 12 9 8 7 -3 14 -7 14 -8z
m-99 -57 c13 -29 25 -56 27 -60 2 -3 -6 -4 -17 -1 -12 3 -17 11 -14 19 3 8 -1
22 -9 32 -17 19 -30 62 -19 62 4 0 18 -24 32 -52z m349 -102 c-8 -22 -14 -25
-35 -20 -19 5 -27 2 -33 -15 -7 -20 -9 -20 -27 -7 -20 15 -20 15 0 16 11 0 38
13 60 29 22 15 41 27 43 26 1 -1 -2 -14 -8 -29z m-265 -6 c3 -5 1 -10 -4 -10
-6 0 -11 5 -11 10 0 6 2 10 4 10 3 0 8 -4 11 -10z"/>
<path d="M146 473 c-6 -14 -5 -15 5 -6 7 7 10 15 7 18 -3 3 -9 -2 -12 -12z"/>
<path d="M140 430 c0 -5 5 -10 11 -10 5 0 7 5 4 10 -3 6 -8 10 -11 10 -2 0 -4
-4 -4 -10z"/>
<path d="M525 420 c-3 -5 -1 -10 4 -10 6 0 11 5 11 10 0 6 -2 10 -4 10 -3 0
-8 -4 -11 -10z"/>
</g>
</svg>
