<?xml version="1.0" standalone="no"?>
<!DOCTYPE svg PUBLIC "-//W3C//DTD SVG 20010904//EN"
 "http://www.w3.org/TR/2001/REC-SVG-20010904/DTD/svg10.dtd">
<svg version="1.0" xmlns="http://www.w3.org/2000/svg"
 width="3123.000000pt" height="3124.000000pt" viewBox="0 0 3123.000000 3124.000000"
 preserveAspectRatio="xMidYMid meet">

<g transform="translate(0.000000,3124.000000) scale(0.100000,-0.100000)"
fill="#000000" stroke="none">
<path d="M14747 31234 c-3 -3 -118 -15 -254 -25 -998 -74 -1935 -229 -2848
-470 -2301 -608 -4381 -1700 -6190 -3249 -569 -488 -1245 -1167 -1747 -1756
-2153 -2530 -3445 -5702 -3673 -9014 -29 -430 -38 -777 -32 -1285 6 -493 11
-625 42 -1040 105 -1400 396 -2742 890 -4110 662 -1829 1645 -3489 2936 -4960
336 -383 936 -990 1299 -1317 1489 -1337 3128 -2332 4995 -3030 1193 -447
2440 -746 3675 -882 1229 -136 2574 -129 3730 19 3053 391 5905 1652 8200
3626 330 284 545 483 876 814 429 428 791 829 1145 1265 977 1206 1760 2540
2332 3976 575 1440 917 2855 1057 4373 11 122 27 254 35 293 22 103 22 2191 0
2318 -8 47 -21 162 -30 255 -183 1992 -716 3856 -1605 5620 -541 1072 -1181
2044 -1966 2985 -1383 1657 -3037 2969 -4974 3944 -1266 638 -2491 1066 -3837
1340 -525 107 -934 166 -1593 231 -201 20 -446 46 -545 58 -170 20 -228 21
-1046 24 -476 2 -868 0 -872 -3z m558 -5535 l40 -11 -39 -32 -38 -32 59 -26
c32 -15 108 -41 168 -58 247 -71 362 -158 546 -414 45 -61 93 -117 107 -125
75 -38 160 -147 191 -244 7 -20 74 -124 149 -230 227 -321 437 -655 606 -967
137 -250 256 -436 461 -715 116 -158 161 -237 234 -404 21 -47 61 -126 89
-175 80 -139 107 -229 107 -356 -1 -92 -4 -113 -29 -170 -15 -36 -39 -101 -53
-145 -34 -109 -47 -133 -189 -346 -139 -208 -152 -222 -356 -356 -97 -65 -149
-93 -180 -98 -69 -11 -125 -40 -142 -73 -13 -26 -25 -32 -73 -42 -32 -6 -166
-37 -298 -67 -271 -64 -356 -71 -415 -38 l-35 20 120 5 120 5 -235 38 c-253
41 -424 78 -468 101 -15 8 -65 44 -112 81 -81 64 -327 232 -472 322 -37 23
-80 59 -95 80 -15 21 -56 61 -92 88 -95 73 -245 219 -296 289 -25 33 -80 88
-123 121 -62 49 -83 72 -108 123 -17 34 -42 71 -56 82 -17 12 -31 41 -43 82
-26 96 -53 138 -87 138 -44 0 -88 46 -95 100 -5 33 -21 64 -65 123 -32 43 -58
84 -58 91 0 6 -51 77 -114 156 -97 122 -119 157 -152 238 -32 82 -47 106 -105
166 -57 60 -69 68 -75 53 -9 -26 1 -45 108 -192 58 -80 109 -164 132 -218 37
-84 41 -117 11 -86 -28 28 -325 504 -325 520 0 9 9 27 19 40 19 24 19 25 -13
104 -18 44 -53 121 -78 170 -25 50 -58 123 -73 164 -15 41 -42 90 -60 110 -39
43 -97 155 -119 230 -9 30 -16 86 -16 123 0 38 -5 101 -11 139 -15 97 3 344
32 441 29 98 145 308 219 395 98 117 294 276 453 368 42 24 55 27 115 23 106
-8 189 7 435 77 279 79 387 101 536 110 99 6 117 10 132 29 72 83 76 86 121
86 24 0 61 -5 83 -11z m2025 -1050 c595 -72 606 -73 637 -100 33 -28 106 -49
171 -49 21 0 80 -11 132 -24 60 -16 147 -28 235 -34 134 -9 148 -12 340 -75
228 -75 975 -294 1110 -326 187 -44 336 -101 646 -244 112 -52 215 -98 229
-102 14 -4 78 -34 142 -66 65 -33 120 -59 124 -59 3 0 -4 15 -15 34 -12 18
-21 36 -21 40 0 3 26 6 59 6 51 0 72 -7 177 -60 66 -33 149 -84 185 -113 36
-28 150 -113 254 -187 306 -219 317 -229 458 -380 168 -180 347 -389 392 -456
19 -29 62 -103 95 -165 39 -76 60 -106 60 -90 0 24 1 23 26 -10 37 -50 80
-145 99 -218 17 -65 47 -272 41 -279 -2 -2 -16 29 -31 67 -16 39 -30 69 -32
67 -2 -2 10 -64 28 -137 60 -254 53 -327 -48 -477 -81 -121 -94 -146 -146
-285 -24 -62 -59 -137 -80 -168 -48 -72 -198 -233 -207 -222 -4 4 -33 136 -64
293 -31 157 -68 312 -82 345 -13 33 -49 91 -79 128 -52 66 -54 70 -48 116 8
70 -11 113 -85 195 -37 40 -89 101 -117 135 -27 35 -60 76 -73 91 -31 40 -73
47 -117 21 l-35 -20 0 79 c0 43 -4 90 -10 104 -16 43 -79 104 -169 164 -47 31
-183 140 -301 241 -214 183 -446 363 -507 395 -18 9 -86 36 -152 60 -149 55
-208 85 -285 143 -34 25 -88 58 -121 73 -225 103 -293 132 -392 165 -102 33
-113 39 -113 61 0 31 -30 49 -107 63 -35 7 -78 18 -95 25 -18 8 -121 37 -228
66 -319 85 -540 149 -615 181 -38 16 -97 34 -130 40 -33 6 -83 24 -112 40 -65
37 -131 46 -204 26 l-56 -14 -26 27 c-21 22 -41 30 -96 38 -39 6 -83 19 -98
30 -24 16 -70 22 -337 41 -170 13 -319 26 -330 31 -12 4 -28 16 -37 26 -23 27
-509 771 -509 780 0 3 15 4 33 2 17 -3 304 -38 637 -79z m-4412 -108 c26 -16
-12 -27 -178 -55 -299 -49 -646 -132 -895 -213 -44 -14 -84 -30 -90 -35 -19
-20 100 0 345 56 415 95 733 164 786 169 l51 6 6 -117 c9 -173 43 -332 110
-519 l26 -72 -57 -52 c-159 -146 -243 -191 -367 -197 -50 -2 -100 2 -134 11
-49 13 -64 13 -200 -9 -171 -29 -227 -45 -298 -87 -35 -21 -57 -42 -68 -67
l-17 -37 -44 15 c-40 13 -49 13 -88 -2 -23 -9 -70 -37 -103 -61 -72 -54 -128
-75 -197 -75 -83 0 -185 -27 -276 -71 -68 -34 -104 -61 -186 -141 -90 -88
-105 -98 -123 -89 -43 24 -60 13 -196 -126 -129 -133 -134 -137 -135 -106 0
62 -54 56 -100 -12 -17 -25 -42 -52 -55 -61 -22 -14 -27 -14 -59 1 l-35 17
-133 -110 c-151 -124 -237 -188 -391 -291 -204 -137 -290 -226 -368 -381 -23
-47 -68 -123 -99 -170 -73 -108 -95 -151 -140 -276 -30 -82 -44 -108 -75 -135
-96 -85 -153 -167 -189 -277 -24 -73 -32 -113 -72 -379 -9 -62 -20 -113 -24
-113 -11 0 -211 271 -284 383 -69 105 -157 278 -185 364 -35 104 -54 247 -54
398 -1 172 20 265 92 423 27 60 53 121 57 135 6 26 5 27 -41 27 l-48 0 107
109 c65 67 113 126 125 153 10 24 39 78 64 121 137 231 333 419 662 636 139
92 170 108 245 127 202 53 370 150 512 297 50 51 64 59 233 126 199 80 286
127 381 207 76 65 96 74 155 67 30 -3 58 1 84 12 65 28 218 74 227 69 4 -3 8
-11 8 -17 0 -7 -162 -79 -360 -161 -320 -133 -390 -166 -348 -166 7 0 171 61
365 136 194 74 420 155 502 179 167 49 180 54 307 137 123 79 224 118 445 172
237 58 315 73 534 107 191 29 262 34 283 20z m4918 -1128 c44 -30 88 -43 213
-59 63 -8 117 -17 121 -19 3 -2 81 -26 174 -55 93 -28 190 -62 216 -75 30 -15
121 -37 266 -64 203 -39 226 -45 324 -92 84 -41 120 -53 180 -59 101 -11 177
-39 257 -96 36 -26 96 -60 132 -75 l66 -28 25 23 c73 68 148 59 252 -32 29
-25 68 -46 102 -56 69 -20 96 -52 96 -112 0 -24 3 -44 6 -44 4 0 27 18 51 41
50 46 72 47 86 4 19 -58 56 -94 141 -135 94 -46 99 -50 170 -157 47 -71 55
-78 92 -84 61 -11 101 -30 188 -93 43 -31 98 -65 123 -76 25 -11 72 -47 106
-81 71 -72 140 -108 270 -139 51 -13 96 -26 100 -30 5 -4 -3 -20 -16 -36 -24
-27 -27 -28 -59 -16 -19 6 -49 12 -67 12 -31 0 -32 -1 -26 -32 4 -18 32 -73
63 -122 44 -72 57 -86 66 -74 6 8 25 31 42 52 l31 37 -1 -61 c-1 -56 2 -64 27
-86 15 -13 38 -24 50 -24 27 0 67 -26 67 -44 0 -16 -42 -36 -76 -36 l-25 0 31
-42 c17 -24 39 -54 50 -68 l19 -25 12 33 c6 17 14 32 18 32 21 0 186 -160 225
-219 48 -73 88 -111 116 -111 26 0 28 -7 19 -58 -5 -26 -11 -62 -14 -79 -5
-26 -11 -33 -30 -33 -58 0 -57 -7 20 -122 43 -63 77 -125 81 -146 9 -48 29
-88 49 -95 16 -7 20 -51 9 -130 -6 -45 -7 -46 -242 -239 -291 -239 -281 -231
-246 -179 15 23 100 106 188 183 89 78 170 150 181 162 l20 20 -20 -16 c-385
-304 -490 -380 -665 -480 -357 -204 -801 -416 -1133 -542 -124 -47 -239 -92
-254 -101 l-28 -15 40 6 c37 7 39 6 26 -10 -38 -45 -305 -147 -604 -231 -309
-86 -533 -132 -917 -190 -129 -19 -329 -53 -445 -75 -115 -21 -277 -51 -360
-65 -82 -14 -202 -37 -265 -51 -234 -51 -1155 -90 -1860 -79 -554 8 -832 20
-1233 51 -355 27 -420 39 -356 62 12 5 -118 19 -313 35 -576 47 -782 76 -1176
162 -250 56 -307 65 -391 65 -96 0 -106 2 -372 86 -151 48 -282 89 -292 91
-16 5 -16 6 0 18 14 11 -25 26 -263 104 -153 50 -324 112 -379 137 -153 70
-238 99 -376 128 -137 28 -166 37 -314 90 -144 52 -312 138 -535 271 -107 65
-240 139 -296 165 l-101 47 -6 63 c-12 112 -8 361 7 440 8 41 20 130 26 197
17 189 41 262 121 368 20 27 78 128 128 223 49 95 107 193 128 217 33 38 232
221 450 412 133 118 331 258 619 438 422 264 653 373 1159 550 105 36 226 84
270 106 66 32 91 39 140 39 83 0 154 21 270 79 64 32 153 64 248 91 82 23 193
57 247 76 122 42 150 43 184 7 14 -16 136 -199 272 -408 135 -209 413 -631
617 -938 l370 -558 -39 -31 c-112 -90 -210 -223 -266 -361 -33 -82 -33 -82
-32 -252 0 -156 3 -178 28 -259 35 -117 110 -260 190 -367 86 -114 285 -320
360 -373 73 -52 634 -326 726 -355 225 -70 364 -89 780 -104 559 -20 776 -16
1030 16 219 29 692 101 765 117 56 13 75 12 75 -4 0 -16 -138 -44 -410 -82
-102 -14 -199 -32 -217 -39 -32 -13 -43 -38 -24 -49 8 -5 414 78 430 88 4 3
74 16 156 30 196 35 219 41 258 75 22 20 48 31 82 36 75 10 84 14 99 43 18 34
150 84 453 171 231 67 251 74 510 189 453 202 667 330 858 513 45 43 89 79 97
79 9 0 19 -11 22 -25 4 -14 11 -25 16 -25 18 0 82 96 131 195 84 170 108 325
74 460 -37 143 -144 321 -267 442 -66 65 -176 143 -202 143 -5 0 26 -32 70
-72 123 -112 184 -177 231 -251 46 -70 88 -155 81 -163 -3 -2 -67 69 -142 159
-152 179 -193 214 -406 356 -300 199 -584 331 -919 426 -151 43 -862 174 -911
168 l-35 -5 -29 87 c-65 191 -162 364 -396 705 -81 118 -170 252 -198 297
l-52 82 43 40 c47 45 73 50 109 21 l26 -20 27 40 28 40 27 -44 c15 -23 41 -52
56 -63z m2732 -767 c17 -16 32 -34 32 -39 0 -9 -85 -3 -137 10 -33 8 -28 38 9
61 35 23 37 22 96 -32z m2833 -2356 c87 -118 156 -216 154 -219 -2 -2 -30 -9
-61 -15 l-57 -11 123 -135 c68 -74 169 -182 225 -240 363 -375 487 -682 484
-1205 0 -214 -12 -324 -39 -380 -33 -69 -215 -255 -286 -292 -43 -22 -56 -35
-65 -63 -22 -67 -82 -172 -113 -194 -17 -13 -45 -28 -62 -35 -36 -14 -62 -57
-93 -153 -27 -80 -73 -128 -124 -128 -48 0 -73 -22 -212 -178 l-127 -143 -110
-55 c-151 -76 -174 -92 -245 -176 -50 -61 -71 -78 -119 -97 -100 -40 -256
-126 -447 -244 -238 -149 -322 -196 -447 -251 -56 -25 -132 -64 -168 -88 l-66
-43 34 -3 c129 -13 423 75 767 229 596 268 1033 539 1503 932 135 112 350 329
375 377 9 17 21 30 29 30 18 0 24 -617 21 -2162 l-3 -1246 -27 -50 c-15 -27
-46 -68 -68 -90 -81 -77 -537 -386 -832 -562 -104 -62 -258 -159 -342 -216
-198 -133 -663 -368 -1008 -509 -137 -56 -344 -141 -458 -189 -307 -127 -470
-179 -1175 -375 -229 -64 -332 -89 -353 -84 l-30 6 33 34 c32 33 32 34 8 29
-14 -3 -272 -47 -575 -96 -559 -93 -1393 -200 -1700 -220 -189 -12 -355 -39
-355 -56 0 -18 23 -18 335 7 143 11 299 20 346 20 61 -1 137 9 258 34 202 40
344 61 536 75 209 16 296 27 442 59 126 27 132 28 136 10 4 -14 -1 -20 -16
-24 -191 -42 -1185 -168 -1500 -190 -117 -8 -313 -26 -437 -40 -320 -35 -443
-44 -802 -56 -350 -11 -1010 0 -1543 27 -599 29 -2391 146 -2490 161 -22 3
-67 16 -100 28 -33 12 -98 26 -145 29 -253 21 -531 57 -605 80 -44 14 -118 32
-165 41 -47 9 -116 22 -154 30 -97 21 -171 19 -222 -6 -71 -34 -71 -33 -38
-182 24 -115 28 -150 26 -272 -1 -77 -7 -194 -12 -260 -6 -66 -15 -381 -20
-700 -5 -319 -14 -650 -19 -735 -21 -322 -24 -721 -7 -1035 20 -378 20 -520 0
-748 -21 -229 -14 -888 16 -1602 11 -264 24 -604 29 -756 6 -168 14 -285 20
-298 17 -30 51 -45 185 -80 65 -17 157 -47 205 -67 179 -75 239 -97 359 -130
155 -42 531 -117 949 -188 307 -53 330 -58 460 -110 76 -29 147 -56 158 -59
24 -7 345 -43 859 -97 355 -36 381 -38 420 -24 138 52 179 52 319 -2 73 -29
113 -37 240 -49 197 -20 262 -31 377 -67 52 -16 120 -31 151 -35 83 -8 1292
26 1639 47 373 23 754 66 1261 144 693 107 1005 159 1169 197 162 38 187 41
340 43 117 2 178 7 210 18 97 34 151 59 233 108 75 45 98 53 194 70 149 27
166 33 220 78 91 76 167 103 452 162 l194 41 148 94 c110 70 158 95 182 95 39
0 284 101 416 171 161 85 310 190 418 292 67 64 110 97 125 97 43 1 103 37
154 92 27 30 174 169 325 308 150 140 356 334 456 432 100 98 187 178 194 178
9 0 11 -36 6 -147 -20 -450 -20 -688 -2 -908 18 -218 18 -222 -4 -505 -34
-450 -40 -652 -31 -1054 5 -204 10 -526 12 -716 3 -334 2 -346 -18 -385 -16
-31 -53 -63 -172 -145 -339 -235 -806 -525 -1187 -737 -240 -134 -625 -334
-700 -363 -33 -13 -112 -49 -175 -81 -236 -117 -365 -170 -1185 -491 -1254
-489 -2538 -781 -3945 -897 -480 -40 -645 -46 -1250 -46 -602 0 -747 6 -1240
46 -1190 96 -2383 339 -3495 711 -250 83 -678 242 -790 293 -44 20 -188 82
-320 137 -329 138 -386 164 -740 341 -282 140 -584 309 -1270 710 -132 77
-282 167 -334 199 -104 66 -454 310 -488 341 -28 25 -30 86 -8 262 13 101 15
346 15 1574 l0 1455 -28 -27 c-15 -15 -32 -27 -38 -27 -5 0 -7 34 -2 88 3 48
7 96 8 107 0 12 10 -2 21 -33 48 -124 54 -22 39 665 -11 472 -11 624 0 842 10
220 10 358 -1 801 -16 609 -16 770 -5 2095 8 857 7 999 -9 1325 -15 298 -16
434 -10 745 5 209 10 623 13 920 5 686 4 525 4 1799 -1 605 1 1104 4 1108 15
24 48 0 121 -89 377 -459 902 -839 1613 -1168 207 -96 262 -118 540 -217 764
-270 1287 -406 2195 -573 781 -143 878 -158 1270 -195 116 -11 259 -29 320
-40 60 -11 195 -25 300 -30 104 -6 289 -20 410 -32 182 -17 327 -23 830 -29
1050 -14 1559 -7 1897 26 84 8 272 26 418 40 213 21 978 117 1118 140 19 4 32
12 32 20 0 18 -37 19 -195 5 -178 -15 -426 -29 -1005 -55 -300 -14 -626 -30
-725 -34 -199 -10 -537 -2 -1200 29 -585 27 -935 57 -1014 85 -29 10 -172 23
-444 40 -456 28 -442 27 -597 66 -166 43 -388 79 -484 79 -104 0 -495 36 -550
51 -22 6 -81 28 -131 49 -130 55 -201 74 -472 129 -133 27 -312 70 -398 97
-150 46 -157 47 -205 35 -50 -13 -51 -13 -85 18 -40 35 -48 37 -170 50 -119
12 -346 94 -414 149 -25 21 -53 43 -61 49 -8 6 -69 21 -135 33 -76 13 -151 34
-204 56 -70 30 -88 34 -108 25 -54 -25 -88 -13 -171 58 l-54 46 44 5 43 5 -48
29 c-77 46 -124 58 -252 66 -142 10 -177 20 -242 71 -26 21 -78 60 -116 85
-37 26 -66 49 -64 51 2 2 61 -17 131 -43 70 -26 130 -44 133 -40 4 3 4 7 2 9
-18 14 -271 155 -387 214 -79 41 -164 87 -189 103 -29 19 -60 30 -82 30 -52 0
-127 53 -153 108 -16 32 -39 57 -86 91 -36 25 -127 93 -201 151 -75 57 -188
143 -251 190 -93 71 -130 106 -196 191 -193 247 -279 420 -306 614 -6 44 -17
92 -24 106 -10 20 -11 47 -4 115 5 49 16 184 25 299 22 305 50 452 116 605 76
179 167 289 442 534 131 118 307 334 426 524 49 78 162 298 191 370 7 17 16
32 20 32 4 0 35 -39 68 -88 119 -174 208 -280 371 -442 238 -237 396 -357 855
-652 359 -231 571 -342 978 -513 301 -126 391 -159 690 -251 189 -58 439 -130
555 -160 185 -47 1180 -251 1528 -313 66 -12 167 -33 225 -46 70 -17 162 -28
275 -35 94 -6 305 -22 470 -35 775 -64 1327 -84 1770 -67 745 29 871 36 883
45 6 5 12 18 12 28 0 18 10 19 143 19 247 0 575 19 787 46 304 37 819 126
1035 178 105 25 280 64 390 86 716 146 1331 357 1965 674 753 378 1273 768
1624 1220 98 126 230 323 271 405 l37 74 76 -139 c48 -89 132 -216 233 -354z
m874 -6602 c12 -67 9 -5377 -3 -5684 -9 -238 -13 -276 -30 -310 -22 -43 -264
-308 -389 -424 -174 -163 -805 -568 -1143 -733 -89 -43 -141 -76 -182 -114
-57 -54 -92 -73 -131 -73 -11 0 -35 -13 -52 -29 -30 -30 -174 -96 -565 -258
-347 -144 -413 -163 -885 -253 -148 -28 -524 -105 -835 -170 -641 -135 -909
-185 -1260 -235 -798 -113 -1675 -175 -2485 -175 -258 0 -380 13 -495 50 -54
18 -104 23 -286 31 -343 13 -2277 165 -2549 199 -132 17 -256 35 -275 40 -19
5 -107 21 -195 35 -88 13 -251 47 -362 75 -159 39 -209 47 -229 40 -41 -16
-92 -12 -136 11 -69 35 -142 89 -156 115 -8 16 -19 149 -33 402 -18 329 -21
533 -24 1597 -2 671 -9 1519 -16 1885 -7 397 -9 882 -5 1202 7 517 6 540 -12
580 -23 51 -78 128 -91 128 -6 0 -21 4 -36 10 -27 10 -26 19 7 63 12 16 43 14
583 -53 467 -58 631 -74 910 -90 529 -30 726 -48 1055 -97 l305 -45 425 -8
c234 -5 578 -16 765 -25 425 -21 1360 -16 1710 9 455 33 754 58 1233 101 270
25 511 45 535 45 23 0 53 -7 66 -16 29 -21 60 -88 61 -130 0 -18 9 -51 20 -75
23 -53 25 -117 5 -166 -8 -20 -70 -92 -138 -162 -143 -147 -162 -171 -178
-235 -14 -56 4 -163 53 -310 l29 -91 -17 -108 c-17 -102 -17 -111 -1 -190 15
-67 19 -173 28 -587 5 -278 12 -524 15 -547 10 -85 28 -46 62 135 19 97 40
200 47 227 29 104 157 854 162 946 5 81 2 109 -16 167 -11 39 -21 83 -21 100
0 42 42 97 145 194 113 105 165 141 236 161 110 32 139 79 116 190 -19 88 -4
539 19 574 25 40 56 51 219 83 769 150 1587 400 2246 686 136 59 360 173 707
361 656 356 655 355 695 348 31 -6 35 -3 82 67 69 100 188 216 334 323 68 50
171 127 230 172 58 44 109 82 113 82 3 1 9 -18 13 -41z m-17385 -8323 c0 -114
-4 -175 -10 -175 -16 0 -18 14 -25 188 -6 159 -6 162 14 162 20 0 21 -4 21
-175z m-155 -1195 c9 -14 56 -498 53 -538 l-3 -32 -35 18 c-50 27 -70 72 -70
162 0 78 18 339 26 378 5 23 18 29 29 12z"/>
<path d="M14880 25153 c-251 -29 -546 -141 -774 -293 -160 -108 -254 -214
-335 -376 -73 -148 -101 -264 -101 -423 0 -133 23 -231 85 -356 84 -172 203
-297 350 -369 301 -147 687 -79 1403 250 132 61 191 93 187 102 -2 7 -1 11 4
7 5 -3 20 7 33 22 13 16 36 35 52 43 56 29 125 100 155 162 29 56 31 69 30
157 -2 108 11 150 60 202 41 43 46 68 33 157 -18 115 -97 275 -197 403 -48 60
-149 145 -225 187 -80 45 -275 111 -361 122 -71 9 -327 11 -399 3z m396 -307
c190 -42 261 -73 329 -141 59 -59 100 -144 137 -283 50 -194 30 -301 -88 -449
-59 -74 -79 -85 -129 -72 -37 10 -37 10 -111 -62 -73 -70 -75 -71 -116 -66
-33 4 -71 -4 -170 -35 -109 -36 -129 -45 -137 -67 -22 -56 -33 -62 -242 -112
-221 -54 -298 -60 -390 -33 -84 25 -124 50 -201 122 -167 157 -185 186 -198
314 -4 46 -13 96 -19 111 -13 34 -14 117 -2 170 6 23 35 69 74 118 113 138
280 319 315 341 58 36 390 118 577 143 220 30 241 30 371 1z"/>
<path d="M15872 23315 c-387 -70 -676 -323 -788 -691 -26 -82 -28 -103 -28
-259 -1 -149 2 -180 22 -250 66 -227 230 -471 398 -591 143 -102 285 -146 479
-147 150 0 256 17 412 69 252 82 586 291 694 434 100 132 134 257 125 455 -7
154 -22 206 -101 360 -188 364 -436 559 -789 620 -107 18 -322 18 -424 0z
m483 -281 c22 -12 82 -43 133 -69 144 -73 215 -149 324 -350 66 -121 94 -192
103 -266 14 -110 -32 -249 -108 -327 -80 -82 -499 -337 -607 -369 -83 -25
-222 -20 -345 11 -336 86 -498 278 -546 646 l-11 85 79 192 c92 222 119 265
186 302 26 14 78 49 115 77 130 100 113 96 392 92 227 -3 248 -5 285 -24z"/>
<path d="M16675 11700 c4 -6 93 -10 235 -10 142 0 231 4 235 10 4 7 -77 10
-235 10 -158 0 -239 -3 -235 -10z"/>
<path d="M23925 12764 c-27 -19 -56 -39 -64 -43 -14 -9 -1 -32 87 -154 l34
-48 44 97 c49 109 50 110 30 117 -10 4 -26 -11 -46 -44 -18 -27 -33 -49 -34
-49 -2 0 -1 36 2 80 2 44 3 80 1 79 -2 0 -26 -16 -54 -35z"/>
<path d="M23367 12719 c-47 -91 -47 -118 0 -169 41 -46 53 -41 53 22 0 27 8
46 30 70 17 18 30 43 30 55 0 21 -54 93 -69 93 -5 0 -24 -32 -44 -71z"/>
<path d="M23280 12256 c-51 -20 -397 -184 -527 -249 -138 -70 -327 -146 -718
-289 -165 -60 -356 -132 -425 -160 -76 -30 -188 -64 -290 -88 -198 -46 -285
-76 -407 -142 -50 -27 -129 -62 -175 -79 -112 -41 -159 -70 -229 -142 -82 -84
-132 -186 -137 -280 -4 -68 -4 -70 18 -64 20 5 21 3 17 -21 -3 -15 5 -139 19
-277 27 -280 32 -633 13 -900 -16 -228 -14 -543 6 -815 14 -191 16 -302 11
-503 -7 -285 1 -389 40 -527 73 -254 279 -542 449 -626 74 -36 181 -64 252
-64 51 0 173 23 232 44 59 22 78 6 36 -28 -108 -87 -386 -77 -577 20 -27 14
-48 20 -48 14 0 -36 112 -131 178 -149 48 -14 515 59 572 89 10 5 28 23 40 40
l21 30 -39 0 c-27 0 -42 5 -46 15 -7 18 0 21 144 61 60 16 127 42 155 60 66
41 173 79 282 100 48 9 101 23 116 31 15 8 78 31 140 52 138 47 650 269 721
312 64 40 112 81 152 130 17 21 34 36 38 32 3 -3 6 -26 6 -50 0 -23 4 -43 8
-43 9 0 132 208 176 296 71 144 141 349 151 443 3 25 7 62 10 81 2 19 7 55 10
80 3 25 7 61 10 80 16 126 23 440 11 495 -2 11 -5 38 -5 59 -2 66 -15 30 -28
-72 -10 -85 -11 -61 -7 198 2 162 6 394 9 515 3 121 7 360 10 530 6 363 10
459 32 695 29 328 21 437 -53 748 -39 164 -52 197 -98 246 -68 71 -195 105
-276 72z m240 -2005 c0 -128 -30 -1075 -40 -1256 -14 -273 -50 -429 -138 -599
-135 -264 -258 -348 -749 -510 -127 -42 -184 -67 -219 -93 -56 -43 -119 -67
-555 -211 -390 -129 -528 -161 -627 -144 -170 28 -318 166 -389 360 -66 179
-66 183 -70 811 -3 421 -1 581 7 602 15 34 31 40 220 74 209 37 272 53 692
176 365 106 379 109 408 94 16 -8 34 -24 40 -34 7 -14 7 -116 -1 -328 -16
-431 -14 -456 43 -569 63 -123 122 -167 177 -132 19 12 19 13 -5 35 -14 13
-23 27 -20 32 3 5 36 12 73 15 38 4 151 26 253 48 183 40 186 41 245 88 94 76
140 128 195 223 73 128 112 225 131 328 5 30 13 233 19 451 5 249 13 405 20
417 11 22 256 190 278 190 8 1 12 -19 12 -68z"/>
<path d="M24186 11687 c-23 -17 -27 -115 -5 -130 12 -8 24 -5 48 12 39 28 39
54 2 96 -24 28 -32 32 -45 22z"/>
<path d="M15795 10879 c-93 -4 -667 -10 -1275 -14 -1211 -7 -1201 -6 -1328
-66 -67 -32 -175 -126 -206 -180 l-19 -32 40 29 c22 16 71 55 109 87 66 56
113 78 164 76 18 0 11 -5 -22 -15 -54 -16 -125 -78 -213 -183 -51 -61 -63 -85
-93 -178 -32 -98 -35 -121 -39 -253 -5 -163 8 -400 32 -565 19 -131 20 -210 6
-325 -6 -46 -11 -112 -11 -147 0 -58 3 -65 40 -108 22 -25 42 -56 44 -68 3
-12 7 -391 10 -842 3 -489 10 -854 16 -905 22 -178 73 -307 171 -436 100 -132
110 -168 64 -222 -14 -17 -25 -33 -25 -36 0 -12 77 -76 122 -101 l47 -26 6 46
c7 41 3 80 -12 143 -5 23 -3 22 48 -12 110 -73 280 -118 449 -119 99 -1 204
15 215 33 3 5 -29 14 -70 21 -51 8 -75 16 -75 25 0 8 8 14 18 14 47 1 1760
-62 1777 -65 16 -4 26 -26 53 -127 18 -68 33 -127 32 -131 0 -5 -14 -22 -32
-39 -26 -24 -32 -39 -36 -82 -5 -61 12 -86 59 -86 46 0 272 50 297 66 49 32
13 94 -55 94 -18 0 -58 9 -88 21 l-57 21 29 30 c15 17 51 45 80 63 72 47 106
107 101 180 l-3 56 40 10 c22 6 83 22 135 36 112 30 150 24 199 -32 41 -47 41
-97 1 -205 -39 -105 -39 -112 0 -99 19 7 48 36 80 80 57 78 83 91 138 65 41
-20 40 -20 78 63 35 75 47 144 33 193 -11 41 -82 128 -104 128 -9 0 -15 -27
-19 -87 -9 -126 -16 -163 -29 -163 -7 0 -36 43 -65 96 -53 95 -53 95 -36 122
51 79 190 255 248 314 77 79 93 107 101 179 9 75 23 109 47 109 33 0 56 18 68
54 18 57 -5 89 -98 132 -74 34 -78 46 -63 211 13 149 36 1016 34 1278 -1 88
-1 262 -2 387 -1 246 -17 426 -72 775 -31 202 -52 277 -96 352 -77 132 -223
226 -412 266 -50 10 -335 53 -371 55 -3 1 9 12 25 25 l30 25 -45 -2 c-25 -1
-121 -5 -215 -9z m-2301 -1897 c40 -23 66 -75 66 -132 0 -32 13 -73 49 -150
27 -58 52 -121 56 -140 l7 -35 -31 30 c-27 25 -33 27 -41 15 -5 -8 -10 -18
-10 -22 0 -3 35 -38 77 -78 103 -96 159 -127 242 -135 36 -3 78 -8 94 -10 43
-7 31 12 -20 31 -53 19 -70 30 -60 40 7 7 307 27 562 38 l150 7 45 -35 44 -34
81 41 c150 78 225 190 216 322 -1 11 -27 -30 -60 -94 -33 -62 -67 -122 -77
-132 -25 -24 -99 -55 -88 -37 4 7 39 63 78 123 71 112 71 112 100 278 l7 37
292 0 c161 0 388 5 504 10 272 13 292 7 309 -98 l6 -40 49 22 c49 21 49 22 43
56 -16 82 -41 73 263 95 l271 20 8 -100 c11 -132 6 -939 -6 -970 -16 -43 -41
-48 -174 -36 -250 24 -437 31 -986 41 -311 6 -848 17 -1195 25 -346 8 -727 15
-846 15 l-216 0 -7 238 c-4 130 -11 355 -17 499 -13 331 -14 328 110 319 44
-4 87 -13 105 -24z"/>
<path d="M16985 7037 c-2 -7 -19 -65 -39 -130 l-34 -118 25 -12 c24 -11 29 -8
70 38 95 106 118 160 83 193 -27 25 -100 45 -105 29z"/>
<path d="M17282 6932 l-22 -17 33 -142 c18 -78 35 -145 39 -148 7 -7 101 48
137 79 13 12 27 31 32 44 13 34 -16 96 -59 125 -31 20 -132 78 -136 77 0 0
-11 -8 -24 -18z"/>
<path d="M17824 6865 c-48 -103 -42 -187 15 -239 l21 -19 0 156 c0 87 -2 157
-6 157 -3 0 -16 -25 -30 -55z"/>
<path d="M17604 6485 c-35 -38 -43 -55 -49 -98 -3 -29 -11 -67 -17 -85 l-10
-34 -44 43 c-24 24 -44 38 -44 32 0 -6 46 -145 101 -308 l102 -296 26 6 c35 9
68 31 81 54 8 16 2 36 -34 103 -49 94 -81 187 -91 268 -6 55 -6 55 35 95 56
54 70 84 70 150 0 51 -3 60 -31 86 -17 16 -36 29 -42 29 -6 0 -30 -20 -53 -45z"/>
<path d="M16279 6488 c-15 -36 -17 -97 -5 -143 l7 -29 34 39 c35 41 44 86 29
143 -10 35 -49 29 -65 -10z"/>
<path d="M16912 6456 c-18 -28 -32 -55 -32 -61 0 -6 13 -23 28 -38 l29 -27 27
25 c29 27 29 34 -3 110 l-18 40 -31 -49z"/>
</g>
</svg>
