<svg width="30" height="30" viewBox="0 0 30 30" fill="none" xmlns="http://www.w3.org/2000/svg">
  <g clip-path="url(#clip0_1915_19317)">
    <path d="M14.8247 30C23.04 30 29.6493 23.3125 29.6493 15C29.6493 6.68745 23.04 0 14.8247 0C6.60928 0 0 6.68745 0 15C0 23.3125 6.60928 30 14.8247 30Z" fill="#2775CA" />
    <path d="M18.9016 17.375C18.9016 15.1875 17.6044 14.4375 15.0101 14.1251C13.157 13.875 12.7864 13.3751 12.7864 12.5C12.7864 11.6249 13.4041 11.0626 14.6395 11.0626C15.7513 11.0626 16.3691 11.4376 16.6779 12.3751C16.7397 12.5626 16.925 12.6875 17.1103 12.6875H18.0985C18.3456 12.6875 18.531 12.5 18.531 12.2501V12.1876C18.2838 10.8125 17.172 9.75005 15.7513 9.6251V8.1251C15.7513 7.87505 15.566 7.68755 15.2572 7.625H14.3307C14.0836 7.625 13.8982 7.8125 13.8364 8.1251V9.56255C11.9833 9.8126 10.8098 11.0625 10.8098 12.6251C10.8098 14.6876 12.0452 15.5 14.6395 15.8126C16.3691 16.1251 16.925 16.5001 16.925 17.5001C16.925 18.5002 16.0601 19.1876 14.8866 19.1876C13.2805 19.1876 12.7246 18.5 12.5393 17.5625C12.4776 17.3126 12.2923 17.1875 12.107 17.1875H11.0568C10.8098 17.1875 10.6245 17.375 10.6245 17.6251V17.6876C10.8715 19.25 11.8599 20.375 13.8982 20.6876V22.1876C13.8982 22.4375 14.0836 22.625 14.3923 22.6876H15.3189C15.566 22.6876 15.7513 22.5001 15.8131 22.1876V20.6876C17.6662 20.375 18.9016 19.0625 18.9016 17.375Z" fill="white" />
    <path d="M11.6744 23.9374C6.85643 22.1875 4.3856 16.75 6.17701 11.9374C7.10355 9.3124 9.14194 7.31245 11.6744 6.37495C11.9216 6.25 12.0451 6.0625 12.0451 5.7499V4.87495C12.0451 4.6249 11.9216 4.4374 11.6744 4.375C11.6126 4.375 11.4891 4.375 11.4273 4.4374C5.55927 6.3124 2.34721 12.625 4.20029 18.5625C5.31214 22.0624 7.96828 24.75 11.4273 25.875C11.6744 25.9999 11.9216 25.875 11.9832 25.6249C12.0451 25.5625 12.0451 25.5 12.0451 25.375V24.4999C12.0451 24.3124 11.8597 24.0625 11.6744 23.9374ZM18.2221 4.4374C17.9749 4.31245 17.7278 4.4374 17.6661 4.68745C17.6043 4.75 17.6043 4.8124 17.6043 4.9375V5.81245C17.6043 6.0625 17.7896 6.3124 17.9749 6.4375C22.7929 8.1874 25.2638 13.6249 23.4724 18.4375C22.5458 21.0625 20.5074 23.0625 17.9749 24C17.7278 24.1249 17.6043 24.3124 17.6043 24.625V25.5C17.6043 25.75 17.7278 25.9375 17.9749 25.9999C18.0367 25.9999 18.1602 25.9999 18.2221 25.9375C24.0901 24.0625 27.3022 17.7499 25.4491 11.8125C24.3372 8.24995 21.6193 5.5624 18.2221 4.4374Z" fill="white" />
  </g>
  <defs>
    <clipPath id="clip0_1915_19317">
      <rect width="29.6493" height="30" fill="white" />
    </clipPath>
  </defs>
</svg>
  