<svg width="30" height="30" viewBox="0 0 30 30" fill="none" xmlns="http://www.w3.org/2000/svg">
  <g clip-path="url(#clip0_1915_2229)">
    <path d="M0.0277195 6.35889L4.9633 3.47656L19.7508 12.1136L19.7511 12.13C19.3644 12.3308 18.9962 12.5672 18.6169 12.7817L14.8277 14.9942C14.795 14.9828 14.7626 14.9704 14.7307 14.957L0.649781 6.73209C0.441187 6.61647 0.241046 6.48477 0.0263672 6.38044L0.0277195 6.35889ZM19.7542 6.35615L24.687 3.47656L29.6182 6.35649L29.6226 6.37531L24.685 9.24737L20.881 7.02833C20.5081 6.79948 20.1176 6.60005 19.7542 6.35615Z" fill="#2B6DEF" />
    <path d="M19.7508 12.1134L19.7541 6.35596C20.1176 6.59986 20.5081 6.79929 20.881 7.02813L24.685 9.24718L24.6877 25.5183C24.6833 25.8536 24.6975 26.1895 24.6769 26.524L19.7535 23.6506L19.7518 17.8928L19.7511 12.1298L19.7508 12.1134ZM0.0263486 6.38024C0.241027 6.48458 0.441169 6.61628 0.649762 6.7319L14.7307 14.9568C14.7626 14.9702 14.795 14.9826 14.8277 14.994C14.806 15.1606 14.8175 15.3289 14.8155 15.4965L14.8148 20.7683L9.89853 17.8904C9.64835 17.719 9.3762 17.5829 9.11825 17.4238L5.14923 15.1056C5.09108 15.0707 5.03056 15.0409 4.96835 15.0146C4.96265 15.0609 4.95847 15.1075 4.95585 15.1541L4.95754 25.0733C4.96328 25.5566 4.94097 26.0417 4.97275 26.524L4.96633 26.5449H4.9528C4.95145 26.5394 4.94841 26.5288 4.94706 26.5233L0.0246582 23.6468L0.0263486 6.38024Z" fill="#2891F9" />
    <path d="M24.6851 9.24755L29.6227 6.37549L29.6247 23.6472L24.7023 26.5234L24.6969 26.5453H24.6837L24.677 26.5244C24.6976 26.1899 24.6834 25.8539 24.6878 25.5187L24.6851 9.24755ZM18.617 12.7819C18.9963 12.5674 19.3644 12.331 19.7512 12.1302L19.7519 17.8932L16.0388 20.0616L14.8149 20.7686L14.8156 15.4969C14.8176 15.3293 14.8062 15.161 14.8278 14.9944L18.617 12.7819ZM4.96846 15.0149C5.03066 15.0413 5.09118 15.071 5.14933 15.1059L9.11835 17.4242C9.3763 17.5832 9.64845 17.7194 9.89863 17.8908L9.89559 23.6517L4.97285 26.5244C4.94107 26.0421 4.96339 25.557 4.95764 25.0737L4.95595 15.1545C4.95858 15.1079 4.96275 15.0613 4.96846 15.0149Z" fill="#2BBDF7" />
  </g>
  <defs>
    <clipPath id="clip0_1915_2229">
      <rect width="29.6493" height="30" fill="white" />
    </clipPath>
  </defs>
</svg>
  