<?xml version="1.0" standalone="no"?>
<!DOCTYPE svg PUBLIC "-//W3C//DTD SVG 20010904//EN"
 "http://www.w3.org/TR/2001/REC-SVG-20010904/DTD/svg10.dtd">
<svg version="1.0" xmlns="http://www.w3.org/2000/svg"
 width="999.000000pt" height="999.000000pt" viewBox="0 0 999.000000 999.000000"
 preserveAspectRatio="xMidYMid meet">

<g transform="translate(0.000000,999.000000) scale(0.100000,-0.100000)"
fill="#000000" stroke="none">
<path d="M4770 9979 c-85 -4 -177 -10 -205 -14 -27 -3 -68 -8 -90 -10 -22 -3
-58 -7 -80 -9 -22 -3 -60 -8 -85 -10 -267 -32 -635 -117 -920 -214 -700 -239
-1337 -628 -1854 -1132 -396 -386 -674 -750 -931 -1218 -479 -876 -685 -1932
-569 -2927 61 -529 187 -999 387 -1450 70 -156 119 -260 127 -265 3 -3 20 -35
37 -71 17 -37 47 -92 67 -123 20 -31 36 -61 36 -66 0 -6 5 -10 10 -10 6 0 10
-7 10 -15 0 -8 5 -15 10 -15 6 0 9 -3 8 -7 -3 -11 21 -53 44 -77 10 -11 26
-37 35 -58 9 -21 20 -38 25 -38 4 0 8 -6 8 -14 0 -7 9 -16 21 -19 12 -3 18
-10 15 -15 -3 -5 1 -15 9 -22 8 -7 13 -15 10 -19 -2 -4 12 -20 31 -36 19 -16
34 -34 34 -41 0 -7 6 -15 12 -17 10 -4 10 -6 0 -6 -7 -1 4 -17 25 -37 21 -20
38 -40 38 -45 0 -5 3 -9 8 -9 4 0 14 0 23 0 8 0 12 5 9 10 -4 6 -10 8 -13 6
-4 -2 -12 6 -19 19 -10 22 -7 21 28 -8 21 -18 37 -38 34 -45 -3 -8 0 -10 6 -6
6 3 9 17 6 30 -2 13 -1 21 3 19 13 -8 19 22 8 33 -6 6 -7 16 -2 23 5 9 10 6
15 -9 9 -23 29 -30 29 -11 0 5 -4 7 -10 4 -5 -3 -10 -2 -10 3 0 6 7 13 16 16
9 4 14 9 11 13 -4 3 0 14 7 25 20 28 9 60 -18 53 -19 -5 -19 -5 -3 5 20 13 52
-4 41 -21 -3 -5 0 -9 6 -9 7 0 9 12 6 35 -5 28 -3 33 9 29 9 -4 15 0 15 10 0
9 5 16 10 16 6 0 10 11 10 24 0 17 7 26 25 30 14 4 24 10 21 14 -2 4 2 22 11
40 14 29 14 34 0 45 -10 8 -12 18 -7 32 7 16 9 17 9 3 1 -9 6 -20 13 -24 7 -5
8 -3 3 6 -5 9 -2 10 14 5 12 -4 21 -2 21 4 0 6 -6 11 -12 12 -7 0 -4 4 7 9 19
8 19 9 -2 9 -13 1 -23 6 -23 12 0 5 4 8 9 5 10 -7 61 42 61 58 0 6 -4 5 -9 -2
-6 -10 -10 -9 -14 7 -6 24 -6 24 28 11 14 -5 24 -6 21 -1 -4 5 0 12 6 15 7 3
3 3 -9 1 -28 -7 -35 5 -16 30 13 16 15 17 10 2 -7 -19 0 -21 21 -8 17 10 17
21 2 31 -7 4 -9 13 -5 20 6 9 10 9 17 -1 5 -9 6 -4 2 14 -4 17 -2 27 5 27 6 0
11 -4 11 -10 0 -5 4 -10 8 -10 5 0 7 13 4 29 -3 23 -9 29 -23 26 -12 -2 -19 2
-19 11 0 17 20 19 20 2 1 -7 10 -2 20 11 14 17 27 22 45 19 29 -6 31 -2 11 17
-7 8 -17 11 -21 7 -4 -4 -6 -2 -5 3 5 22 -1 36 -12 33 -17 -6 -38 16 -37 39 0
17 1 16 8 -1 5 -13 10 -16 15 -8 9 15 38 3 32 -14 -3 -8 0 -14 6 -14 6 0 9 -3
5 -6 -3 -4 0 -13 8 -20 17 -18 22 -18 22 1 0 8 -4 12 -9 9 -4 -3 -8 -2 -9 3 0
4 -3 20 -5 34 -3 19 1 29 18 37 13 6 17 11 10 11 -7 1 -10 6 -7 12 5 6 13 3
22 -10 8 -12 20 -21 26 -21 8 0 7 3 -2 9 -11 7 -9 14 13 34 28 26 12 33 -18 8
-9 -7 -16 -10 -17 -5 0 5 -2 29 -5 54 -5 43 -4 44 11 25 11 -13 18 -16 21 -8
3 7 12 9 20 6 7 -3 11 -10 7 -17 -4 -7 -3 -8 5 -1 20 20 51 84 42 90 -5 3 -7
18 -6 33 5 38 5 39 15 23 14 -21 29 -5 25 27 -2 16 3 38 11 48 13 17 14 18 15
2 0 -10 -4 -18 -9 -18 -6 0 -9 -9 -8 -20 1 -11 5 -20 10 -20 5 0 7 6 4 14 -6
16 16 40 26 29 4 -3 7 8 7 25 0 18 5 32 11 32 5 0 7 5 4 10 -3 6 -1 10 6 10 7
0 10 3 7 6 -10 9 -48 -15 -44 -29 1 -6 1 -9 -1 -4 -3 4 -10 4 -16 0 -7 -4 -8
0 -4 11 5 13 3 17 -6 13 -8 -3 -14 3 -15 16 -1 17 1 19 8 7 7 -12 12 -12 21
-3 9 9 9 16 -1 28 -7 9 -8 15 -2 15 6 0 13 -6 15 -12 4 -10 6 -10 6 0 1 6 6
12 13 12 9 0 9 -3 0 -12 -19 -19 -14 -28 18 -28 17 0 30 5 30 11 0 6 -7 9 -15
5 -9 -3 -15 0 -15 9 0 8 6 15 13 15 8 0 7 4 -3 11 -13 9 -13 10 0 8 32 -3 42
1 36 16 -5 13 10 20 37 16 4 0 7 3 7 9 0 5 -16 9 -35 8 -20 -1 -41 4 -48 11
-9 10 -6 10 15 2 19 -7 29 -7 34 0 3 6 12 8 19 5 9 -3 20 11 31 40 10 27 20
40 24 33 6 -8 9 -8 14 0 4 6 2 12 -3 12 -6 1 -15 2 -21 3 -5 0 -10 5 -9 10 0
5 -5 13 -13 17 -10 7 -9 9 4 9 9 0 24 3 34 7 13 5 15 3 10 -8 -4 -8 0 -5 8 6
9 11 14 25 12 32 -3 7 1 13 9 13 14 0 17 7 19 57 1 12 7 28 14 35 11 11 12 10
6 -6 -5 -13 -4 -17 4 -12 7 4 12 16 12 27 0 12 4 17 11 14 6 -4 9 0 7 11 -2
11 2 18 10 17 6 -2 12 4 12 12 0 9 -10 15 -26 15 -15 0 -23 4 -18 11 3 6 16 8
27 5 14 -3 28 3 43 19 12 13 24 22 26 20 2 -2 5 12 6 31 2 25 -1 34 -9 28 -8
-4 -9 -3 -5 5 4 6 11 9 15 6 5 -2 9 7 9 22 l0 27 -19 -23 c-15 -18 -19 -19
-19 -7 0 9 5 16 12 16 9 0 9 3 0 12 -18 18 -14 31 8 25 11 -3 18 -1 14 4 -3 5
-1 9 5 9 6 0 10 -88 11 -242 0 -133 3 -244 5 -247 3 -2 5 127 5 288 0 224 3
293 13 296 6 2 57 9 112 14 76 7 84 9 33 8 -70 -2 -91 10 -57 31 16 10 18 16
8 34 -10 18 -9 20 5 15 9 -4 15 -2 13 5 -1 5 6 12 16 13 25 4 28 8 29 36 1 13
6 30 11 37 6 8 6 12 -1 12 -6 0 -13 -6 -16 -12 -2 -7 -4 1 -3 19 0 17 5 29 9
27 5 -3 6 -10 3 -15 -4 -5 1 -9 9 -9 10 0 13 6 10 15 -4 8 -1 15 5 15 6 0 11
-8 12 -17 0 -12 2 -13 6 -5 3 7 -2 21 -12 32 -11 13 -13 20 -5 25 6 4 9 14 5
22 -4 13 -3 14 10 3 22 -18 41 -6 48 30 5 20 11 29 18 24 8 -5 9 -3 5 5 -5 7
-15 10 -23 7 -13 -5 -14 0 -9 28 4 20 2 37 -4 41 -16 10 -12 45 4 39 8 -3 12
-13 9 -25 -3 -11 0 -19 7 -19 7 0 10 -8 7 -20 -3 -10 1 -24 7 -30 17 -13 29 0
15 16 -8 10 -6 20 10 40 27 34 27 48 -2 41 -12 -4 -27 -3 -32 1 -13 9 -16 42
-4 42 5 0 9 -9 9 -19 0 -17 4 -18 29 -11 19 5 33 4 41 -3 10 -9 12 -8 7 6 -4
9 -2 18 3 18 6 1 14 2 19 3 5 0 13 5 18 10 4 5 3 6 -3 3 -14 -8 -27 20 -14 28
4 3 10 -1 13 -7 3 -7 5 2 4 20 0 17 -4 32 -9 32 -5 0 -6 5 -3 10 4 6 10 8 15
5 5 -3 17 8 26 24 10 17 21 28 26 25 4 -3 8 -1 8 5 0 5 -9 9 -19 8 -11 0 -18
-4 -17 -7 2 -3 -4 -13 -14 -23 -15 -15 -18 -16 -23 -3 -3 8 1 17 9 20 9 3 13
10 9 16 -3 6 34 11 97 13 57 2 -3 1 -132 -2 -129 -3 -264 -6 -300 -6 l-65 0
-3 928 -2 927 22 0 c13 0 82 -12 153 -26 289 -56 833 -134 1040 -149 56 -4 55
-3 -13 7 -103 14 -83 21 28 9 58 -6 100 -7 116 -1 33 13 36 13 29 -2 -4 -7 1
-4 9 6 20 25 20 36 0 36 -8 0 -12 5 -8 11 3 6 1 15 -6 19 -9 6 -7 11 9 19 12
7 19 16 16 22 -4 5 -1 9 4 9 6 0 11 -6 11 -13 0 -8 7 -14 15 -14 17 0 19 15 5
51 -8 23 -7 26 14 26 29 0 39 10 25 27 -9 10 -8 13 5 14 9 1 21 3 26 4 6 1 14
3 19 4 5 0 8 19 7 41 -2 27 0 37 8 33 6 -4 5 1 -3 10 -8 10 -16 15 -18 13 -3
-3 -11 0 -17 6 -14 13 -9 68 7 68 6 0 7 -3 4 -6 -3 -4 -2 -15 3 -25 7 -12 6
-19 -3 -23 -6 -3 -1 -4 13 -3 14 1 25 -3 25 -10 0 -6 4 -15 8 -20 5 -4 7 -3 6
2 -2 6 2 19 8 31 12 21 1 55 -11 35 -4 -6 -2 -11 4 -11 6 0 9 -4 5 -10 -3 -5
-12 -7 -20 -4 -8 4 -13 10 -10 14 3 5 2 10 -2 13 -5 2 -3 2 4 1 7 -2 15 1 18
6 3 5 13 6 22 3 11 -4 14 -2 9 8 -3 8 -9 22 -12 33 -6 16 -9 15 -20 -10 -9
-20 -13 -24 -13 -11 -1 10 -5 16 -9 13 -5 -3 -9 1 -9 9 0 8 3 14 6 13 24 -2
32 4 26 21 -7 22 15 34 36 20 12 -7 12 -9 0 -9 -11 0 -11 -3 0 -17 11 -13 11
-17 2 -20 -7 -3 -13 -9 -13 -14 0 -6 4 -8 9 -5 5 4 11 0 14 -6 2 -7 4 3 4 22
-1 19 3 48 7 63 4 19 3 27 -4 22 -6 -4 -9 -1 -8 6 2 7 -10 16 -27 21 -19 5 -9
6 29 2 163 -13 209 -13 96 1 -649 78 -1078 154 -1542 270 l-148 37 0 295 0
294 23 -7 c12 -3 58 -19 102 -35 270 -98 710 -213 1104 -289 190 -36 545 -88
646 -95 69 -4 69 -4 -13 7 -46 5 -81 12 -79 14 6 6 79 6 105 0 12 -3 22 -1 22
5 0 5 -5 9 -12 9 -6 0 -8 3 -5 7 4 3 15 -1 26 -11 16 -15 19 -15 31 -1 11 13
10 14 -6 8 -17 -6 -17 -5 -5 10 7 9 17 15 21 12 5 -3 11 -1 15 5 3 5 2 10 -3
10 -21 0 -5 36 23 52 21 12 25 17 13 18 -10 0 -18 5 -18 11 0 5 5 7 12 3 7 -4
8 -3 4 4 -10 17 -39 15 -33 -2 3 -8 0 -19 -6 -24 -9 -8 -12 -4 -12 14 0 13 4
24 8 24 5 0 5 5 2 11 -5 7 3 9 24 6 20 -3 31 -1 31 6 0 7 5 6 10 -3 9 -13 10
-13 11 0 1 8 1 21 0 28 -1 6 3 12 9 12 6 0 8 5 5 10 -4 6 -11 7 -17 4 -6 -4
-8 -2 -4 4 3 6 -2 15 -11 21 -10 5 -15 13 -11 17 4 4 13 2 20 -4 9 -7 17 -6
25 3 10 11 10 15 0 18 -7 3 -1 6 12 6 20 1 22 -1 10 -15 -15 -18 -22 -47 -9
-39 12 7 40 65 40 82 0 12 -5 14 -27 12 -5 0 -7 -8 -5 -17 2 -14 1 -14 -7 -3
-6 10 -5 21 5 36 8 12 13 23 12 26 -2 2 -1 3 2 1 3 -2 5 -8 5 -13 0 -5 4 -9 9
-8 5 0 13 -5 17 -13 7 -10 9 -9 9 4 0 9 10 24 23 34 14 10 16 14 5 11 -12 -4
-15 -2 -11 8 3 8 10 12 17 8 6 -4 4 2 -4 12 -14 17 -13 18 7 13 13 -4 26 -2
29 3 3 5 0 9 -7 9 -8 0 -6 6 4 18 10 10 14 22 10 25 -3 4 1 7 10 7 10 0 17 5
17 10 0 15 -26 12 -40 -5 -6 -8 -9 -19 -5 -25 4 -6 -4 -11 -19 -11 -14 -1 -33
-2 -43 -3 -11 -1 -17 8 -17 27 -2 38 12 45 24 13 5 -14 14 -26 19 -26 16 0 33
38 21 45 -5 3 -10 11 -10 18 0 6 6 2 14 -8 12 -17 15 -17 28 -4 13 12 13 17 1
27 -7 7 -11 17 -8 23 8 13 35 11 35 -2 0 -6 -7 -8 -17 -4 -15 5 -16 4 -5 -7
11 -11 16 -10 26 4 7 10 15 15 18 13 3 -3 11 2 18 10 11 13 10 18 -2 28 -27
22 -28 43 -1 45 14 1 21 -2 18 -8 -3 -6 1 -10 9 -10 20 0 20 11 1 36 -8 11
-15 14 -15 7 0 -18 -20 -16 -20 1 0 9 7 13 20 11 11 -2 20 0 20 6 0 9 -14 13
-37 10 -7 -1 -13 3 -13 9 0 7 14 10 33 8 27 -3 31 0 29 16 -3 17 -2 18 12 7
15 -12 15 -15 -1 -27 -10 -8 -13 -14 -6 -14 18 0 52 40 46 56 -3 7 4 25 16 40
11 14 18 31 14 38 -4 6 1 5 10 -3 15 -12 17 -12 11 3 -4 12 -15 15 -40 12 -19
-3 -34 0 -34 5 0 6 9 8 19 4 20 -6 23 8 7 34 -6 10 -5 12 3 7 7 -5 21 0 33 11
12 10 19 13 15 8 -3 -6 -2 -17 3 -25 7 -10 9 -3 7 23 -4 42 -1 45 20 20 8 -10
11 -12 7 -4 -5 10 -3 13 9 8 11 -4 14 -2 10 8 -3 8 -8 13 -12 10 -4 -2 -8 2
-8 9 0 8 6 12 13 9 6 -2 12 2 11 9 0 7 1 22 1 32 2 20 2 20 18 0 8 -10 13 -13
9 -6 -3 6 -1 12 6 12 7 0 4 7 -7 16 -15 12 -15 15 -2 10 9 -2 19 1 21 8 3 8 0
13 -6 12 -7 0 -12 4 -12 9 0 6 3 9 7 8 13 -5 9 7 -7 23 -13 14 -15 13 -15 -3
0 -15 -2 -16 -10 -3 -14 21 -12 26 8 27 10 1 25 -9 33 -23 14 -23 16 -23 38
-7 l24 16 -29 25 c-20 16 -22 20 -7 13 27 -14 43 -14 43 0 0 5 -4 7 -10 4 -23
-14 -8 26 15 41 29 19 53 56 34 52 -6 -2 -14 3 -16 10 -3 6 3 12 14 13 14 0
15 2 3 6 -22 9 -29 24 -21 47 9 22 4 49 -7 42 -4 -2 -7 6 -7 19 0 13 3 21 8
18 4 -2 7 -11 7 -19 0 -8 4 -14 9 -14 5 0 7 -13 6 -29 -1 -16 1 -35 6 -43 7
-11 9 -11 9 1 0 11 3 11 18 0 14 -11 15 -11 5 1 -19 21 -16 41 5 33 14 -5 15
-4 6 8 -6 8 -10 22 -8 32 3 22 14 36 14 19 0 -14 19 -15 40 -2 13 8 12 11 -5
25 -11 9 -15 14 -8 11 6 -4 14 -2 17 3 3 5 -1 11 -9 15 -8 3 -15 11 -15 17 0
8 4 8 13 1 8 -7 16 -5 27 6 13 14 12 15 -3 9 -16 -6 -16 -5 -1 18 9 13 23 22
33 20 10 -2 18 2 19 8 0 7 3 23 6 37 5 23 5 23 -6 -2 -7 -16 -16 -28 -21 -28
-4 0 -5 5 -2 10 3 6 1 10 -5 10 -6 0 -8 5 -5 10 4 6 11 8 16 5 5 -4 9 -1 9 4
0 6 -5 11 -11 11 -5 0 -7 5 -4 10 4 6 11 8 16 5 12 -8 12 -5 -6 44 -14 41 -14
42 9 51 13 5 27 14 32 21 5 9 2 10 -10 6 -11 -5 -15 -3 -10 5 5 8 2 9 -9 5
-24 -9 -21 1 6 24 27 22 38 24 31 4 -4 -8 -10 -12 -15 -9 -5 3 -9 1 -9 -4 0
-6 7 -12 15 -16 11 -4 12 -11 6 -28 -5 -13 -14 -22 -19 -21 -5 1 -12 -7 -15
-18 -5 -19 -4 -20 12 -5 20 18 36 21 26 6 -9 -15 8 -12 31 5 13 10 15 14 5 15
-16 0 -5 15 11 15 6 0 13 6 16 14 3 9 0 11 -9 5 -12 -7 -12 -5 -1 9 8 9 11 22
7 29 -4 7 0 5 8 -5 13 -16 15 -16 21 -1 8 22 8 26 -4 19 -5 -3 -10 -1 -10 5 0
6 -5 8 -12 4 -7 -4 -8 -3 -4 4 4 7 3 12 -3 12 -5 0 -11 -7 -13 -16 -3 -13 -5
-13 -23 1 -11 9 -15 14 -9 11 7 -3 17 1 24 9 10 12 16 13 27 3 12 -10 18 -7
34 12 12 16 17 18 13 7 -5 -13 -2 -16 9 -11 9 3 13 12 10 20 -3 9 1 14 11 14
14 0 15 4 6 20 -8 16 -6 24 12 42 13 13 28 22 33 20 6 -1 3 3 -5 10 -16 14
-15 48 1 48 5 0 7 11 3 25 -5 20 -3 24 9 19 9 -3 14 -14 12 -26 -4 -20 -4 -20
14 -2 10 10 14 21 9 22 -4 2 -6 8 -2 13 3 5 -2 9 -11 9 -9 0 -13 5 -10 11 4 6
9 8 12 5 3 -3 11 1 18 7 10 9 10 15 1 26 -8 12 -8 13 2 7 8 -4 11 -3 10 5 -2
6 3 14 11 17 8 3 11 0 7 -7 -4 -6 -2 -11 3 -11 6 0 11 6 11 14 0 8 6 17 13 19
7 3 5 6 -5 6 -10 1 -18 5 -18 10 0 4 12 6 26 3 19 -3 25 -1 20 7 -4 6 -11 9
-16 6 -5 -3 -11 -1 -15 5 -3 5 -1 10 5 10 7 0 9 7 6 16 -4 10 -2 13 6 8 7 -5
9 -2 6 8 -4 10 0 14 16 14 15 -1 20 4 18 17 -2 9 4 20 13 23 13 5 13 9 3 22
-11 13 -10 14 8 8 15 -5 24 -2 28 10 4 11 0 18 -14 21 -36 9 -22 29 18 24 7
-1 10 7 8 21 -3 13 -5 27 -5 31 -1 5 -5 5 -11 2 -5 -3 -10 1 -10 9 0 9 3 15 8
14 4 -1 18 4 31 11 14 8 21 9 17 2 -4 -6 -3 -11 2 -11 5 0 9 14 9 30 0 36 -7
38 -26 8 -14 -22 -14 -22 -21 -3 -5 14 -2 22 9 27 10 4 5 7 -16 7 -20 1 -36
-5 -43 -16 -10 -16 -11 -15 -7 4 3 12 2 22 -2 21 -3 0 -8 1 -11 2 -3 1 -23 3
-45 5 -22 2 -89 8 -150 14 -118 12 -130 12 -365 0z m600 -100 c0 -13 -48 -11
-56 2 -4 8 1 9 16 4 19 -6 22 -4 16 10 -5 15 -4 16 9 5 8 -7 15 -16 15 -21z
m-43 -52 c0 -7 -11 -13 -23 -13 -12 0 -20 4 -18 8 3 5 9 6 14 3 5 -3 11 -1 15
5 8 13 12 13 12 -3z m39 2 c4 -7 -1 -16 -10 -21 -9 -5 -13 -14 -10 -20 5 -7 2
-8 -5 -4 -9 6 -8 12 4 26 13 14 13 19 3 23 -9 4 -9 6 -1 6 6 1 15 -4 19 -10z
m-46 -64 c8 0 16 -10 18 -22 4 -25 -5 -29 -28 -12 -12 9 -12 10 3 5 12 -4 17
-2 15 6 -3 7 -10 14 -16 14 -7 1 -17 2 -23 3 -5 0 -7 6 -3 12 3 6 9 7 13 3 3
-5 13 -9 21 -9z m-65 -39 c0 -30 -15 -47 -15 -18 0 12 -6 22 -12 23 -7 0 -4 4
7 9 11 5 20 9 20 9 1 1 1 -10 0 -23z m27 2 c-7 -7 -12 -8 -12 -2 0 14 12 26
19 19 2 -3 -1 -11 -7 -17z m28 -33 c0 -2 -7 -5 -15 -9 -9 -3 -15 0 -15 9 0 9
6 12 15 9 8 -4 15 -7 15 -9z m-110 -105 c0 -16 -38 -32 -46 -18 -4 7 -3 8 5 4
6 -4 14 0 17 8 7 17 24 22 24 6z m50 1 c0 -3 -5 -13 -10 -21 -9 -13 -11 -13
-19 0 -5 8 -8 17 -6 20 5 8 35 9 35 1z m-63 -65 c-1 -22 -6 -31 -11 -25 -6 5
-14 9 -18 9 -11 0 -6 -23 7 -33 6 -5 4 -7 -5 -4 -8 2 -14 10 -12 16 1 6 -2 11
-8 11 -5 0 -7 7 -3 16 3 8 12 13 20 10 9 -4 17 1 20 14 8 30 12 24 10 -14z
m29 8 c1 -9 0 -13 -4 -10 -3 4 -7 14 -8 22 -1 9 0 13 4 10 3 -4 7 -14 8 -22z
m-90 -13 c-3 -4 -1 -22 3 -39 7 -22 6 -34 -4 -42 -10 -8 -15 -8 -21 1 -4 7 -3
9 4 5 6 -3 13 -2 17 4 3 5 -1 10 -9 10 -9 0 -16 7 -16 16 0 8 5 12 10 9 6 -3
10 -2 10 4 0 5 -5 13 -11 17 -8 4 -7 9 2 15 18 11 22 11 15 0z m27 -109 c-5
-11 -7 -11 -14 -1 -5 9 -11 6 -20 -13 -9 -21 -14 -24 -24 -15 -10 10 -8 15 11
28 30 20 54 20 47 1z m-1 -40 c-7 -2 -10 -7 -7 -12 3 -4 -2 -10 -10 -14 -8 -3
-14 0 -12 6 4 20 21 36 32 30 5 -3 4 -7 -3 -10z m-58 -7 c4 -10 -1 -15 -16
-15 -17 0 -18 2 -8 15 7 8 14 15 15 15 2 0 5 -7 9 -15z m-44 -57 c0 -5 -7 -3
-15 6 -8 8 -15 18 -15 22 0 3 7 1 15 -6 8 -7 15 -17 15 -22z m67 -2 c-6 -16
-37 -12 -37 5 0 4 7 6 15 3 11 -5 14 -2 9 12 -6 15 -4 17 6 7 7 -6 10 -19 7
-27z m-87 -42 c0 -8 -19 -13 -24 -6 -3 5 1 9 9 9 8 0 15 -2 15 -3z m-40 -11
c0 -3 -6 -11 -14 -19 -13 -12 -15 -12 -13 4 1 15 27 29 27 15z m-59 -56 c-10
-9 -11 -8 -5 6 3 10 9 15 12 12 3 -3 0 -11 -7 -18z m-3 -131 c1 -17 -1 -18 -8
-6 -7 10 -10 11 -10 3 0 -7 -5 -13 -11 -13 -8 0 -9 4 0 13 6 8 9 16 6 19 -3 2
1 5 8 5 7 0 14 -10 15 -21z m-14 -46 c-6 -6 -15 -5 -24 1 -13 9 -12 10 3 5 9
-3 17 0 17 6 0 6 3 8 7 5 4 -4 2 -12 -3 -17z m-34 -62 c0 -16 -3 -19 -11 -11
-6 6 -8 16 -5 22 11 17 16 13 16 -11z m-50 -32 c0 -3 -4 -8 -10 -11 -5 -3 -10
-1 -10 4 0 6 5 11 10 11 6 0 10 -2 10 -4z m-10 -55 c-5 -10 -6 -22 -2 -26 4
-5 2 -5 -4 -2 -6 4 -9 18 -7 32 3 13 9 22 14 19 5 -3 5 -13 -1 -23z m-70 -57
c0 -8 -4 -14 -9 -14 -6 0 -9 9 -8 19 1 22 17 18 17 -5z m-64 -121 c-10 -10
-19 5 -10 18 6 11 8 11 12 0 2 -7 1 -15 -2 -18z m84 -4 c0 -5 4 -7 10 -4 5 3
7 0 5 -7 -3 -7 -15 -19 -26 -26 -19 -12 -19 -11 -9 8 9 16 8 20 -5 20 -9 0
-13 -4 -10 -10 3 -5 2 -10 -4 -10 -5 0 -9 8 -8 18 1 19 47 30 47 11z m-91 -55
c4 3 8 -1 8 -8 0 -8 -7 -12 -15 -8 -11 4 -13 1 -7 -8 5 -9 4 -11 -3 -6 -7 4
-12 2 -12 -3 0 -6 -5 -11 -12 -11 -6 0 -4 7 5 18 10 10 17 25 18 33 0 10 2 11
6 1 2 -6 8 -10 12 -8z m56 -64 c3 -5 -1 -10 -9 -10 -9 0 -16 5 -16 10 0 6 4
10 9 10 6 0 13 -4 16 -10z m-125 -24 c0 -3 -4 -8 -10 -11 -5 -3 -10 -1 -10 4
0 6 5 11 10 11 6 0 10 -2 10 -4z m13 -91 c-7 -21 -13 -19 -13 6 0 11 4 18 10
14 5 -3 7 -12 3 -20z m-56 0 c0 -8 -4 -15 -9 -15 -10 0 -11 14 -1 23 9 10 10
9 10 -8z m31 -18 c8 -10 6 -13 -7 -13 -11 0 -17 6 -14 13 3 7 6 13 8 13 1 0 7
-6 13 -13z m-25 -42 c-3 -9 -8 -14 -10 -11 -3 3 -2 9 2 15 9 16 15 13 8 -4z
m-55 -7 c-2 -6 -10 -14 -16 -16 -7 -2 -10 2 -6 12 7 18 28 22 22 4z m35 -11
c3 -8 0 -14 -7 -14 -7 0 -13 6 -13 14 0 7 4 13 8 13 4 0 9 -6 12 -13z m-83
-57 c0 -5 8 -11 18 -11 16 -1 16 -2 0 -6 -10 -2 -25 3 -34 11 -14 15 -14 16 0
16 9 0 16 -4 16 -10z m16 -43 c13 17 14 17 8 -2 -11 -32 -35 -55 -58 -54 -18
0 -16 2 6 11 23 8 26 13 18 27 -5 10 -6 22 -2 26 4 4 9 -1 10 -10 3 -15 5 -15
18 2z m55 -11 c5 3 9 1 9 -4 0 -11 -36 -23 -44 -14 -3 3 0 12 6 20 8 9 14 10
16 3 2 -6 8 -9 13 -5z m-27 -51 c-4 -8 -1 -15 6 -15 6 0 8 -5 5 -11 -5 -7 -14
-4 -27 7 -20 19 -18 21 19 33 1 1 0 -6 -3 -14z m-90 -36 c-21 -24 -29 -18 -14
10 6 12 16 19 21 15 6 -4 4 -13 -7 -25z m-24 -59 c0 -5 -5 -10 -11 -10 -5 0
-7 5 -4 10 3 6 8 10 11 10 2 0 4 -4 4 -10z m-30 -24 c0 -2 -9 -6 -20 -9 -11
-3 -18 -1 -14 4 5 9 34 13 34 5z m-15 -36 c3 -5 2 -10 -4 -10 -5 0 -13 5 -16
10 -3 6 -2 10 4 10 5 0 13 -4 16 -10z m15 -24 c0 -2 -7 -9 -15 -16 -13 -11
-14 -10 -9 4 5 14 24 23 24 12z m65 -6 c-3 -5 -12 -7 -20 -3 -21 7 -19 13 6
13 11 0 18 -4 14 -10z m-107 -34 c-1 -2 -14 -9 -28 -16 -23 -12 -24 -12 -12 3
8 9 11 21 7 28 -5 8 -1 8 15 -1 12 -6 20 -13 18 -14z m-91 -108 c-3 -8 -6 -5
-6 6 -1 11 2 17 5 13 3 -3 4 -12 1 -19z m-16 -41 c-6 -8 -7 -18 -3 -22 4 -5 1
-5 -6 -1 -10 6 -10 11 -1 22 6 8 14 14 16 14 3 0 0 -6 -6 -13z m20 -20 c-10
-9 -11 -8 -5 6 3 10 9 15 12 12 3 -3 0 -11 -7 -18z m44 13 c-3 -5 -1 -10 6
-10 7 0 10 -2 7 -5 -3 -3 -13 -2 -22 1 -14 5 -15 9 -4 15 17 11 20 11 13 -1z
m-85 -54 c0 -3 -4 -8 -10 -11 -5 -3 -10 -1 -10 4 0 6 5 11 10 11 6 0 10 -2 10
-4z m-25 -36 c3 -5 1 -10 -4 -10 -6 0 -11 5 -11 10 0 6 2 10 4 10 3 0 8 -4 11
-10z m32 -5 c0 -8 -6 -16 -13 -19 -7 -3 -10 2 -7 15 6 22 20 26 20 4z m-46
-30 c5 4 9 2 9 -3 0 -12 -48 -13 -56 -1 -3 5 2 6 11 3 9 -4 15 -3 14 2 -3 19
4 28 8 11 2 -9 9 -15 14 -12z m-15 -60 c0 -14 -4 -25 -8 -25 -10 0 -10 13 -2
34 9 23 12 20 10 -9z m-29 -13 c0 -10 -7 -19 -13 -19 -9 0 -10 5 -3 19 5 10
12 18 14 18 2 0 3 -8 2 -18z m-46 -104 l12 -23 -24 20 c-13 11 -26 21 -28 22
-2 2 3 3 12 3 9 0 22 -10 28 -22z m9 -32 c0 -3 -4 -8 -10 -11 -5 -3 -10 -1
-10 4 0 6 5 11 10 11 6 0 10 -2 10 -4z m34 -18 c-3 -4 -9 -8 -15 -8 -5 0 -9 4
-9 8 0 5 7 9 15 9 8 0 12 -4 9 -9z m-104 -12 c0 -3 -4 -8 -10 -11 -5 -3 -10
-1 -10 4 0 6 5 11 10 11 6 0 10 -2 10 -4z m-87 -33 c-7 -2 -21 -2 -30 0 -10 3
-4 5 12 5 17 0 24 -2 18 -5z m-386 -469 c-3 -3 -12 -4 -19 -1 -8 3 -5 6 6 6
11 1 17 -2 13 -5z m162 -20 c11 -10 -10 -9 -74 2 l-70 12 70 -5 c39 -3 72 -7
74 -9z m-79 -224 c12 -8 11 -10 -7 -10 -13 0 -23 5 -23 10 0 13 11 13 30 0z
m-5 -30 c-27 -12 -43 -12 -25 0 8 5 22 9 30 9 10 0 8 -3 -5 -9z m64 -34 c-2
-2 -22 -7 -44 -10 l-40 -5 35 18 c19 10 39 14 44 9 5 -4 8 -10 5 -12z m-79 4
c-8 -5 -22 -9 -30 -9 -10 0 -8 3 5 9 27 12 43 12 25 0z m80 -24 c0 -11 -19
-15 -25 -6 -3 5 1 10 9 10 9 0 16 -2 16 -4z m-34 -19 c3 -3 -6 -4 -20 -3 -15
2 -29 6 -32 9 -4 3 6 5 20 3 14 -1 29 -5 32 -9z m-51 -25 c3 -8 3 -17 0 -20
-3 -3 -5 0 -5 6 0 7 -4 12 -10 12 -5 0 -10 -10 -10 -22 0 -12 -3 -18 -7 -14
-8 8 -13 37 -8 46 8 12 34 7 40 -8z m-50 -33 c-5 -25 -15 -38 -15 -20 0 7 -4
10 -9 6 -5 -3 -13 0 -17 6 -4 7 -3 9 3 6 6 -4 16 0 23 8 17 20 20 19 15 -6z
m-28 -36 c-4 -3 -2 -12 4 -20 6 -7 9 -13 5 -13 -3 0 -9 -1 -13 -2 -3 -2 -8 7
-9 20 -2 12 1 22 8 22 6 0 8 -3 5 -7z m-37 -23 c0 -5 -5 -10 -11 -10 -5 0 -7
5 -4 10 3 6 8 10 11 10 2 0 4 -4 4 -10z m0 -26 c0 -8 -19 -13 -24 -6 -3 5 1 9
9 9 8 0 15 -2 15 -3z m0 -74 c0 -5 -7 -7 -15 -4 -8 4 -12 10 -9 15 6 11 24 2
24 -11z m-944 -1720 c-15 -3 -56 -3 -90 0 l-61 5 80 5 c82 5 123 0 71 -10z
m-16 -25 c-7 -8 -17 -15 -23 -15 -6 0 -2 7 9 15 25 19 30 19 14 0z m-29 -29
c5 3 9 0 9 -6 0 -15 -23 -7 -26 8 -1 7 0 8 3 2 2 -5 9 -8 14 -4z m26 -20 c-15
-23 -15 -24 3 -19 11 3 20 0 20 -6 0 -6 -5 -11 -11 -11 -6 0 -8 -8 -4 -19 5
-18 3 -19 -25 -11 -26 7 -30 7 -21 -4 9 -10 8 -15 -3 -19 -23 -9 -27 5 -10 31
15 23 15 26 0 37 -9 7 -16 16 -16 20 0 5 8 1 18 -8 17 -15 19 -15 36 8 24 32
33 32 13 1z m-74 -41 c-3 -9 -8 -14 -10 -11 -3 3 -2 9 2 15 9 16 15 13 8 -4z
m27 -105 c0 -5 -5 -10 -11 -10 -5 0 -7 5 -4 10 3 6 8 10 11 10 2 0 4 -4 4 -10z
m-74 -22 c4 -7 4 -10 -1 -6 -4 4 -14 0 -22 -10 -13 -15 -13 -15 -3 6 12 25 16
27 26 10z m-19 -68 c1 -11 -3 -22 -8 -26 -5 -3 -8 -1 -7 4 2 6 -1 9 -7 9 -5
-1 -9 -7 -7 -13 1 -7 -1 -15 -6 -18 -14 -9 -11 32 4 44 7 7 11 16 8 21 -3 5 1
6 8 4 8 -3 14 -14 15 -25z m-47 10 c0 -5 -5 -10 -11 -10 -5 0 -7 5 -4 10 3 6
8 10 11 10 2 0 4 -4 4 -10z m67 -22 c-3 -8 -6 -5 -6 6 -1 11 2 17 5 13 3 -3 4
-12 1 -19z m-82 -9 c11 -17 -1 -21 -15 -4 -8 9 -8 15 -2 15 6 0 14 -5 17 -11z
m88 -30 c-8 -8 -13 -7 -18 2 -5 8 -4 10 3 5 7 -4 12 -2 12 5 0 7 3 9 7 6 4 -4
2 -12 -4 -18z m-76 -43 c0 -8 -6 -12 -15 -9 -11 5 -11 7 0 14 7 5 13 9 14 9 0
0 1 -6 1 -14z m-69 -52 c12 -8 22 -21 22 -27 0 -7 -5 -4 -11 6 -6 9 -14 15
-20 12 -5 -4 -9 -1 -9 5 0 7 -7 9 -16 6 -8 -3 -12 -2 -9 4 8 14 17 13 43 -6z
m52 -9 c0 -14 -4 -25 -9 -25 -4 0 -6 11 -3 25 2 14 6 25 8 25 2 0 4 -11 4 -25z
m-46 -31 c5 -14 4 -15 -9 -4 -17 14 -19 20 -6 20 5 0 12 -7 15 -16z m-29 -4
c3 -5 2 -10 -4 -10 -5 0 -13 5 -16 10 -3 6 -2 10 4 10 5 0 13 -4 16 -10z m48
-38 c-5 -22 -23 -31 -23 -12 0 10 -21 10 -30 -1 -3 -3 -14 2 -25 13 -19 19
-19 19 21 12 28 -4 44 -2 49 6 10 17 15 7 8 -18z m-61 -36 c6 4 5 -2 -1 -15
-12 -21 -41 -29 -41 -11 0 6 6 10 14 10 8 0 13 8 11 18 -1 9 0 11 2 4 3 -7 9
-9 15 -6z m-43 -58 c1 -5 -3 -8 -9 -8 -5 0 -10 12 -9 28 0 24 1 25 9 7 5 -11
9 -23 9 -27z m83 20 c-6 -6 -16 -7 -22 -3 -9 6 -9 9 1 16 17 10 34 0 21 -13z
m-119 -35 c-14 -5 -19 -25 -5 -20 9 3 12 -6 12 -40 0 -14 -3 -23 -7 -20 -3 4
-12 2 -20 -4 -8 -7 -13 -8 -13 -1 0 5 7 12 15 16 8 3 15 13 15 21 0 9 -4 14
-8 11 -4 -2 -9 5 -9 17 -2 21 16 41 27 30 3 -3 -1 -8 -7 -10z m97 -4 c0 -5
-17 -9 -37 -9 -21 0 -33 4 -26 8 17 10 63 11 63 1z m-94 -101 c4 -7 4 -10 -1
-6 -4 4 -17 3 -29 -3 -20 -10 -20 -10 -2 5 24 19 23 19 32 4z m-63 -25 c-7 -2
-10 -10 -7 -16 2 -7 -4 -13 -16 -14 -11 -1 -20 3 -20 9 0 6 3 8 7 5 3 -4 13 2
21 14 8 11 17 17 21 13 3 -4 1 -9 -6 -11z m-4 -86 c-5 -17 -9 -32 -9 -32 0 -1
-9 -1 -20 -2 -11 -1 -20 2 -20 8 0 5 3 8 8 8 19 -3 23 2 12 16 -7 8 -16 12
-21 9 -5 -3 -9 0 -9 5 0 16 11 13 33 -6 19 -17 20 -17 14 0 -4 9 -2 17 4 17 6
0 7 5 3 12 -4 6 -3 8 4 4 7 -4 8 -17 1 -39z m41 -32 c0 -3 -10 -16 -21 -28
-12 -12 -19 -16 -15 -10 5 9 2 11 -8 7 -9 -3 -16 -1 -16 5 0 6 9 11 20 11 11
0 20 5 20 10 0 6 5 10 10 10 6 0 10 -2 10 -5z m-86 -19 c6 2 16 -4 22 -14 11
-16 8 -18 -20 -18 -17 0 -42 -3 -56 -7 l-25 -8 23 14 c12 7 19 17 15 22 -5 4
-2 5 6 0 11 -6 13 -4 7 11 -5 15 -4 16 5 7 6 -6 17 -9 23 -7z m-35 -67 c-9
-17 -13 -19 -20 -8 -7 12 3 22 29 28 1 1 -2 -9 -9 -20z m-9 -63 c0 -3 -4 -8
-10 -11 -5 -3 -10 -1 -10 4 0 6 5 11 10 11 6 0 10 -2 10 -4z m-51 -29 c0 -9
-2 -9 -5 -1 -3 7 -15 10 -27 8 -21 -4 -21 -4 -2 5 23 10 35 5 34 -12z m31 -12
c0 -8 -8 -15 -17 -14 -11 0 -13 3 -5 6 6 2 10 9 6 14 -3 5 0 9 5 9 6 0 11 -7
11 -15z m-40 -38 c0 -7 -4 -6 -10 3 -9 13 -14 8 -12 -11 1 -4 -8 -5 -18 -2
-11 3 -20 10 -20 15 0 5 4 7 8 4 4 -2 14 -1 22 4 16 10 30 4 30 -13z m39 -13
c-6 -8 -15 -11 -20 -8 -5 3 -9 1 -9 -5 0 -5 6 -11 13 -14 6 -2 8 -8 4 -13 -4
-5 -12 -2 -16 5 -6 9 -11 10 -15 2 -4 -6 -12 -11 -18 -11 -6 0 1 12 15 26 15
15 25 30 22 34 -3 5 4 6 15 3 16 -4 18 -8 9 -19z m-84 -13 c3 -5 1 -12 -4 -15
-5 -3 -11 1 -15 9 -6 16 9 21 19 6z m-25 -73 c0 -4 -7 -8 -16 -8 -8 0 -13 -3
-10 -8 2 -4 -2 -18 -10 -32 -7 -14 -13 -19 -14 -12 0 7 -5 10 -12 6 -7 -4 -8
-3 -4 5 4 6 12 9 17 6 9 -6 13 7 10 37 -2 11 5 16 18 15 12 -1 21 -5 21 -9z
m21 -21 c-6 -8 -8 -17 -4 -20 3 -4 2 -7 -4 -7 -6 0 -14 7 -17 16 -3 8 -2 12 3
9 5 -3 12 -1 16 5 3 5 9 10 12 10 3 0 0 -6 -6 -13z m-33 -39 c-2 -7 3 -13 10
-14 25 -3 27 -5 13 -13 -17 -11 -46 13 -36 29 8 14 16 13 13 -2z m-48 -18 c0
-5 -5 -10 -11 -10 -5 0 -7 5 -4 10 3 6 8 10 11 10 2 0 4 -4 4 -10z m-16 -52
c-2 -4 0 -9 6 -13 12 -7 4 -25 -11 -25 -6 0 -8 4 -4 9 3 5 0 13 -6 17 -8 4 -7
9 2 15 11 7 10 9 -3 9 -18 0 -23 11 -11 23 7 8 33 -25 27 -35z m-74 -103 c0
-1 -6 -8 -14 -15 -12 -9 -15 -8 -13 8 0 12 6 18 14 15 7 -3 13 -6 13 -8z m-17
-59 c-4 -6 0 -5 9 2 12 9 18 10 23 2 4 -7 -2 -14 -14 -17 -17 -4 -19 -8 -10
-19 10 -12 8 -13 -7 -8 -16 6 -17 5 -6 -7 17 -19 15 -33 -3 -15 -9 8 -12 22
-8 32 4 10 0 22 -11 29 -15 11 -14 13 9 13 15 0 22 -5 18 -12z m-23 -91 c0 -2
-9 -9 -20 -15 -16 -9 -18 -8 -14 5 5 13 34 22 34 10z m-50 -19 c0 -3 -4 -8
-10 -11 -5 -3 -10 -1 -10 4 0 6 5 11 10 11 6 0 10 -2 10 -4z m25 -35 c-3 -5
-1 -12 5 -16 5 -3 10 -1 10 6 0 7 3 9 6 6 4 -4 1 -13 -6 -22 -7 -8 -10 -22 -6
-30 8 -21 -3 -19 -22 5 -15 17 -20 18 -42 7 -14 -7 -25 -19 -25 -26 0 -26 -30
-20 -32 7 -1 18 1 21 8 11 8 -11 14 -9 34 14 27 31 40 34 49 11 3 -8 11 -12
17 -8 8 5 6 10 -5 16 -20 11 -21 28 0 28 8 0 13 -4 9 -9z m-96 -133 c11 -15
10 -17 -7 -15 -13 1 -18 7 -14 19 2 11 5 17 6 16 1 -2 7 -11 15 -20z m-60 -22
c9 -11 9 -16 -1 -22 -7 -4 -10 -4 -6 1 4 4 3 14 -3 22 -6 7 -9 13 -6 13 2 0
10 -6 16 -14z m56 -16 c3 -6 -1 -7 -9 -4 -18 7 -21 14 -7 14 6 0 13 -4 16 -10z
m-96 -131 c-16 -10 -23 -4 -14 10 3 6 11 8 17 5 6 -4 5 -9 -3 -15z m-34 -37
c-3 -3 -11 0 -18 7 -9 10 -8 11 6 5 10 -3 15 -9 12 -12z m25 -24 c0 -4 0 -11
0 -15 0 -5 -5 -8 -10 -8 -6 0 -15 -7 -21 -15 -9 -13 -10 -13 -6 0 2 8 -3 23
-11 33 -15 16 -14 17 16 15 18 -1 32 -6 32 -10z m-82 -22 c-7 -8 -15 -12 -17
-11 -5 6 10 25 20 25 5 0 4 -6 -3 -14z m32 -44 c-6 -2 -10 -10 -10 -18 0 -8
-6 -11 -17 -7 -11 4 -14 3 -9 -5 4 -7 14 -12 22 -12 8 0 14 -7 14 -15 0 -26
-25 -16 -44 16 -11 19 -14 29 -6 24 10 -6 12 -4 6 10 -5 15 -4 16 9 5 14 -11
17 -10 22 9 4 17 8 19 14 9 5 -7 4 -14 -1 -16z m30 -6 c0 -2 -8 -10 -17 -17
-16 -13 -17 -12 -4 4 13 16 21 21 21 13z m-75 -58 c3 -3 -6 -8 -20 -10 -23 -5
-32 2 -19 14 6 7 31 4 39 -4z m12 -54 c0 -7 -6 -10 -14 -7 -7 3 -13 8 -13 12
0 4 6 8 13 8 8 0 14 -6 14 -13z m-27 -15 c11 -8 9 -9 -10 -3 -23 6 -24 6 -10
-11 14 -17 13 -18 -2 -12 -13 4 -18 1 -19 -11 0 -9 -3 -12 -5 -5 -6 13 13 53
24 53 4 0 14 -5 22 -11z m-103 -51 c-3 -8 -6 -5 -6 6 -1 11 2 17 5 13 3 -3 4
-12 1 -19z m60 -23 c0 -14 -10 -19 -29 -16 -4 0 -10 -8 -13 -19 -4 -11 -11
-20 -16 -20 -5 0 -11 0 -14 0 -10 0 -5 15 5 16 6 1 13 2 16 3 4 0 1 8 -6 16
-12 14 -10 15 13 11 16 -3 27 1 31 10 7 18 13 18 13 -1z m-12 -54 c-3 -6 -11
-8 -17 -5 -6 4 -5 9 3 15 16 10 23 4 14 -10z m31 -6 c1 -7 -5 -16 -13 -19 -11
-5 -13 -2 -9 10 3 8 6 21 6 26 0 15 13 1 16 -17z m-81 -24 c-5 -9 27 -33 36
-28 2 1 -2 -3 -10 -10 -7 -7 -11 -19 -8 -27 7 -18 -18 -42 -28 -26 -3 5 2 10
12 10 13 1 11 5 -9 16 -16 8 -28 17 -28 20 0 2 9 0 20 -6 17 -9 20 -8 17 9 -2
11 -6 24 -10 27 -10 11 -8 24 4 24 5 0 8 -4 4 -9z m-66 -128 c-7 -7 -15 -11
-18 -7 -3 4 0 9 7 11 10 4 10 8 0 21 -12 15 -11 16 5 3 13 -11 15 -17 6 -28z
m41 13 c0 -3 -4 -8 -10 -11 -5 -3 -10 -1 -10 4 0 6 5 11 10 11 6 0 10 -2 10
-4z m-68 -101 c3 -13 1 -22 -3 -19 -9 5 -13 44 -5 44 2 0 6 -11 8 -25z m32 10
c-4 -8 -10 -15 -15 -15 -5 0 -9 7 -9 15 0 8 7 15 15 15 9 0 12 -6 9 -15z m-55
-43 c-4 -2 -5 -10 -2 -17 3 -8 -3 -22 -12 -31 -14 -15 -18 -15 -26 -3 -6 10
-3 15 11 17 16 3 19 9 15 29 -5 33 6 54 15 27 4 -10 4 -20 -1 -22z m-29 24 c0
-3 -4 -8 -10 -11 -5 -3 -10 -1 -10 4 0 6 5 11 10 11 6 0 10 -2 10 -4z m0 -30
c0 -2 -7 -7 -16 -10 -8 -3 -12 -2 -9 4 6 10 25 14 25 6z"/>
<path d="M5415 9870 c-3 -5 -1 -10 5 -10 6 0 8 -4 5 -10 -3 -5 1 -10 10 -10
13 0 14 4 5 20 -12 23 -16 24 -25 10z"/>
<path d="M5315 9640 c-3 -6 1 -7 9 -4 18 7 21 14 7 14 -6 0 -13 -4 -16 -10z"/>
<path d="M4970 9090 c-11 -7 -11 -11 -1 -24 8 -9 18 -16 23 -16 6 0 6 6 -1 14
-9 11 -9 15 1 18 7 3 8 7 2 11 -5 3 -16 2 -24 -3z"/>
<path d="M4928 8943 c7 -3 16 -2 19 1 4 3 -2 6 -13 5 -11 0 -14 -3 -6 -6z"/>
<path d="M4560 8320 c0 -5 5 -10 11 -10 5 0 7 5 4 10 -3 6 -8 10 -11 10 -2 0
-4 -4 -4 -10z"/>
<path d="M4475 8120 c3 -5 8 -10 11 -10 2 0 4 5 4 10 0 6 -5 10 -11 10 -5 0
-7 -4 -4 -10z"/>
<path d="M4143 7403 c15 -2 37 -2 50 0 12 2 0 4 -28 4 -27 0 -38 -2 -22 -4z"/>
<path d="M5878 7403 c7 -3 16 -2 19 1 4 3 -2 6 -13 5 -11 0 -14 -3 -6 -6z"/>
<path d="M4243 7393 c15 -2 39 -2 55 0 15 2 2 4 -28 4 -30 0 -43 -2 -27 -4z"/>
<path d="M4408 7383 c17 -2 47 -2 65 0 17 2 3 4 -33 4 -36 0 -50 -2 -32 -4z"/>
<path d="M4583 7373 c20 -2 54 -2 75 0 20 2 3 4 -38 4 -41 0 -58 -2 -37 -4z"/>
<path d="M5393 7373 c15 -2 37 -2 50 0 12 2 0 4 -28 4 -27 0 -38 -2 -22 -4z"/>
<path d="M4898 7363 c61 -2 163 -2 225 0 61 1 11 3 -113 3 -124 0 -174 -2
-112 -3z"/>
<path d="M3789 6913 c-1 -10 -3 -31 -5 -48 -2 -24 -1 -26 7 -13 5 10 8 19 7
21 -2 2 2 10 8 18 9 11 9 17 -2 27 -12 11 -14 10 -15 -5z"/>
<path d="M4017 6923 c18 -2 50 -2 70 0 21 2 7 4 -32 4 -38 0 -55 -2 -38 -4z"/>
<path d="M4188 6913 c17 -2 47 -2 65 0 17 2 3 4 -33 4 -36 0 -50 -2 -32 -4z"/>
<path d="M4358 6903 c17 -2 47 -2 65 0 17 2 3 4 -33 4 -36 0 -50 -2 -32 -4z"/>
<path d="M5598 6903 c6 -2 18 -2 25 0 6 3 1 5 -13 5 -14 0 -19 -2 -12 -5z"/>
<path d="M4563 6893 c26 -2 68 -2 95 0 26 2 4 3 -48 3 -52 0 -74 -1 -47 -3z"/>
<path d="M5367 6893 c18 -2 50 -2 70 0 21 2 7 4 -32 4 -38 0 -55 -2 -38 -4z"/>
<path d="M4998 6883 c12 -2 30 -2 40 0 9 3 -1 5 -23 4 -22 0 -30 -2 -17 -4z"/>
<path d="M3727 6874 c-8 -8 3 -34 15 -34 7 0 6 5 -1 13 -6 8 -8 17 -4 20 3 4
4 7 1 7 -2 0 -7 -3 -11 -6z"/>
<path d="M3601 6548 c-1 -20 24 -24 35 -6 5 7 2 9 -9 5 -9 -3 -18 -1 -21 6 -2
7 -5 4 -5 -5z"/>
<path d="M3560 6465 c7 -8 17 -15 22 -15 5 0 3 7 -6 15 -8 8 -18 15 -22 15 -3
0 -1 -7 6 -15z"/>
<path d="M3490 6370 c30 -5 73 -8 95 -8 35 1 33 2 -15 8 -30 5 -73 8 -95 8
-35 -1 -33 -2 15 -8z"/>
<path d="M3663 6353 c15 -2 39 -2 55 0 15 2 2 4 -28 4 -30 0 -43 -2 -27 -4z"/>
<path d="M3798 6343 c17 -2 47 -2 65 0 17 2 3 4 -33 4 -36 0 -50 -2 -32 -4z"/>
<path d="M3963 6333 c15 -2 39 -2 55 0 15 2 2 4 -28 4 -30 0 -43 -2 -27 -4z"/>
<path d="M4108 6323 c17 -2 47 -2 65 0 17 2 3 4 -33 4 -36 0 -50 -2 -32 -4z"/>
<path d="M4288 6313 c23 -2 59 -2 80 0 20 2 1 4 -43 4 -44 0 -61 -2 -37 -4z"/>
<path d="M4513 6303 c31 -2 83 -2 115 0 31 2 5 3 -58 3 -63 0 -89 -1 -57 -3z"/>
<path d="M5458 6303 c6 -2 18 -2 25 0 6 3 1 5 -13 5 -14 0 -19 -2 -12 -5z"/>
<path d="M2680 5598 l0 -326 153 -7 c83 -4 177 -5 207 -3 30 2 -3 5 -75 6
-127 2 -182 12 -134 25 12 3 30 2 40 -4 19 -10 56 -13 46 -3 -10 10 53 65 66
58 7 -4 9 -4 5 0 -4 5 -2 20 3 34 8 22 8 23 -6 12 -13 -10 -15 -9 -15 6 0 11
-4 15 -8 9 -4 -5 -21 -15 -39 -21 -26 -10 -33 -9 -37 3 -9 22 -9 22 28 16 30
-5 36 -2 49 22 11 23 15 25 20 11 5 -11 3 -15 -5 -10 -7 5 -8 3 -4 -5 5 -7 11
-10 14 -7 3 3 10 2 16 -3 8 -6 15 -1 23 15 9 20 9 23 0 15 -8 -6 -18 -6 -27
-1 -11 7 -12 14 -2 34 6 14 16 26 22 26 6 0 9 4 6 8 -2 4 -1 14 4 22 7 12 11
12 26 -1 16 -13 16 -12 4 11 -12 23 -12 24 3 11 15 -12 17 -11 17 7 0 18 -5
20 -34 17 -31 -4 -33 -3 -28 22 3 18 1 24 -7 19 -6 -4 -11 -2 -11 3 0 6 9 10
20 8 22 -4 40 -17 22 -17 -6 0 -9 -6 -6 -13 3 -8 20 -13 42 -12 34 0 38 3 34
22 -3 15 -9 20 -21 16 -9 -3 -6 2 7 11 12 10 20 21 17 26 -7 11 30 32 39 23 3
-3 6 3 6 15 0 12 5 22 10 22 6 0 10 5 10 11 0 5 -4 7 -10 4 -14 -9 -12 11 3
27 18 19 15 43 -6 42 -9 -1 -17 2 -17 7 0 5 7 9 16 9 14 0 14 3 4 15 -10 12
-10 15 4 15 9 0 16 -7 16 -16 0 -8 5 -12 11 -9 6 4 9 1 7 -6 -3 -14 3 -19 25
-19 8 0 7 4 -3 10 -13 9 -13 10 0 10 8 1 5 5 -8 11 -13 5 -20 14 -17 19 5 8
11 7 21 -1 12 -10 15 -10 12 2 -2 10 13 15 62 20 l65 6 -70 1 c-61 2 -199 12
-527 38 l-88 7 0 -325z m77 306 c-3 -3 -12 -4 -19 -1 -8 3 -5 6 6 6 11 1 17
-2 13 -5z m110 -10 c-3 -3 -12 -4 -19 -1 -8 3 -5 6 6 6 11 1 17 -2 13 -5z
m259 -28 c21 -22 17 -32 -5 -12 -11 10 -24 15 -30 12 -5 -4 -12 -2 -16 4 -10
15 35 12 51 -4z m-6 -36 c0 -5 -7 -7 -15 -4 -8 4 -15 8 -15 10 0 2 7 4 15 4 8
0 15 -4 15 -10z m10 -55 c0 -8 -7 -15 -16 -15 -14 0 -14 3 -4 15 7 8 14 15 16
15 2 0 4 -7 4 -15z m26 -23 c-4 -3 -13 -7 -20 -8 -10 -1 -11 3 -2 21 9 20 12
21 19 9 5 -9 6 -18 3 -22z m-81 -32 c-3 -5 2 -10 11 -10 20 0 11 -13 -11 -16
-15 -2 -21 17 -8 29 10 10 15 8 8 -3z m72 -12 c-3 -8 -6 -5 -6 6 -1 11 2 17 5
13 3 -3 4 -12 1 -19z m-42 -28 c-3 -5 -12 -10 -18 -10 -7 0 -6 4 3 10 19 12
23 12 15 0z m-39 -12 c4 -7 3 -8 -4 -4 -7 4 -12 3 -12 -3 0 -5 5 -13 10 -16 6
-3 10 -14 9 -23 0 -12 -3 -11 -9 6 -9 20 -21 27 -43 23 -5 -1 -6 3 -2 9 3 6
11 8 16 5 5 -4 9 -1 9 4 0 15 17 14 26 -1z m-81 -118 c-3 -5 -14 -10 -23 -9
-14 0 -13 2 3 9 27 11 27 11 20 0z m43 -10 c-15 -23 -28 -26 -28 -6 0 8 8 17
18 19 9 3 18 5 20 6 1 0 -3 -8 -10 -19z m-58 -15 c9 2 16 -5 16 -15 0 -15 -4
-16 -23 -7 -12 5 -25 16 -28 25 -4 11 -2 12 7 5 7 -6 20 -9 28 -8z m-6 -50
c-4 -8 -10 -15 -15 -15 -4 0 -6 7 -3 15 4 8 10 15 15 15 4 0 6 -7 3 -15z m-34
-49 c0 -3 -4 -8 -10 -11 -5 -3 -10 -1 -10 4 0 6 5 11 10 11 6 0 10 -2 10 -4z
m-37 -77 c22 3 27 -1 27 -16 -1 -17 -1 -17 -14 -1 -7 10 -16 15 -20 11 -9 -10
-26 18 -19 31 4 5 9 2 13 -8 3 -10 9 -17 13 -17z m67 12 c0 -3 -4 -12 -9 -19
-7 -11 -10 -10 -15 3 -10 26 -7 35 9 29 8 -4 15 -9 15 -13z m-68 -55 c7 4 8 2
4 -4 -9 -16 -36 -3 -36 17 1 14 2 14 11 -2 6 -9 15 -14 21 -11z m-114 -23
c-16 -2 -40 -2 -55 0 -16 2 -3 4 27 4 30 0 43 -2 28 -4z"/>
<path d="M3423 5863 c20 -2 54 -2 75 0 20 2 3 4 -38 4 -41 0 -58 -2 -37 -4z"/>
<path d="M3608 5853 c23 -2 59 -2 80 0 20 2 1 4 -43 4 -44 0 -61 -2 -37 -4z"/>
<path d="M3818 5843 c23 -2 61 -2 85 0 23 2 4 4 -43 4 -47 0 -66 -2 -42 -4z"/>
<path d="M4048 5833 c28 -2 76 -2 105 0 28 2 5 3 -53 3 -58 0 -81 -1 -52 -3z"/>
<path d="M4398 5823 c39 -2 105 -2 145 0 39 1 7 3 -73 3 -80 0 -112 -2 -72 -3z"/>
<path d="M3116 5642 c-3 -5 1 -9 9 -9 8 0 15 4 15 9 0 4 -4 8 -9 8 -6 0 -12
-4 -15 -8z"/>
<path d="M3043 5502 c1 -14 5 -18 11 -12 7 7 6 14 -1 21 -9 9 -12 7 -10 -9z"/>
<path d="M3070 5499 c0 -5 5 -7 10 -4 6 3 10 8 10 11 0 2 -4 4 -10 4 -5 0 -10
-5 -10 -11z"/>
<path d="M2945 5299 c-11 -17 1 -21 15 -4 8 9 8 15 2 15 -6 0 -14 -5 -17 -11z"/>
<path d="M3203 5253 c42 -2 112 -2 155 0 42 1 7 3 -78 3 -85 0 -120 -2 -77 -3z"/>
<path d="M3603 5243 c43 -2 110 -2 150 0 40 1 5 3 -78 3 -82 0 -115 -2 -72 -3z"/>
<path d="M4183 5233 c42 -2 112 -2 155 0 42 1 7 3 -78 3 -85 0 -120 -2 -77 -3z"/>
<path d="M4073 4753 c26 -2 68 -2 95 0 26 2 4 3 -48 3 -52 0 -74 -1 -47 -3z"/>
<path d="M3542 4743 c37 -2 100 -2 140 0 40 1 10 3 -67 3 -77 0 -110 -1 -73
-3z"/>
<path d="M3183 4733 c32 -2 81 -2 110 0 29 2 3 3 -58 3 -60 0 -84 -1 -52 -3z"/>
<path d="M2868 4723 c34 -2 90 -2 125 0 34 2 6 3 -63 3 -69 0 -97 -1 -62 -3z"/>
<path d="M4083 4153 c15 -2 37 -2 50 0 12 2 0 4 -28 4 -27 0 -38 -2 -22 -4z"/>
<path d="M3848 4143 c18 -2 45 -2 60 0 15 2 0 4 -33 4 -33 0 -45 -2 -27 -4z"/>
<path d="M3643 4133 c15 -2 39 -2 55 0 15 2 2 4 -28 4 -30 0 -43 -2 -27 -4z"/>
<path d="M3473 4123 c15 -2 39 -2 55 0 15 2 2 4 -28 4 -30 0 -43 -2 -27 -4z"/>
<path d="M3333 4113 c9 -2 23 -2 30 0 6 3 -1 5 -18 5 -16 0 -22 -2 -12 -5z"/>
<path d="M3093 4103 c9 -2 23 -2 30 0 6 3 -1 5 -18 5 -16 0 -22 -2 -12 -5z"/>
<path d="M2958 4093 c12 -2 30 -2 40 0 9 3 -1 5 -23 4 -22 0 -30 -2 -17 -4z"/>
<path d="M2838 4083 c12 -2 32 -2 45 0 12 2 2 4 -23 4 -25 0 -35 -2 -22 -4z"/>
<path d="M2723 4073 c15 -2 37 -2 50 0 12 2 0 4 -28 4 -27 0 -38 -2 -22 -4z"/>
<path d="M2618 4063 c12 -2 32 -2 45 0 12 2 2 4 -23 4 -25 0 -35 -2 -22 -4z"/>
<path d="M2518 4053 c12 -2 32 -2 45 0 12 2 2 4 -23 4 -25 0 -35 -2 -22 -4z"/>
<path d="M2418 4043 c12 -2 32 -2 45 0 12 2 2 4 -23 4 -25 0 -35 -2 -22 -4z"/>
<path d="M3558 3623 c6 -2 18 -2 25 0 6 3 1 5 -13 5 -14 0 -19 -2 -12 -5z"/>
<path d="M3463 3613 c9 -2 23 -2 30 0 6 3 -1 5 -18 5 -16 0 -22 -2 -12 -5z"/>
<path d="M3383 3603 c9 -2 23 -2 30 0 6 3 -1 5 -18 5 -16 0 -22 -2 -12 -5z"/>
<path d="M2005 3590 c3 -5 8 -10 11 -10 2 0 4 5 4 10 0 6 -5 10 -11 10 -5 0
-7 -4 -4 -10z"/>
<path d="M3293 3593 c9 -2 23 -2 30 0 6 3 -1 5 -18 5 -16 0 -22 -2 -12 -5z"/>
<path d="M3218 3583 c6 -2 18 -2 25 0 6 3 1 5 -13 5 -14 0 -19 -2 -12 -5z"/>
<path d="M2948 3553 c6 -2 18 -2 25 0 6 3 1 5 -13 5 -14 0 -19 -2 -12 -5z"/>
<path d="M2888 3543 c6 -2 18 -2 25 0 6 3 1 5 -13 5 -14 0 -19 -2 -12 -5z"/>
<path d="M2828 3533 c6 -2 18 -2 25 0 6 3 1 5 -13 5 -14 0 -19 -2 -12 -5z"/>
<path d="M2768 3523 c6 -2 18 -2 25 0 6 3 1 5 -13 5 -14 0 -19 -2 -12 -5z"/>
<path d="M2708 3513 c6 -2 18 -2 25 0 6 3 1 5 -13 5 -14 0 -19 -2 -12 -5z"/>
<path d="M2648 3503 c7 -3 16 -2 19 1 4 3 -2 6 -13 5 -11 0 -14 -3 -6 -6z"/>
<path d="M2508 3483 c7 -3 16 -2 19 1 4 3 -2 6 -13 5 -11 0 -14 -3 -6 -6z"/>
<path d="M2448 3473 c6 -2 18 -2 25 0 6 3 1 5 -13 5 -14 0 -19 -2 -12 -5z"/>
<path d="M2398 3463 c6 -2 18 -2 25 0 6 3 1 5 -13 5 -14 0 -19 -2 -12 -5z"/>
<path d="M2348 3453 c6 -2 18 -2 25 0 6 3 1 5 -13 5 -14 0 -19 -2 -12 -5z"/>
<path d="M2298 3443 c6 -2 18 -2 25 0 6 3 1 5 -13 5 -14 0 -19 -2 -12 -5z"/>
<path d="M2248 3433 c6 -2 18 -2 25 0 6 3 1 5 -13 5 -14 0 -19 -2 -12 -5z"/>
<path d="M2198 3423 c6 -2 18 -2 25 0 6 3 1 5 -13 5 -14 0 -19 -2 -12 -5z"/>
<path d="M1835 3281 c-3 -5 -2 -12 3 -15 5 -3 9 1 9 9 0 17 -3 19 -12 6z"/>
<path d="M3268 2953 c7 -3 16 -2 19 1 4 3 -2 6 -13 5 -11 0 -14 -3 -6 -6z"/>
<path d="M1597 2920 c3 -11 9 -17 15 -14 5 3 4 12 -3 20 -16 19 -18 18 -12 -6z"/>
<path d="M3158 2933 c7 -3 16 -2 19 1 4 3 -2 6 -13 5 -11 0 -14 -3 -6 -6z"/>
<path d="M2868 2883 c7 -3 16 -2 19 1 4 3 -2 6 -13 5 -11 0 -14 -3 -6 -6z"/>
<path d="M2818 2873 c7 -3 16 -2 19 1 4 3 -2 6 -13 5 -11 0 -14 -3 -6 -6z"/>
<path d="M2728 2853 c7 -3 16 -2 19 1 4 3 -2 6 -13 5 -11 0 -14 -3 -6 -6z"/>
<path d="M1567 2829 c-14 -8 -16 -14 -6 -25 17 -21 27 -17 27 11 0 14 -1 25
-2 25 0 0 -9 -5 -19 -11z"/>
<path d="M2568 2823 c7 -3 16 -2 19 1 4 3 -2 6 -13 5 -11 0 -14 -3 -6 -6z"/>
<path d="M2528 2813 c7 -3 16 -2 19 1 4 3 -2 6 -13 5 -11 0 -14 -3 -6 -6z"/>
<path d="M2488 2803 c7 -3 16 -2 19 1 4 3 -2 6 -13 5 -11 0 -14 -3 -6 -6z"/>
<path d="M2448 2793 c7 -3 16 -2 19 1 4 3 -2 6 -13 5 -11 0 -14 -3 -6 -6z"/>
<path d="M1510 2700 c-8 -26 -7 -41 2 -32 6 6 8 16 5 24 -3 7 -6 11 -7 8z"/>
<path d="M2151 2664 c0 -11 3 -14 6 -6 3 7 2 16 -1 19 -3 4 -6 -2 -5 -13z"/>
<path d="M1136 1985 c-9 -26 -7 -32 5 -12 6 10 9 21 6 23 -2 3 -7 -2 -11 -11z"/>
<path d="M1080 1955 c-7 -9 -8 -15 -2 -15 5 0 12 7 16 15 3 8 4 15 2 15 -2 0
-9 -7 -16 -15z"/>
<path d="M1095 1920 c-3 -6 1 -7 9 -4 18 7 21 14 7 14 -6 0 -13 -4 -16 -10z"/>
</g>
</svg>
