<svg width="25" height="25" viewBox="0 0 25 25" fill="none" xmlns="http://www.w3.org/2000/svg">
  <g clip-path="url(#clip0_2538_19905)">
    <path
      d="M24.7334 24.4467H21.8867C21.33 24.4467 20.82 24.13 20.57 23.6334C18.7034 20.5534 16.3234 19.65 14.7934 19.6534V16.5334C16.1267 16.5234 17.2067 17.46 18.1234 18.74L12.5 7.48672L6.86669 18.7567C7.78336 17.47 8.87003 16.5234 10.2067 16.5334V19.6534C8.67336 19.65 6.28336 20.5567 4.41336 23.6634C4.17336 24.1434 3.68336 24.4467 3.14669 24.4467H0.266694C0.196694 24.4467 0.150028 24.37 0.180028 24.3067L10.5434 3.57005L11.8534 0.950049C12.12 0.416715 12.88 0.416715 13.1467 0.950049L14.4567 3.57005L24.82 24.3067C24.8534 24.3734 24.8067 24.4467 24.7334 24.4467ZM13.54 15.66C13.36 15.78 13.1634 15.87 13 16.0067C12.7234 16.2334 12.57 16.5667 12.4967 16.9234C12.35 16.2967 11.8367 15.75 11.68 15.07C11.61 14.7667 11.5834 14.45 11.4467 14.17C11.2667 13.8 10.9134 13.5434 10.56 13.33C10.84 13.7134 10.8367 14.23 10.7734 14.6967C10.7134 15.1667 10.6067 15.6467 10.7234 16.1067C10.8734 16.7034 11.3667 17.14 11.83 17.54C11.8667 17.57 11.9034 17.6 11.94 17.6334V20.54C12.27 20.8267 12.5934 21.1234 12.93 21.4V17.79C13.99 17.0134 14.3167 16.19 14.4234 15.86C14.58 15.3767 14.3767 14.9967 14.76 14.23C14.0934 14.5667 14.04 15.3267 13.54 15.66Z"
      fill="url(#paint0_linear_2538_19905)" />
  </g>
  <defs>
    <linearGradient id="paint0_linear_2538_19905" x1="1.99206" y1="10.3577" x2="26.5723"
      y2="22.1561" gradientUnits="userSpaceOnUse">
      <stop stop-color="#13577A" />
      <stop offset="0.3173" stop-color="#5AB8AA" />
      <stop offset="0.8563" stop-color="#8DC121" />
    </linearGradient>
    <clipPath id="clip0_2538_19905">
      <rect width="25" height="25" fill="white" />
    </clipPath>
  </defs>
</svg>
  