<svg width="24" height="25" viewBox="0 0 24 25" fill="none" xmlns="http://www.w3.org/2000/svg">
  <path d="M12.4966 12.0017L22.9898 6.00085V17.9992L12.4966 24V12.0017Z" fill="#8E2335" />
  <path d="M12.4966 12.0017L2 6.00085V17.9992L12.4966 24V12.0017Z" fill="#E22951" />
  <path d="M12.4966 0L22.9899 6.00083L12.4966 12.0017L2 6.00083L12.4966 0Z" fill="#E22951" />
  <path d="M16.0045 13.9953L19.4888 11.995V16.0022L16.0045 17.9958V13.9953Z" fill="#631425" />
  <path d="M16.0045 13.9919L19.4888 11.995V15.9989L16.0045 13.9919Z" fill="#490D1C" />
  <path d="M12.4966 8.00447L8.99548 6.0342L12.4865 4.01392L15.9843 5.98419L12.4966 8.00447Z" fill="#8E2335" />
  <path d="M12.4932 8.00447L8.99207 6.0342L12.4865 4.01392L12.4932 8.00447Z" fill="#490D1C" />
  <path d="M8.99212 17.9959L8.99549 14.002L5.5011 12.0017V15.9989L8.99212 17.9959Z" fill="#8E2335" />
  <path d="M5.5011 15.9989L8.99549 14.002L5.5011 12.0017V15.9989Z" fill="#631425" />
  <path d="M12.4999 11.9884L2.07397 6.03088" stroke="#8E2335" stroke-width="0.5" stroke-linecap="round" stroke-linejoin="round" />
</svg>
  