<svg id="svg" version="1.1" xmlns="http://www.w3.org/2000/svg" xmlns:xlink="http://www.w3.org/1999/xlink" width="400" height="400" viewBox="0, 0, 400,400"><g id="svgg"><path id="path0" d="M107.330 129.549 C 101.033 131.741,96.722 135.842,93.944 142.285 L 92.600 145.400 92.483 198.200 C 92.354 256.196,92.276 254.189,94.851 259.537 C 100.575 271.422,115.229 275.186,126.357 267.629 C 129.308 265.625,129.668 265.180,139.629 251.200 C 144.097 244.930,150.656 235.750,154.203 230.800 C 157.751 225.850,166.300 213.880,173.200 204.200 C 180.101 194.520,188.206 183.180,191.211 179.000 C 204.689 160.254,205.250 159.385,206.179 155.816 C 209.297 143.841,202.479 132.111,190.602 129.017 C 188.544 128.481,183.126 128.401,149.416 128.405 L 110.600 128.411 107.330 129.549 M134.601 151.383 C 147.725 157.804,143.735 177.664,129.186 178.337 C 112.430 179.113,108.167 155.762,124.114 150.557 C 126.920 149.641,131.832 150.028,134.601 151.383 M235.000 229.328 C 224.325 232.067,218.602 244.251,223.351 254.126 C 231.891 271.880,258.315 264.938,257.091 245.262 C 256.421 234.483,245.528 226.626,235.000 229.328 " stroke="none" fill="#1d1405" fill-rule="evenodd"></path><path id="path1" d="M186.800 0.376 C 185.805 0.958,180.430 1.921,176.600 2.203 C 174.620 2.349,171.470 2.812,169.600 3.231 C 167.730 3.651,164.310 4.271,162.000 4.608 C 159.690 4.946,156.540 5.567,155.000 5.989 C 153.460 6.410,149.410 7.482,146.000 8.371 C 142.590 9.260,137.460 10.861,134.600 11.930 C 131.740 12.999,128.410 14.195,127.200 14.588 C 98.702 23.841,60.813 53.052,39.493 82.204 C 28.974 96.587,19.125 114.599,14.014 128.800 C 13.182 131.110,11.951 134.530,11.279 136.400 C 10.193 139.419,7.658 148.286,5.799 155.566 C 5.439 156.978,4.810 160.398,4.403 163.166 C 3.995 165.935,3.471 168.699,3.237 169.309 C 3.004 169.918,2.631 172.438,2.408 174.909 C 1.902 180.502,1.258 184.535,0.547 186.550 C -0.133 188.477,-0.253 211.981,0.411 213.221 C 1.036 214.388,1.530 217.234,2.181 223.414 C 2.506 226.501,3.043 230.101,3.373 231.414 C 3.703 232.726,4.238 235.600,4.562 237.800 C 8.596 265.222,26.421 303.253,45.901 326.000 C 57.415 339.445,62.677 344.667,75.763 355.637 C 86.330 364.494,103.561 375.039,118.400 381.728 C 130.784 387.311,153.527 394.499,161.607 395.384 C 163.033 395.540,166.090 396.089,168.400 396.603 C 170.710 397.118,174.220 397.662,176.200 397.812 C 178.180 397.963,181.420 398.458,183.400 398.913 C 188.398 400.061,211.512 400.186,215.400 399.086 C 216.720 398.712,219.960 398.213,222.600 397.976 C 225.240 397.739,229.560 397.124,232.200 396.609 C 234.840 396.094,238.234 395.468,239.743 395.218 C 287.318 387.342,338.959 352.125,367.051 308.400 C 381.425 286.026,392.978 257.215,395.601 237.200 C 395.846 235.330,396.309 232.810,396.629 231.600 C 396.950 230.390,397.482 226.771,397.813 223.559 C 398.144 220.346,398.713 216.746,399.077 215.559 C 400.203 211.890,400.307 189.822,399.219 185.463 C 398.771 183.668,398.132 179.590,397.799 176.400 C 397.466 173.210,396.929 169.520,396.606 168.200 C 396.283 166.880,395.827 164.360,395.593 162.600 C 394.302 152.877,387.087 130.021,381.375 117.562 C 376.296 106.485,367.971 92.088,362.198 84.400 C 361.289 83.190,359.750 81.120,358.776 79.800 C 352.555 71.364,340.322 58.302,331.190 50.343 C 325.113 45.048,323.860 44.006,320.909 41.795 C 319.199 40.514,317.170 38.987,316.400 38.401 C 311.492 34.671,299.915 27.509,292.000 23.307 C 288.396 21.393,275.107 15.200,274.605 15.200 C 274.476 15.200,271.207 14.028,267.340 12.595 C 259.546 9.706,244.193 5.530,237.883 4.583 C 235.638 4.246,232.802 3.711,231.582 3.395 C 230.362 3.079,226.852 2.553,223.782 2.226 C 217.524 1.559,214.344 1.012,213.216 0.408 C 212.268 -0.099,187.662 -0.129,186.800 0.376 M290.400 127.322 C 299.205 129.589,304.847 134.591,307.902 142.837 L 309.000 145.800 309.000 200.200 L 309.000 254.600 307.890 257.335 C 301.688 272.620,287.716 277.218,271.936 269.168 C 270.062 268.212,266.437 263.323,264.251 258.803 L 262.608 255.407 262.550 243.403 C 262.493 231.743,262.463 231.312,261.486 228.331 C 259.172 221.266,253.374 216.369,245.324 214.680 C 240.000 213.564,230.730 217.478,228.658 221.718 C 228.251 222.553,227.475 223.525,226.935 223.879 C 226.396 224.233,225.620 225.170,225.212 225.961 C 224.804 226.752,223.812 228.030,223.008 228.800 C 222.204 229.570,220.988 231.245,220.306 232.522 C 219.623 233.799,218.739 235.019,218.340 235.232 C 217.941 235.446,216.602 237.191,215.365 239.110 C 211.972 244.373,210.019 247.178,208.119 249.516 C 207.174 250.679,206.400 251.798,206.400 252.002 C 206.400 252.206,205.591 253.284,204.603 254.397 C 203.615 255.509,202.458 257.102,202.032 257.937 C 201.607 258.771,200.948 259.711,200.568 260.027 C 200.188 260.342,199.410 261.347,198.839 262.261 C 197.080 265.074,193.436 268.660,191.783 269.206 C 190.948 269.481,189.710 270.031,189.033 270.426 C 184.532 273.055,174.533 273.005,169.651 270.330 C 160.226 265.164,157.292 260.926,156.394 251.181 L 155.895 245.763 157.407 241.686 C 158.446 238.886,159.529 236.824,160.864 235.104 C 161.933 233.727,163.553 231.520,164.463 230.200 C 165.373 228.880,166.914 226.720,167.888 225.400 C 168.861 224.080,170.230 222.075,170.929 220.944 C 173.228 217.226,176.391 212.700,178.558 210.028 C 179.730 208.583,181.205 206.590,181.835 205.600 C 182.465 204.610,183.683 202.990,184.542 202.000 C 185.402 201.010,186.597 199.120,187.200 197.800 C 187.802 196.480,188.724 194.920,189.247 194.334 C 190.985 192.391,192.663 190.213,193.199 189.208 C 193.489 188.662,194.153 187.880,194.675 187.470 C 195.196 187.060,195.992 185.999,196.445 185.112 C 197.470 183.102,200.556 178.595,201.999 177.000 C 202.596 176.340,203.635 174.980,204.308 173.977 C 204.982 172.974,205.831 171.906,206.195 171.604 C 206.560 171.301,207.218 170.349,207.658 169.487 C 208.097 168.625,209.141 167.173,209.977 166.260 C 210.812 165.347,211.890 163.880,212.370 163.000 C 214.274 159.517,216.653 156.025,217.664 155.233 C 218.250 154.774,219.475 153.093,220.387 151.499 C 221.299 149.905,223.383 146.890,225.019 144.800 C 226.656 142.710,229.261 139.261,230.810 137.135 C 235.760 130.340,239.275 128.088,247.200 126.635 C 249.809 126.156,288.247 126.768,290.400 127.322 M190.602 129.017 C 202.479 132.111,209.297 143.841,206.179 155.816 C 205.250 159.385,204.689 160.254,191.211 179.000 C 188.206 183.180,180.101 194.520,173.200 204.200 C 166.300 213.880,157.751 225.850,154.203 230.800 C 150.656 235.750,144.097 244.930,139.629 251.200 C 129.668 265.180,129.308 265.625,126.357 267.629 C 115.229 275.186,100.575 271.422,94.851 259.537 C 92.276 254.189,92.354 256.196,92.483 198.200 L 92.600 145.400 93.944 142.285 C 96.722 135.842,101.033 131.741,107.330 129.549 L 110.600 128.411 149.416 128.405 C 183.126 128.401,188.544 128.481,190.602 129.017 M124.114 150.557 C 108.167 155.762,112.430 179.113,129.186 178.337 C 143.735 177.664,147.725 157.804,134.601 151.383 C 131.832 150.028,126.920 149.641,124.114 150.557 M133.948 152.537 C 134.961 153.758,132.896 154.011,131.800 152.800 C 131.091 152.017,131.101 152.000,132.289 152.000 C 132.956 152.000,133.703 152.242,133.948 152.537 M119.200 171.890 C 119.738 172.574,119.889 173.037,119.606 173.131 C 119.029 173.324,117.600 172.046,117.600 171.338 C 117.600 170.479,118.272 170.711,119.200 171.890 M138.400 172.200 C 138.117 172.541,137.796 172.729,137.686 172.619 C 137.576 172.509,137.717 172.141,138.000 171.800 C 138.283 171.459,138.604 171.271,138.714 171.381 C 138.824 171.491,138.683 171.859,138.400 172.200 M159.587 228.024 C 159.359 228.451,158.908 228.800,158.586 228.800 C 157.825 228.800,157.845 228.434,158.653 227.541 C 159.473 226.636,160.144 226.984,159.587 228.024 M247.080 230.601 C 260.689 237.326,260.540 256.205,246.826 262.755 C 233.959 268.900,219.204 257.248,221.981 243.135 C 224.197 231.872,236.859 225.549,247.080 230.601 M222.614 237.173 C 221.883 238.587,221.380 238.733,221.089 237.619 C 220.865 236.761,221.463 235.796,222.400 235.506 C 223.268 235.237,223.337 235.774,222.614 237.173 M148.000 243.156 C 148.000 243.351,147.646 243.936,147.213 244.456 C 146.374 245.464,146.112 244.885,146.814 243.574 C 147.237 242.783,148.000 242.514,148.000 243.156 " stroke="none" fill="#f7ba29" fill-rule="evenodd"></path><path id="path2" d="M0.025 88.500 C 0.039 137.175,0.195 176.640,0.371 176.200 C 0.547 175.760,0.821 174.320,0.981 173.000 C 1.140 171.680,1.688 168.620,2.199 166.200 C 2.710 163.780,3.256 160.818,3.413 159.618 C 3.672 157.633,4.283 155.204,7.443 143.600 C 8.456 139.881,10.765 132.983,13.133 126.600 C 16.343 117.948,26.757 97.728,31.637 90.672 C 49.796 64.416,65.182 49.017,90.460 31.800 C 98.685 26.198,117.596 16.430,126.576 13.147 C 143.216 7.062,155.014 3.940,171.200 1.337 C 173.290 1.001,175.360 0.575,175.800 0.390 C 176.240 0.205,136.865 0.042,88.300 0.027 L 0.000 0.000 0.025 88.500 M223.276 0.210 C 223.388 0.322,225.532 0.761,228.040 1.187 C 258.126 6.290,276.379 12.687,301.927 27.083 C 305.993 29.374,310.103 32.091,318.000 37.709 C 339.642 53.104,361.957 77.934,373.982 100.000 C 375.601 102.970,377.404 106.210,377.989 107.200 C 382.769 115.287,390.161 134.206,393.450 146.772 C 394.453 150.607,395.435 154.165,395.630 154.679 C 395.826 155.194,396.271 157.456,396.621 159.707 C 396.970 161.958,397.418 164.430,397.616 165.200 C 397.814 165.970,398.336 168.740,398.776 171.355 C 399.216 173.970,399.671 176.205,399.788 176.321 C 399.905 176.438,400.000 136.813,400.000 88.267 L 400.000 -0.000 311.536 0.003 C 262.881 0.004,223.164 0.097,223.276 0.210 M98.167 23.547 C 98.481 24.055,97.169 25.065,95.900 25.292 C 94.649 25.516,94.486 25.009,95.462 23.931 C 96.148 23.174,97.792 22.940,98.167 23.547 M304.571 23.829 C 305.512 24.769,305.336 25.200,304.014 25.200 C 302.867 25.200,301.705 24.028,302.281 23.453 C 302.739 22.994,303.933 23.190,304.571 23.829 M24.734 96.823 C 24.565 97.979,23.600 98.356,23.600 97.266 C 23.600 96.826,23.714 96.169,23.853 95.806 C 24.209 94.878,24.901 95.677,24.734 96.823 M376.599 96.396 C 376.860 97.219,376.588 98.000,376.041 98.000 C 375.613 98.000,374.796 96.137,375.093 95.840 C 375.589 95.345,376.355 95.628,376.599 96.396 M244.400 130.027 C 238.149 131.970,235.508 134.346,229.309 143.600 C 228.056 145.470,226.366 147.810,225.552 148.800 C 224.738 149.790,223.111 151.968,221.936 153.640 C 220.761 155.312,218.720 158.166,217.400 159.982 C 216.080 161.798,213.470 165.499,211.600 168.207 C 209.730 170.915,205.050 177.491,201.200 182.821 C 197.350 188.150,193.480 193.541,192.600 194.800 C 191.720 196.059,188.570 200.460,185.600 204.580 C 182.630 208.699,179.300 213.376,178.200 214.972 C 177.100 216.569,174.400 220.353,172.200 223.383 C 163.164 235.825,160.415 240.064,159.593 242.822 C 154.372 260.354,171.377 275.357,188.138 268.007 C 192.712 266.000,196.206 262.483,200.860 255.200 C 201.634 253.990,203.613 251.200,205.260 249.000 C 206.907 246.800,209.163 243.650,210.274 242.000 C 211.385 240.350,213.712 237.080,215.447 234.733 C 217.181 232.386,219.860 228.644,221.400 226.417 C 227.303 217.881,229.833 215.537,235.309 213.533 C 245.401 209.840,255.696 213.303,261.739 222.425 C 264.532 226.640,264.867 228.608,265.168 242.600 L 265.436 255.000 266.673 257.885 C 274.599 276.371,299.597 275.052,306.190 255.800 C 306.906 253.708,307.416 159.461,306.769 148.745 C 306.197 139.278,299.878 131.938,290.142 129.432 C 288.057 128.896,284.691 128.804,267.942 128.823 L 248.200 128.846 244.400 130.027 M399.453 224.300 C 399.337 224.905,399.132 226.210,398.997 227.200 C 398.862 228.190,398.318 231.250,397.787 234.000 C 397.257 236.750,396.570 240.350,396.261 242.000 C 393.576 256.326,384.003 282.798,377.642 293.492 C 377.018 294.541,375.283 297.650,373.787 300.400 C 358.811 327.934,328.125 358.627,300.400 373.805 C 297.650 375.310,294.410 377.107,293.200 377.798 C 290.927 379.095,289.792 379.643,281.000 383.686 C 266.899 390.170,244.949 396.432,227.800 398.864 C 226.040 399.113,224.330 399.466,224.000 399.647 C 223.670 399.828,263.135 399.981,311.700 399.988 L 400.000 400.000 400.000 311.600 C 400.000 262.980,399.924 223.200,399.832 223.200 C 399.739 223.200,399.569 223.695,399.453 224.300 M0.012 311.700 L 0.000 400.000 88.267 400.000 C 136.813 400.000,176.433 399.900,176.310 399.777 C 176.188 399.654,174.493 399.312,172.544 399.016 C 170.595 398.720,167.110 398.101,164.800 397.640 C 162.490 397.179,159.340 396.553,157.800 396.250 C 116.962 388.205,73.883 362.288,46.352 329.200 C 34.430 314.872,24.731 299.386,16.789 282.000 C 11.626 270.698,4.483 248.421,3.386 240.200 C 3.239 239.100,2.703 236.220,2.194 233.800 C 1.686 231.380,1.142 228.320,0.986 227.000 C 0.830 225.680,0.550 224.330,0.363 224.000 C 0.177 223.670,0.019 263.135,0.012 311.700 M24.734 303.177 C 24.807 303.681,24.689 304.271,24.471 304.489 C 23.961 304.999,23.046 303.378,23.369 302.535 C 23.698 301.680,24.575 302.092,24.734 303.177 M376.606 303.582 C 376.256 304.684,374.940 304.507,375.140 303.385 C 375.217 302.953,375.485 302.472,375.737 302.317 C 376.424 301.890,376.915 302.606,376.606 303.582 M360.800 326.186 C 360.800 326.508,360.440 326.965,360.000 327.200 C 359.075 327.695,359.003 327.505,359.696 326.395 C 360.281 325.458,360.800 325.360,360.800 326.186 M97.520 375.280 C 98.305 376.065,98.068 376.800,97.029 376.800 C 96.061 376.800,94.800 375.878,94.800 375.171 C 94.800 374.630,96.956 374.716,97.520 375.280 M305.125 375.500 C 304.984 376.240,303.572 376.628,302.510 376.221 C 301.958 376.009,301.974 375.905,302.639 375.402 C 303.751 374.560,305.293 374.621,305.125 375.500 " stroke="none" fill="#fbfbf6" fill-rule="evenodd"></path><path id="path3" d="M175.600 0.430 C 175.050 0.619,172.980 1.040,171.000 1.364 C 154.583 4.053,143.152 7.085,126.576 13.147 C 117.596 16.430,98.685 26.198,90.460 31.800 C 65.182 49.017,49.796 64.416,31.637 90.672 C 26.757 97.728,16.343 117.948,13.133 126.600 C 10.768 132.976,8.457 139.879,7.443 143.600 C 4.631 153.916,3.612 158.054,3.208 160.800 C 2.965 162.450,2.500 164.954,2.174 166.365 C 0.392 174.077,-0.911 190.304,0.566 186.386 C 1.254 184.560,1.899 180.539,2.408 174.909 C 2.631 172.438,3.004 169.918,3.237 169.309 C 3.471 168.699,3.995 165.935,4.403 163.166 C 4.810 160.398,5.439 156.978,5.799 155.566 C 7.658 148.286,10.193 139.419,11.279 136.400 C 11.951 134.530,13.182 131.110,14.014 128.800 C 20.206 111.597,33.764 88.257,45.728 74.204 C 55.533 62.688,60.804 57.339,71.481 48.070 C 86.629 34.919,112.542 19.347,127.200 14.588 C 128.410 14.195,131.740 12.999,134.600 11.930 C 137.460 10.861,142.590 9.260,146.000 8.371 C 149.410 7.482,153.460 6.410,155.000 5.989 C 156.540 5.567,159.690 4.946,162.000 4.608 C 164.310 4.271,167.730 3.651,169.600 3.231 C 171.470 2.812,174.620 2.349,176.600 2.203 C 180.430 1.921,185.805 0.958,186.800 0.376 C 187.586 -0.084,176.943 -0.033,175.600 0.430 M213.274 0.399 C 214.252 0.996,217.441 1.551,223.782 2.226 C 226.852 2.553,230.362 3.079,231.582 3.395 C 232.802 3.711,235.638 4.246,237.883 4.583 C 244.193 5.530,259.546 9.706,267.340 12.595 C 271.207 14.028,274.476 15.200,274.605 15.200 C 275.107 15.200,288.396 21.393,292.000 23.307 C 299.915 27.509,311.492 34.671,316.400 38.401 C 317.170 38.987,319.199 40.514,320.909 41.795 C 323.860 44.006,325.113 45.048,331.190 50.343 C 340.322 58.302,352.555 71.364,358.776 79.800 C 359.750 81.120,361.289 83.190,362.198 84.400 C 367.971 92.088,376.296 106.485,381.375 117.562 C 387.087 130.021,394.302 152.877,395.593 162.600 C 395.827 164.360,396.283 166.880,396.606 168.200 C 396.929 169.520,397.463 173.164,397.791 176.297 C 398.120 179.430,398.707 183.300,399.095 184.897 L 399.800 187.800 399.918 182.600 C 399.983 179.740,399.848 176.680,399.619 175.800 C 399.389 174.920,399.012 172.940,398.781 171.400 C 398.551 169.860,398.117 167.520,397.817 166.200 C 397.518 164.880,396.983 161.958,396.629 159.707 C 396.275 157.456,395.826 155.194,395.630 154.679 C 395.435 154.165,394.453 150.607,393.450 146.772 C 391.738 140.233,390.343 135.955,386.936 126.800 C 385.327 122.478,379.588 109.906,377.989 107.200 C 377.404 106.210,375.601 102.970,373.982 100.000 C 363.192 80.200,343.019 56.887,323.861 42.079 C 304.613 27.201,286.767 17.645,262.600 9.276 C 257.435 7.487,244.736 4.223,238.200 3.004 C 235.120 2.429,230.620 1.586,228.200 1.129 C 223.371 0.218,212.072 -0.334,213.274 0.399 M247.200 126.635 C 239.275 128.088,235.760 130.340,230.810 137.135 C 229.261 139.261,226.656 142.710,225.019 144.800 C 223.383 146.890,221.299 149.905,220.387 151.499 C 219.475 153.093,218.250 154.774,217.664 155.233 C 216.653 156.025,214.274 159.517,212.370 163.000 C 211.890 163.880,210.812 165.347,209.977 166.260 C 209.141 167.173,208.097 168.625,207.658 169.487 C 207.218 170.349,206.560 171.301,206.195 171.604 C 205.831 171.906,204.982 172.974,204.308 173.977 C 203.635 174.980,202.596 176.340,201.999 177.000 C 200.556 178.595,197.470 183.102,196.445 185.112 C 195.992 185.999,195.196 187.060,194.675 187.470 C 194.153 187.880,193.489 188.662,193.199 189.208 C 192.663 190.213,190.985 192.391,189.247 194.334 C 188.724 194.920,187.802 196.480,187.200 197.800 C 186.597 199.120,185.402 201.010,184.542 202.000 C 183.683 202.990,182.465 204.610,181.835 205.600 C 181.205 206.590,179.730 208.583,178.558 210.028 C 176.391 212.700,173.228 217.226,170.929 220.944 C 170.230 222.075,168.861 224.080,167.888 225.400 C 166.914 226.720,165.373 228.880,164.463 230.200 C 163.553 231.520,161.933 233.727,160.864 235.104 C 159.529 236.824,158.446 238.886,157.407 241.686 L 155.895 245.763 156.394 251.181 C 157.292 260.926,160.226 265.164,169.651 270.330 C 174.533 273.005,184.532 273.055,189.033 270.426 C 189.710 270.031,190.948 269.481,191.783 269.206 C 193.436 268.660,197.080 265.074,198.839 262.261 C 199.410 261.347,200.188 260.342,200.568 260.027 C 200.948 259.711,201.607 258.771,202.032 257.937 C 202.458 257.102,203.615 255.509,204.603 254.397 C 205.591 253.284,206.400 252.206,206.400 252.002 C 206.400 251.798,207.174 250.679,208.119 249.516 C 210.019 247.178,211.972 244.373,215.365 239.110 C 216.602 237.191,217.941 235.446,218.340 235.232 C 218.739 235.019,219.623 233.799,220.306 232.522 C 220.988 231.245,222.204 229.570,223.008 228.800 C 223.812 228.030,224.804 226.752,225.212 225.961 C 225.620 225.170,226.396 224.233,226.935 223.879 C 227.475 223.525,228.251 222.553,228.658 221.718 C 230.730 217.478,240.000 213.564,245.324 214.680 C 253.374 216.369,259.172 221.266,261.486 228.331 C 262.463 231.312,262.493 231.743,262.550 243.403 L 262.608 255.407 264.251 258.803 C 266.437 263.323,270.062 268.212,271.936 269.168 C 281.753 274.176,288.188 274.487,296.630 270.362 C 301.940 267.768,305.176 264.024,307.890 257.335 L 309.000 254.600 309.000 200.200 L 309.000 145.800 307.902 142.837 C 304.847 134.591,299.205 129.589,290.400 127.322 C 288.247 126.768,249.809 126.156,247.200 126.635 M290.142 129.432 C 299.878 131.938,306.197 139.278,306.769 148.745 C 307.416 159.461,306.906 253.708,306.190 255.800 C 299.597 275.052,274.599 276.371,266.673 257.885 L 265.436 255.000 265.168 242.600 C 264.867 228.608,264.532 226.640,261.739 222.425 C 255.696 213.303,245.401 209.840,235.309 213.533 C 229.833 215.537,227.303 217.881,221.400 226.417 C 219.860 228.644,217.181 232.386,215.447 234.733 C 213.712 237.080,211.385 240.350,210.274 242.000 C 209.163 243.650,206.907 246.800,205.260 249.000 C 203.613 251.200,201.634 253.990,200.860 255.200 C 196.206 262.483,192.712 266.000,188.138 268.007 C 171.377 275.357,154.372 260.354,159.593 242.822 C 160.415 240.064,163.164 235.825,172.200 223.383 C 174.400 220.353,177.100 216.569,178.200 214.972 C 179.300 213.376,182.630 208.699,185.600 204.580 C 188.570 200.460,191.720 196.059,192.600 194.800 C 193.480 193.541,197.350 188.150,201.200 182.821 C 205.050 177.491,209.730 170.915,211.600 168.207 C 213.470 165.499,216.080 161.798,217.400 159.982 C 218.720 158.166,220.761 155.312,221.936 153.640 C 223.111 151.968,224.738 149.790,225.552 148.800 C 226.366 147.810,228.056 145.470,229.309 143.600 C 235.508 134.346,238.149 131.970,244.400 130.027 L 248.200 128.846 267.942 128.823 C 284.691 128.804,288.057 128.896,290.142 129.432 M131.800 152.800 C 132.516 153.592,133.621 153.846,134.130 153.337 C 134.636 152.831,133.492 152.000,132.289 152.000 C 131.101 152.000,131.091 152.017,131.800 152.800 M117.600 171.338 C 117.600 172.046,119.029 173.324,119.606 173.131 C 119.889 173.037,119.738 172.574,119.200 171.890 C 118.272 170.711,117.600 170.479,117.600 171.338 M138.000 171.800 C 137.717 172.141,137.576 172.509,137.686 172.619 C 137.796 172.729,138.117 172.541,138.400 172.200 C 138.683 171.859,138.824 171.491,138.714 171.381 C 138.604 171.271,138.283 171.459,138.000 171.800 M0.146 218.200 C 0.290 223.696,0.706 226.807,2.314 234.400 C 2.757 236.490,3.239 239.100,3.386 240.200 C 4.483 248.421,11.626 270.698,16.789 282.000 C 32.969 317.421,56.240 344.862,89.200 367.384 C 107.734 380.050,136.055 391.966,157.800 396.250 C 159.340 396.553,162.490 397.179,164.800 397.640 C 167.110 398.101,170.620 398.763,172.600 399.111 C 176.587 399.811,187.779 400.228,186.800 399.640 C 185.935 399.121,179.965 398.101,176.000 397.795 C 174.130 397.650,170.710 397.113,168.400 396.600 C 166.090 396.087,163.033 395.540,161.607 395.384 C 153.527 394.499,130.784 387.311,118.400 381.728 C 103.561 375.039,86.330 364.494,75.763 355.637 C 62.677 344.667,57.415 339.445,45.901 326.000 C 38.645 317.527,31.091 306.208,23.862 292.975 C 15.669 277.978,6.701 252.338,4.562 237.800 C 4.238 235.600,3.703 232.726,3.373 231.414 C 3.043 230.101,2.506 226.501,2.181 223.414 C 1.032 212.508,-0.078 209.665,0.146 218.200 M399.325 214.200 C 398.652 216.467,398.093 220.050,397.796 224.000 C 397.655 225.870,397.208 228.840,396.802 230.600 C 396.396 232.360,395.860 235.330,395.610 237.200 C 392.914 257.380,381.421 286.032,367.051 308.400 C 338.959 352.125,287.318 387.342,239.743 395.218 C 238.234 395.468,234.840 396.096,232.200 396.614 C 229.560 397.132,225.870 397.666,224.000 397.801 C 220.042 398.086,214.096 399.094,213.212 399.630 C 212.214 400.235,223.387 399.782,227.400 399.055 C 245.595 395.758,256.183 393.098,268.134 388.820 C 276.439 385.848,288.016 380.757,293.200 377.798 C 294.410 377.107,297.650 375.310,300.400 373.805 C 328.125 358.627,358.811 327.934,373.787 300.400 C 375.283 297.650,377.018 294.541,377.642 293.492 C 384.003 282.798,393.576 256.326,396.261 242.000 C 396.570 240.350,397.257 236.750,397.787 234.000 C 398.318 231.250,398.859 228.190,398.991 227.200 C 399.122 226.210,399.412 224.680,399.634 223.800 C 400.257 221.329,399.959 212.063,399.325 214.200 M158.653 227.541 C 157.845 228.434,157.825 228.800,158.586 228.800 C 159.278 228.800,160.158 227.345,159.655 227.034 C 159.463 226.916,159.013 227.144,158.653 227.541 M222.400 235.506 C 221.463 235.796,220.865 236.761,221.089 237.619 C 221.380 238.733,221.883 238.587,222.614 237.173 C 223.337 235.774,223.268 235.237,222.400 235.506 M146.814 243.574 C 146.112 244.885,146.374 245.464,147.213 244.456 C 147.646 243.936,148.000 243.351,148.000 243.156 C 148.000 242.514,147.237 242.783,146.814 243.574 " stroke="none" fill="#f1cf78" fill-rule="evenodd"></path><path id="path4" d="M95.462 23.931 C 94.486 25.009,94.649 25.516,95.900 25.292 C 97.169 25.065,98.481 24.055,98.167 23.547 C 97.792 22.940,96.148 23.174,95.462 23.931 M302.281 23.453 C 301.705 24.028,302.867 25.200,304.014 25.200 C 305.336 25.200,305.512 24.769,304.571 23.829 C 303.933 23.190,302.739 22.994,302.281 23.453 M23.853 95.806 C 23.714 96.169,23.600 96.826,23.600 97.266 C 23.600 98.356,24.565 97.979,24.734 96.823 C 24.901 95.677,24.209 94.878,23.853 95.806 M375.093 95.840 C 374.796 96.137,375.613 98.000,376.041 98.000 C 376.588 98.000,376.860 97.219,376.599 96.396 C 376.355 95.628,375.589 95.345,375.093 95.840 M23.369 302.535 C 23.046 303.378,23.961 304.999,24.471 304.489 C 24.994 303.966,24.736 302.308,24.100 302.098 C 23.825 302.008,23.496 302.204,23.369 302.535 M375.737 302.317 C 375.485 302.472,375.217 302.953,375.140 303.385 C 374.940 304.507,376.256 304.684,376.606 303.582 C 376.915 302.606,376.424 301.890,375.737 302.317 M359.696 326.395 C 359.003 327.505,359.075 327.695,360.000 327.200 C 360.440 326.965,360.800 326.508,360.800 326.186 C 360.800 325.360,360.281 325.458,359.696 326.395 M94.800 375.171 C 94.800 375.878,96.061 376.800,97.029 376.800 C 98.068 376.800,98.305 376.065,97.520 375.280 C 96.956 374.716,94.800 374.630,94.800 375.171 M302.639 375.402 C 301.974 375.905,301.958 376.009,302.510 376.221 C 303.572 376.628,304.984 376.240,305.125 375.500 C 305.293 374.621,303.751 374.560,302.639 375.402 " stroke="none" fill="#ecfcfc" fill-rule="evenodd"></path></g></svg>