<?xml version="1.0" encoding="UTF-8"?>
<svg id="Warstwa_2" data-name="Warstwa 2" xmlns="http://www.w3.org/2000/svg" viewBox="0 0 196.96 196.96">
  <defs>
    <style>
      .cls-1 {
        fill: #233149;
      }

      .cls-1, .cls-2 {
        stroke-width: 0px;
      }

      .cls-2 {
        fill: #fff;
      }
    </style>
  </defs>
  <g id="Warstwa_1-2" data-name="Warstwa 1">
    <g>
      <circle class="cls-1" cx="98.48" cy="98.48" r="98.48"/>
      <g>
        <path class="cls-2" d="m176.94,73.99c0-6.76-5.48-12.24-12.23-12.24-.68,0-1.34.07-1.99.18-12.79-21.81-36.5-36.5-63.61-36.5-16.21,0-31.21,5.26-43.39,14.15-2-1.43-4.45-2.29-7.1-2.29-6.76,0-12.24,5.48-12.24,12.23,0,2.73.9,5.24,2.42,7.27-8.4,11.93-13.35,26.45-13.35,42.11,0,32.99,21.91,60.97,51.98,70.22,0,.15-.02.29-.02.44,0,6.76,5.47,12.23,12.23,12.23,5.81,0,10.66-4.05,11.91-9.48,39.49-1.29,71.21-33.71,71.21-73.41,0-5.01-.51-9.89-1.47-14.62,3.39-2.17,5.64-5.96,5.64-10.3Zm-9.81,24.92c0,36.6-29.22,66.51-65.61,67.78-1.3-5.36-6.11-9.34-11.88-9.34-4.62,0-8.65,2.57-10.72,6.35-27.68-8.6-47.83-34.39-47.83-64.79,0-14.28,4.45-27.53,12.03-38.47,1.66.83,3.52,1.32,5.5,1.32,6.75,0,12.23-5.47,12.23-12.23,0-2.05-.51-3.99-1.41-5.69,11.18-8.03,24.87-12.78,39.67-12.78,24.77,0,46.48,13.28,58.38,33.07-3.04,2.23-5.02,5.81-5.02,9.86,0,6.77,5.48,12.23,12.24,12.23.4,0,.8-.02,1.2-.06.79,4.13,1.22,8.39,1.22,12.75Z"/>
        <path class="cls-2" d="m119.23,59.12v37.28h-40.58v-37.01c-5.05,2.6-9.54,6.13-13.27,10.36v33.35c0,.92.18,1.78.51,2.6.34.82.81,1.52,1.4,2.13.59.59,1.31,1.07,2.12,1.42.81.36,1.7.54,2.66.54h47.16v29.82c5.08-2.52,9.6-5.96,13.37-10.11v-60.24c-3.77-4.17-8.29-7.61-13.37-10.14Z"/>
      </g>
    </g>
  </g>
</svg>