<svg width="25" height="25" viewBox="0 0 25 25" fill="none" xmlns="http://www.w3.org/2000/svg">
  <g clip-path="url(#clip0_2504_19901)">
    <path d="M9.86842 22.3684C13.8653 22.3684 17.1053 19.1284 17.1053 15.1316C17.1053 11.1348 13.8653 7.89476 9.86842 7.89476C5.87158 7.89476 2.63158 11.1348 2.63158 15.1316C2.63158 19.1284 5.87158 22.3684 9.86842 22.3684ZM9.86842 25C4.41842 25 0 20.5816 0 15.1316C0 9.6816 4.41842 5.26318 9.86842 5.26318C15.3184 5.26318 19.7368 9.6816 19.7368 15.1316C19.7368 20.5816 15.3184 25 9.86842 25Z" fill="#FBCC5C" />
    <path d="M15.1316 17.1053C19.1284 17.1053 22.3684 13.8653 22.3684 9.86842C22.3684 5.87158 19.1284 2.63158 15.1316 2.63158C11.1348 2.63158 7.89476 5.87158 7.89476 9.86842C7.89476 13.8653 11.1348 17.1053 15.1316 17.1053ZM15.1316 19.7368C9.6816 19.7368 5.26318 15.3184 5.26318 9.86842C5.26318 4.41842 9.6816 0 15.1316 0C20.5816 0 25 4.41842 25 9.86842C25 15.3184 20.5816 19.7368 15.1316 19.7368Z" fill="#35D07F" />
    <path d="M15.4577 19.7369C16.1419 18.9077 16.6323 17.9361 16.8932 16.8932C17.9361 16.6324 18.9076 16.1421 19.7369 15.4579C19.6991 16.6657 19.4389 17.8562 18.9695 18.9698C17.856 19.4391 16.6655 19.6991 15.4577 19.7369ZM8.10687 8.10687C7.06394 8.36762 6.09241 8.85797 5.26318 9.54213C5.30099 8.33431 5.56113 7.1438 6.03055 6.03029C7.14408 5.56095 8.33459 5.3009 9.54239 5.26318C8.85815 6.09239 8.36771 7.06392 8.10687 8.10687V8.10687Z" fill="#5EA33B" />
  </g>
  <defs>
    <clipPath id="clip0_2504_19901">
      <rect width="25" height="25" fill="white" />
    </clipPath>
  </defs>
</svg>
  