<svg width="44" height="44" viewBox="0 0 44 44" fill="none" xmlns="http://www.w3.org/2000/svg">
  <g filter="url(#filter0_di_1176_4364)">
    <path d="M7 22C7 13.7157 13.7157 7 22 7C30.2843 7 37 13.7157 37 22C37 30.2843 30.2843 37 22 37C13.7157 37 7 30.2843 7 22Z" fill="url(#paint0_linear_1176_4364)" shape-rendering="crispEdges" />
    <path d="M28.4988 26.772C28.2442 26.5203 27.8309 26.5203 27.5762 26.772L27.0389 27.3031L26.555 26.8249L27.0924 26.2938C27.347 26.0422 27.347 25.6337 27.0924 25.3821L25.4636 23.7723C25.209 23.5207 24.7957 23.5207 24.5411 23.7723L24.0037 24.3034L23.263 23.5713L22.8284 24.0007L23.5692 24.7328L23.006 25.2894C22.7514 25.5411 22.7514 25.9495 23.006 26.2012L24.6348 27.8113C24.8895 28.0629 25.3027 28.0629 25.5574 27.8113L26.1205 27.2547L26.6044 27.7329L26.0412 28.2895C25.7866 28.5411 25.7866 28.9496 26.0412 29.2012L27.6704 30.811C27.925 31.0626 28.3383 31.0626 28.5929 30.811L30.1279 29.2939C30.3826 29.0422 30.3826 28.6338 30.1279 28.3821L28.4992 26.7724L28.4988 26.772Z" fill="#C1C1C1" />
    <path d="M14.0026 28.9643C14.0026 29.6387 14.5555 30.1851 15.2378 30.1851H16.8544L14.0026 27.3662V28.9639V28.9643Z" fill="#C1C1C1" />
    <path d="M22.132 22.004C21.8827 21.8281 21.5339 21.8506 21.3104 22.0711C21.2148 22.1656 21.156 22.2815 21.1343 22.4038C21.0983 22.6003 21.1567 22.8103 21.3104 22.9622C21.559 23.2079 21.9628 23.2079 22.2121 22.9622C22.4607 22.7158 22.4607 22.3168 22.2121 22.0711C22.1867 22.046 22.1601 22.0238 22.132 22.004Z" fill="#C1C1C1" />
    <path d="M27.983 15.6873C25.8472 13.7156 23.6803 12.5781 23.1434 13.1463C22.9639 13.336 22.9901 13.6927 23.1828 14.1563C23.042 14.7354 23.8386 16.0376 25.1573 17.4043C25.4579 17.7159 25.4518 18.2076 25.1459 18.5137L24.922 18.7376L24.5486 18.3685C23.9836 17.8101 23.017 18.1064 22.8705 18.8827L20.6945 21.0329L19.7758 20.1249L20.3131 19.5938C20.5678 19.3422 20.5678 18.9337 20.3131 18.6821L18.6843 17.0723C18.4297 16.8207 18.0164 16.8207 17.7618 17.0723L17.2244 17.6034L16.7406 17.1252L17.278 16.5941C17.5326 16.3425 17.5326 15.934 17.278 15.6824L15.6488 14.0723C15.3942 13.8206 14.9809 13.8206 14.7263 14.0723L13.8284 14.9597L13.7544 15.0328L13.1912 15.5894C12.9366 15.841 12.9366 16.2495 13.1912 16.5011L14.82 18.1109C15.0746 18.3625 15.4879 18.3625 15.7425 18.1109L16.3057 17.5543L16.7896 18.0325L16.2264 18.5891C15.9718 18.8407 15.9718 19.2492 16.2264 19.5008L17.8555 21.1106C18.1102 21.3622 18.5234 21.3622 18.7781 21.1106L19.3412 20.554L20.26 21.462L18.0669 23.6302L18.0643 23.6328C18.0533 23.6437 18.043 23.6549 18.0324 23.6669C18.0089 23.6947 17.9891 23.7239 17.9732 23.7554C17.8882 23.9122 17.8912 24.1031 17.9834 24.2573L16.8089 25.4177C16.6286 25.2482 16.377 25.1735 16.1315 25.2185C15.5167 25.3318 15.2822 26.0797 15.7243 26.517L15.3262 26.1235C14.9699 25.7714 14.3923 25.7714 14.036 26.1235C13.6796 26.4757 13.6796 27.0465 14.036 27.3987L16.8211 30.1512C17.1774 30.5034 17.755 30.5034 18.1113 30.1512C18.4677 29.7991 18.4677 29.2282 18.1113 28.8761L17.7132 28.4826C18.1553 28.9196 18.9124 28.6878 19.0267 28.0802C19.0726 27.8375 18.9967 27.5893 18.8251 27.4107L19.9993 26.2503C20.1765 26.3538 20.4027 26.3441 20.5708 26.2214C20.5719 26.221 20.5731 26.2203 20.5735 26.2192C20.5799 26.2139 20.5871 26.2087 20.5943 26.203C20.6068 26.1929 20.619 26.182 20.6311 26.1704L23.2621 23.5702L25.4378 21.42C26.2233 21.2752 26.5227 20.3199 25.958 19.7615L25.8951 19.6992L25.3839 19.194L25.6632 18.915C25.955 18.6236 26.4237 18.5969 26.7451 18.8561C28.3147 20.1204 29.7461 20.7854 30.1856 20.4032C30.5028 20.4636 30.7427 20.4291 30.8785 20.2854C31.4155 19.7172 30.1192 17.6586 27.983 15.6869V15.6873ZM22.5908 23.3369C22.1328 23.7899 21.3894 23.7899 20.9309 23.3369C20.729 23.1373 20.6156 22.8819 20.592 22.6209C20.5624 22.2905 20.6748 21.9492 20.9309 21.696C21.3894 21.2433 22.1332 21.2433 22.5908 21.696C22.6204 21.7253 22.6478 21.7556 22.6736 21.7872C23.0474 22.2432 23.0197 22.9134 22.5908 23.3365V23.3369Z" fill="#C1C1C1" />
  </g>
  <defs>
    <filter id="filter0_di_1176_4364" x="0" y="0" width="44" height="44" filterUnits="userSpaceOnUse" color-interpolation-filters="sRGB">
      <feFlood flood-opacity="0" result="BackgroundImageFix" />
      <feColorMatrix in="SourceAlpha" type="matrix" values="0 0 0 0 0 0 0 0 0 0 0 0 0 0 0 0 0 0 127 0" result="hardAlpha" />
      <feOffset />
      <feGaussianBlur stdDeviation="3.5" />
      <feComposite in2="hardAlpha" operator="out" />
      <feColorMatrix type="matrix" values="0 0 0 0 1 0 0 0 0 1 0 0 0 0 1 0 0 0 0.25 0" />
      <feBlend mode="normal" in2="BackgroundImageFix" result="effect1_dropShadow_1176_4364" />
      <feBlend mode="normal" in="SourceGraphic" in2="effect1_dropShadow_1176_4364" result="shape" />
      <feColorMatrix in="SourceAlpha" type="matrix" values="0 0 0 0 0 0 0 0 0 0 0 0 0 0 0 0 0 0 127 0" result="hardAlpha" />
      <feOffset dy="4" />
      <feGaussianBlur stdDeviation="2" />
      <feComposite in2="hardAlpha" operator="arithmetic" k2="-1" k3="1" />
      <feColorMatrix type="matrix" values="0 0 0 0 1 0 0 0 0 1 0 0 0 0 1 0 0 0 0.3 0" />
      <feBlend mode="normal" in2="shape" result="effect2_innerShadow_1176_4364" />
    </filter>
    <linearGradient id="paint0_linear_1176_4364" x1="22" y1="7" x2="22" y2="37" gradientUnits="userSpaceOnUse">
      <stop stop-color="white" />
      <stop offset="1" stop-color="white" />
    </linearGradient>
  </defs>
</svg>
  