<svg width="44" height="44" viewBox="0 0 44 44" fill="none" xmlns="http://www.w3.org/2000/svg">
  <g filter="url(#filter0_di_1178_4355)">
    <path d="M7 22C7 13.7157 13.7157 7 22 7C30.2843 7 37 13.7157 37 22C37 30.2843 30.2843 37 22 37C13.7157 37 7 30.2843 7 22Z" fill="url(#paint0_linear_1178_4355)" shape-rendering="crispEdges" />
    <g clip-path="url(#clip0_1178_4355)">
      <path d="M22 13.8156C22 14.6031 22.0844 14.6875 22.9281 14.6875C24.1656 14.6875 26.5844 15.925 27.5125 17.0219C28.525 18.2312 29.3125 19.975 29.3125 21.0719C29.3125 21.9156 29.3969 22 30.1844 22H31.0562L30.8594 20.6781C30.2969 16.825 27.0906 13.6187 23.2656 13.0844L22 12.9156V13.8156Z" fill="white" />
      <path d="M20.2281 19.1314C19.8063 19.3845 19.3 19.947 19.1031 20.3689C18.8781 20.9032 18.5688 21.1564 18.1469 21.1564C17.6969 21.1564 17.5 21.3251 17.5 21.7189C17.5 22.0845 17.6969 22.2814 18.0344 22.2814C18.3719 22.2814 18.7656 22.6751 19.1031 23.322C20.0594 25.3189 22.675 25.9095 24.3063 24.5314C24.925 23.997 24.925 23.9689 24.4188 23.547C23.9688 23.2095 23.8281 23.2095 23.2938 23.547C22.9844 23.772 22.45 23.9689 22.1406 23.9689C21.3813 23.9689 20.3125 23.2095 20.3125 22.6751C20.3125 22.3657 20.875 22.2814 23.2656 22.2814C24.8969 22.2814 26.2188 22.2251 26.2188 22.1689C26.2188 22.1126 26.3031 21.8595 26.3875 21.6064C26.5281 21.2689 26.3875 21.1564 25.9094 21.1564C25.4313 21.1564 25.1219 20.9032 24.8688 20.3126C24.1656 18.7376 21.8313 18.147 20.2281 19.1314ZM23.2094 20.3689L23.8281 21.0157L22.1688 21.1001C20.2281 21.2126 19.9469 21.0157 20.8469 20.2845C21.7188 19.5814 22.4219 19.6095 23.2094 20.3689Z" fill="white" />
      <path d="M13.0844 23.2657C13.6188 27.0626 16.9375 30.3813 20.7344 30.9157L22 31.0845V30.1845C22 29.397 21.9156 29.3126 21.1 29.3126C19.975 29.3126 18.2313 28.5251 17.0219 27.5126C15.925 26.5845 14.6875 24.1657 14.6875 22.9282C14.6875 22.0845 14.6031 22.0001 13.8156 22.0001H12.9156L13.0844 23.2657Z" fill="white" />
    </g>
  </g>
  <defs>
    <filter id="filter0_di_1178_4355" x="0" y="0" width="44" height="44" filterUnits="userSpaceOnUse" color-interpolation-filters="sRGB">
      <feFlood flood-opacity="0" result="BackgroundImageFix" />
      <feColorMatrix in="SourceAlpha" type="matrix" values="0 0 0 0 0 0 0 0 0 0 0 0 0 0 0 0 0 0 127 0" result="hardAlpha" />
      <feOffset />
      <feGaussianBlur stdDeviation="3.5" />
      <feComposite in2="hardAlpha" operator="out" />
      <feColorMatrix type="matrix" values="0 0 0 0 1 0 0 0 0 1 0 0 0 0 1 0 0 0 0.25 0" />
      <feBlend mode="normal" in2="BackgroundImageFix" result="effect1_dropShadow_1178_4355" />
      <feBlend mode="normal" in="SourceGraphic" in2="effect1_dropShadow_1178_4355" result="shape" />
      <feColorMatrix in="SourceAlpha" type="matrix" values="0 0 0 0 0 0 0 0 0 0 0 0 0 0 0 0 0 0 127 0" result="hardAlpha" />
      <feOffset dy="4" />
      <feGaussianBlur stdDeviation="2" />
      <feComposite in2="hardAlpha" operator="arithmetic" k2="-1" k3="1" />
      <feColorMatrix type="matrix" values="0 0 0 0 1 0 0 0 0 1 0 0 0 0 1 0 0 0 0.3 0" />
      <feBlend mode="normal" in2="shape" result="effect2_innerShadow_1178_4355" />
    </filter>
    <linearGradient id="paint0_linear_1178_4355" x1="22" y1="7" x2="22" y2="37" gradientUnits="userSpaceOnUse">
      <stop stop-color="#2F72D7" />
      <stop offset="1" stop-color="#60E365" />
    </linearGradient>
    <clipPath id="clip0_1178_4355">
      <rect width="18" height="18" fill="white" transform="translate(13 13)" />
    </clipPath>
  </defs>
</svg>
  