<svg width="44" height="44" viewBox="0 0 44 44" fill="none" xmlns="http://www.w3.org/2000/svg">
  <g filter="url(#filter0_di_1178_4600)">
    <path d="M7 22C7 13.7157 13.7157 7 22 7C30.2843 7 37 13.7157 37 22C37 30.2843 30.2843 37 22 37C13.7157 37 7 30.2843 7 22Z" fill="url(#paint0_linear_1178_4600)" shape-rendering="crispEdges" />
    <path d="M22 30.1419C26.4967 30.1419 30.142 26.4966 30.142 21.9999C30.142 17.5032 26.4967 13.8579 22 13.8579C17.5033 13.8579 13.858 17.5032 13.858 21.9999C13.858 26.4966 17.5033 30.1419 22 30.1419Z" fill="#00008B" />
    <path d="M21.5618 17.0563C21.8065 16.9285 22.1789 16.9285 22.4235 17.0563L24.9245 18.3707C25.0706 18.4474 25.1545 18.5642 25.1691 18.6847H25.1728V25.2896C25.1691 25.421 25.0888 25.5488 24.9282 25.6328L22.4272 26.9472C22.1825 27.075 21.8101 27.075 21.5655 26.9472L19.0645 25.6328C18.9038 25.5488 18.8272 25.4173 18.8235 25.2896C18.8235 25.2786 18.8235 25.2676 18.8235 25.2567V18.7249C18.8235 18.7175 18.8235 18.7102 18.8235 18.7029V18.681C18.8345 18.5606 18.9111 18.4474 19.0645 18.367L21.5618 17.0563ZM24.7785 22.3687L22.4272 23.6064C22.1825 23.7342 21.8101 23.7342 21.5655 23.6064L19.2178 22.3723V25.275L21.5655 26.5017C21.6969 26.5711 21.8357 26.6405 21.9708 26.6514H21.9963C22.1351 26.6514 22.2738 26.5821 22.4089 26.5127L24.7785 25.264V22.3687ZM18.4146 25.1435C18.4146 25.3954 18.4438 25.5634 18.5022 25.6802C18.5497 25.7788 18.6227 25.8518 18.7578 25.9431L18.7651 25.9468C18.7943 25.965 18.8272 25.9869 18.8673 26.0125L18.9148 26.0417L19.0572 26.1257L18.8527 26.4616L18.6921 26.3666L18.6665 26.352C18.619 26.3228 18.5825 26.3009 18.546 26.2754C18.1663 26.0198 18.0239 25.7423 18.0203 25.1654V25.1472H18.4146V25.1435ZM21.7992 20.5979C21.7809 20.6052 21.7627 20.6125 21.7481 20.6198L19.247 21.9342C19.2434 21.9342 19.2434 21.9378 19.2397 21.9378H19.2361L19.2397 21.9415L19.247 21.9451L21.7481 23.2595C21.7627 23.2668 21.7809 23.2741 21.7992 23.2814V20.5979ZM22.1898 20.5979V23.2814C22.2081 23.2741 22.2263 23.2668 22.241 23.2595L24.742 21.9451C24.7456 21.9451 24.7456 21.9415 24.7493 21.9415H24.7529L24.7493 21.9378L24.742 21.9342L22.241 20.6198C22.2263 20.6088 22.2081 20.6015 22.1898 20.5979ZM24.7785 19.152L22.5367 20.3313L24.7785 21.5107V19.152ZM19.2178 19.152V21.5033L21.456 20.3277L19.2178 19.152ZM22.241 17.4031C22.1095 17.3338 21.8758 17.3338 21.7444 17.4031L19.2434 18.7175C19.2397 18.7175 19.2397 18.7212 19.2361 18.7212H19.2324L19.2361 18.7249L19.2434 18.7285L21.7444 20.0429C21.8758 20.1123 22.1095 20.1123 22.241 20.0429L24.742 18.7285C24.7456 18.7285 24.7456 18.7249 24.7493 18.7249H24.7529L24.7493 18.7212L24.742 18.7175L22.241 17.4031ZM25.1472 17.5455L25.3079 17.6405L25.3334 17.6551C25.3809 17.6843 25.4174 17.7062 25.4539 17.7317C25.8337 17.9873 25.976 18.2648 25.9797 18.8417V18.8599H25.5854C25.5854 18.608 25.5562 18.4401 25.4977 18.3232C25.4503 18.2246 25.3773 18.1516 25.2422 18.0603L25.2349 18.0567C25.2057 18.0384 25.1728 18.0165 25.1326 17.991L25.0852 17.9618L24.9428 17.8778L25.1472 17.5455Z" fill="white" />
  </g>
  <defs>
    <filter id="filter0_di_1178_4600" x="0" y="0" width="44" height="44" filterUnits="userSpaceOnUse" color-interpolation-filters="sRGB">
      <feFlood flood-opacity="0" result="BackgroundImageFix" />
      <feColorMatrix in="SourceAlpha" type="matrix" values="0 0 0 0 0 0 0 0 0 0 0 0 0 0 0 0 0 0 127 0" result="hardAlpha" />
      <feOffset />
      <feGaussianBlur stdDeviation="3.5" />
      <feComposite in2="hardAlpha" operator="out" />
      <feColorMatrix type="matrix" values="0 0 0 0 1 0 0 0 0 1 0 0 0 0 1 0 0 0 0.25 0" />
      <feBlend mode="normal" in2="BackgroundImageFix" result="effect1_dropShadow_1178_4600" />
      <feBlend mode="normal" in="SourceGraphic" in2="effect1_dropShadow_1178_4600" result="shape" />
      <feColorMatrix in="SourceAlpha" type="matrix" values="0 0 0 0 0 0 0 0 0 0 0 0 0 0 0 0 0 0 127 0" result="hardAlpha" />
      <feOffset dy="4" />
      <feGaussianBlur stdDeviation="2" />
      <feComposite in2="hardAlpha" operator="arithmetic" k2="-1" k3="1" />
      <feColorMatrix type="matrix" values="0 0 0 0 1 0 0 0 0 1 0 0 0 0 1 0 0 0 0.3 0" />
      <feBlend mode="normal" in2="shape" result="effect2_innerShadow_1178_4600" />
    </filter>
    <linearGradient id="paint0_linear_1178_4600" x1="12.5" y1="9.5" x2="30.5" y2="35" gradientUnits="userSpaceOnUse">
      <stop stop-color="#47C7E3" />
      <stop offset="1" stop-color="#2825CC" />
    </linearGradient>
  </defs>
</svg>
  