<svg width="44" height="44" viewBox="0 0 44 44" fill="none" xmlns="http://www.w3.org/2000/svg">
  <g filter="url(#filter0_di_1178_4568)">
    <path d="M7 22C7 13.7157 13.7157 7 22 7C30.2843 7 37 13.7157 37 22C37 30.2843 30.2843 37 22 37C13.7157 37 7 30.2843 7 22Z" fill="url(#paint0_linear_1178_4568)" shape-rendering="crispEdges" />
    <g clip-path="url(#clip0_1178_4568)">
      <path d="M22 30.6579C26.7941 30.6579 30.6804 26.8662 30.6804 22.189C30.6804 17.5118 26.7941 13.7202 22 13.7202C17.2058 13.7202 13.3195 17.5118 13.3195 22.189C13.3195 26.8662 17.2058 30.6579 22 30.6579Z" fill="white" />
      <path d="M22 30.4689C26.7941 30.4689 30.6804 26.6773 30.6804 22.0001C30.6804 17.3229 26.7941 13.5312 22 13.5312C17.2058 13.5312 13.3195 17.3229 13.3195 22.0001C13.3195 26.6773 17.2058 30.4689 22 30.4689Z" fill="black" stroke="white" stroke-width="0.887521" />
      <path fill-rule="evenodd" clip-rule="evenodd" d="M22.3281 19.0344C22.3281 18.8717 22.2034 18.7397 22.0495 18.7397C22.0495 18.7397 22.0493 18.7397 22.0491 18.7397C21.8954 18.7397 21.7706 18.8717 21.7706 19.0344C21.7706 20.2217 21.7706 24.6497 21.7706 25.8372C21.7706 25.9999 21.8954 26.1318 22.0491 26.1318C22.0493 26.1318 22.0495 26.1318 22.0495 26.1318C22.2034 26.1318 22.3281 25.9999 22.3281 25.8372C22.3281 24.6497 22.3281 20.2217 22.3281 19.0344Z" fill="white" />
      <path fill-rule="evenodd" clip-rule="evenodd" d="M21.2024 24.6408C21.0486 24.6406 20.9237 24.7724 20.9236 24.9352C20.9236 24.9352 20.9236 24.9353 20.9236 24.9355C20.9234 25.0981 21.0481 25.2301 21.2019 25.2302C21.6299 25.2306 22.4444 25.2313 22.8723 25.2317C23.0262 25.2318 23.1511 25.1 23.1512 24.9375C23.1512 24.9373 23.1512 24.9371 23.1512 24.9371C23.1513 24.7744 23.0267 24.6424 22.8728 24.6422C22.4448 24.6418 21.6303 24.6411 21.2024 24.6408Z" fill="white" />
      <path fill-rule="evenodd" clip-rule="evenodd" d="M19.8252 20.787C19.6713 20.7869 19.5465 20.9187 19.5464 21.0814C19.5464 21.0814 19.5464 21.0816 19.5464 21.0817C19.5462 21.2443 19.6708 21.3763 19.8247 21.3765C20.6994 21.3772 23.384 21.3796 24.2587 21.3804C24.4125 21.3805 24.5374 21.2487 24.5375 21.0861C24.5375 21.086 24.5375 21.0858 24.5375 21.0858C24.5377 20.923 24.413 20.791 24.2592 20.7909C23.3845 20.7901 20.6999 20.7878 19.8252 20.787Z" fill="white" />
      <path fill-rule="evenodd" clip-rule="evenodd" d="M20.7438 19.2977C20.6349 19.1827 20.4585 19.1829 20.3498 19.2981C20.3498 19.2981 20.3497 19.2983 20.3495 19.2984C20.241 19.4135 20.2411 19.6 20.3501 19.7149C20.95 20.348 22.7488 22.2459 23.3488 22.8789C23.4577 22.9938 23.6342 22.9936 23.7427 22.8786C23.7429 22.8784 23.743 22.8783 23.743 22.8783C23.8517 22.7631 23.8515 22.5766 23.7426 22.4616C23.1426 21.8286 21.3438 19.9307 20.7438 19.2977Z" fill="white" />
      <path fill-rule="evenodd" clip-rule="evenodd" d="M20.3538 22.4665C20.2452 22.5818 20.2455 22.7683 20.3545 22.8832C20.3545 22.8832 20.3546 22.8833 20.3547 22.8834C20.4636 22.9982 20.6401 22.9979 20.7487 22.8826C21.3469 22.2478 23.1407 20.3445 23.739 19.7097C23.8476 19.5944 23.8473 19.4079 23.7384 19.2932C23.7382 19.293 23.7381 19.2929 23.7381 19.2929C23.6291 19.178 23.4527 19.1784 23.3441 19.2936C22.7458 19.9284 20.9521 21.8317 20.3538 22.4665Z" fill="white" />
      <path d="M22.0033 29.5196C26.2274 29.5196 29.6517 26.1789 29.6517 22.0578C29.6517 17.9367 26.2274 14.5959 22.0033 14.5959C17.7793 14.5959 14.355 17.9367 14.355 22.0578C14.355 26.1789 17.7793 29.5196 22.0033 29.5196Z" stroke="#F0827D" stroke-width="0.509853" />
    </g>
  </g>
  <defs>
    <filter id="filter0_di_1178_4568" x="0" y="0" width="44" height="44" filterUnits="userSpaceOnUse" color-interpolation-filters="sRGB">
      <feFlood flood-opacity="0" result="BackgroundImageFix" />
      <feColorMatrix in="SourceAlpha" type="matrix" values="0 0 0 0 0 0 0 0 0 0 0 0 0 0 0 0 0 0 127 0" result="hardAlpha" />
      <feOffset />
      <feGaussianBlur stdDeviation="3.5" />
      <feComposite in2="hardAlpha" operator="out" />
      <feColorMatrix type="matrix" values="0 0 0 0 1 0 0 0 0 1 0 0 0 0 1 0 0 0 0.25 0" />
      <feBlend mode="normal" in2="BackgroundImageFix" result="effect1_dropShadow_1178_4568" />
      <feBlend mode="normal" in="SourceGraphic" in2="effect1_dropShadow_1178_4568" result="shape" />
      <feColorMatrix in="SourceAlpha" type="matrix" values="0 0 0 0 0 0 0 0 0 0 0 0 0 0 0 0 0 0 127 0" result="hardAlpha" />
      <feOffset dy="4" />
      <feGaussianBlur stdDeviation="2" />
      <feComposite in2="hardAlpha" operator="arithmetic" k2="-1" k3="1" />
      <feColorMatrix type="matrix" values="0 0 0 0 1 0 0 0 0 1 0 0 0 0 1 0 0 0 0.3 0" />
      <feBlend mode="normal" in2="shape" result="effect2_innerShadow_1178_4568" />
    </filter>
    <linearGradient id="paint0_linear_1178_4568" x1="22" y1="7" x2="22" y2="37" gradientUnits="userSpaceOnUse">
      <stop stop-color="#7D5A00" />
      <stop offset="1" stop-color="#DDF3D6" />
    </linearGradient>
    <clipPath id="clip0_1178_4568">
      <rect width="18" height="18" fill="white" transform="translate(13 13)" />
    </clipPath>
  </defs>
</svg>
  