<svg width="44" height="44" viewBox="0 0 44 44" fill="none" xmlns="http://www.w3.org/2000/svg">
  <g filter="url(#filter0_di_1178_4561)">
    <path d="M7 22C7 13.7157 13.7157 7 22 7C30.2843 7 37 13.7157 37 22C37 30.2843 30.2843 37 22 37C13.7157 37 7 30.2843 7 22Z" fill="url(#paint0_linear_1178_4561)" shape-rendering="crispEdges" />
    <path fill-rule="evenodd" clip-rule="evenodd" d="M15.7378 21.2588C15.6794 21.3141 15.6423 21.3663 15.6349 21.4031C15.6285 21.4349 15.6163 21.4652 15.6077 21.4706C15.5859 21.484 15.5879 21.6715 15.61 21.6851C15.6199 21.6912 15.628 21.7107 15.628 21.7284C15.628 21.7461 15.6442 21.7752 15.664 21.7931C15.6838 21.811 15.7 21.8352 15.7 21.8468C15.7 21.8585 15.7223 21.8795 15.7495 21.8936C15.7767 21.9076 15.8147 21.9333 15.8339 21.9506C15.8729 21.9858 16.0851 21.9964 16.105 21.9641C16.1111 21.9542 16.1312 21.9461 16.1496 21.9461C16.1995 21.9461 16.3411 21.796 16.3545 21.7289C16.4236 21.3833 16.2773 21.1721 15.9688 21.1721H15.8291L15.7378 21.2588ZM17.068 21.1901C17.068 21.2 17.0556 21.2081 17.0405 21.2081C17.0048 21.2081 16.852 21.3609 16.852 21.3966C16.852 21.4117 16.8439 21.4241 16.834 21.4241C16.8235 21.4241 16.816 21.4837 16.816 21.567C16.816 21.6457 16.8241 21.715 16.834 21.7211C16.8439 21.7272 16.852 21.7447 16.852 21.76C16.852 21.8022 17.0135 21.9461 17.0608 21.9461C17.0834 21.9461 17.1069 21.9542 17.113 21.9641C17.1284 21.9891 30.3096 21.9891 30.325 21.9641C30.3311 21.9542 30.3504 21.9461 30.3678 21.9461C30.4763 21.9461 30.5897 21.7537 30.5904 21.5681C30.591 21.4099 30.4816 21.2081 30.3952 21.2081C30.3813 21.2081 30.37 21.2 30.37 21.1901C30.37 21.1781 28.141 21.1721 23.719 21.1721C19.297 21.1721 17.068 21.1781 17.068 21.1901ZM13.243 22.7381C13.2369 22.748 13.2131 22.7561 13.1901 22.7561C13.1657 22.7561 13.1174 22.7861 13.0742 22.8281L13 22.9001V23.135C13 23.3849 13.0284 23.4556 13.1294 23.4575C13.1462 23.4578 13.1649 23.4662 13.171 23.4761C13.184 23.4973 13.504 23.5008 13.504 23.4799C13.504 23.472 13.5301 23.4578 13.562 23.4484C13.6899 23.4103 13.7693 23.2028 13.7285 23.013C13.6921 22.8437 13.311 22.628 13.243 22.7381ZM14.467 22.7381C14.4609 22.748 14.4401 22.7561 14.4209 22.7561C14.4017 22.7561 14.386 22.7642 14.386 22.7741C14.386 22.784 14.3742 22.7921 14.3598 22.7921C14.2815 22.7921 14.1737 22.9798 14.1744 23.1152C14.175 23.2685 14.2865 23.4581 14.376 23.4581C14.3902 23.4581 14.4069 23.4662 14.413 23.4761C14.4204 23.488 16.0782 23.4941 19.3281 23.4941C22.5854 23.4941 24.232 23.4881 24.232 23.4761C24.232 23.4662 24.2565 23.4581 24.2864 23.4581C24.3274 23.4581 24.345 23.4474 24.3573 23.4149C24.3664 23.3911 24.3824 23.3663 24.3929 23.3598C24.4034 23.3533 24.412 23.3323 24.412 23.313C24.412 23.2938 24.4201 23.2781 24.43 23.2781C24.4653 23.2781 24.4512 22.9951 24.4122 22.9184C24.3739 22.8434 24.2742 22.7561 24.2269 22.7561C24.2111 22.7561 24.1931 22.748 24.187 22.7381C24.1796 22.7262 22.5402 22.7201 19.327 22.7201C16.1138 22.7201 14.4744 22.7262 14.467 22.7381ZM15.961 24.2861C15.9549 24.296 15.9225 24.3041 15.889 24.3041C15.8555 24.3041 15.8231 24.3122 15.817 24.3221C15.8109 24.332 15.7938 24.3401 15.7791 24.3401C15.7486 24.3401 15.664 24.4189 15.664 24.4473C15.664 24.4577 15.6559 24.4661 15.646 24.4661C15.6361 24.4661 15.628 24.4864 15.628 24.5111C15.628 24.5359 15.6199 24.5561 15.61 24.5561C15.5998 24.5561 15.592 24.6071 15.592 24.6731C15.592 24.7391 15.5998 24.7901 15.61 24.7901C15.6199 24.7901 15.628 24.8045 15.628 24.8221C15.628 24.8652 15.8017 25.0421 15.8441 25.0421C15.8627 25.0421 15.8829 25.0502 15.889 25.0601C15.8951 25.07 15.9356 25.0781 15.979 25.0781C16.0224 25.0781 16.0629 25.07 16.069 25.0601C16.0751 25.0502 16.096 25.0421 16.1153 25.0421C16.1962 25.0421 16.3369 24.9132 16.355 24.8225C16.3916 24.6398 16.3406 24.3958 16.258 24.3581C16.2431 24.3513 16.2129 24.3363 16.1907 24.3249C16.1686 24.3135 16.1225 24.3041 16.0883 24.3041C16.0541 24.3041 16.0211 24.296 16.015 24.2861C16.0089 24.2762 15.9967 24.2681 15.988 24.2681C15.9793 24.2681 15.9671 24.2762 15.961 24.2861ZM17.032 24.3221C17.032 24.332 17.013 24.3401 16.9898 24.3401C16.9509 24.3401 16.888 24.3887 16.888 24.4188C16.888 24.4258 16.873 24.4478 16.8546 24.4675C16.7945 24.532 16.8098 24.8621 16.8729 24.8621C16.8812 24.8621 16.888 24.8746 16.888 24.8899C16.888 24.9259 16.9682 25.0061 17.0042 25.0061C17.0195 25.0061 17.032 25.0142 17.032 25.0241C17.032 25.034 17.0563 25.0421 17.086 25.0421C17.1157 25.0421 17.14 25.0502 17.14 25.0601C17.14 25.0721 19.09 25.0781 22.954 25.0781C26.818 25.0781 28.768 25.0721 28.768 25.0601C28.768 25.0502 28.7923 25.0421 28.822 25.0421C28.8517 25.0421 28.876 25.0354 28.876 25.0272C28.876 25.0189 28.8955 25.0018 28.9194 24.989C29.0498 24.9192 29.1284 24.6378 29.0557 24.5014C29.0124 24.4202 28.9394 24.3401 28.9086 24.3401C28.8918 24.3401 28.8731 24.332 28.867 24.3221C28.8596 24.3102 26.8658 24.3041 22.9439 24.3041C19.0147 24.3041 17.032 24.3101 17.032 24.3221ZM13.9 25.8341C13.9 25.844 13.8838 25.8521 13.864 25.8521C13.8442 25.8521 13.828 25.8602 13.828 25.8701C13.828 25.88 13.8148 25.8881 13.7986 25.8881C13.7655 25.8881 13.7086 25.9471 13.6923 25.9983C13.6864 26.0169 13.674 26.0321 13.6648 26.0321C13.6556 26.0321 13.648 26.0478 13.648 26.067C13.648 26.0863 13.6399 26.107 13.63 26.1131C13.592 26.1366 13.6291 26.4101 13.6704 26.4101C13.6779 26.4101 13.684 26.4226 13.684 26.4379C13.684 26.5506 14.1039 26.7005 14.161 26.6081C14.1671 26.5982 14.1841 26.5901 14.1987 26.5901C14.3279 26.5901 14.5077 26.1412 14.404 26.0771C14.3941 26.071 14.386 26.0541 14.386 26.0396C14.386 26.0053 14.2329 25.8521 14.1985 25.8521C14.184 25.8521 14.1671 25.844 14.161 25.8341C14.1549 25.8242 14.0936 25.8161 14.0249 25.8161C13.9536 25.8161 13.9 25.8239 13.9 25.8341ZM15.124 25.8341C15.124 25.844 15.1067 25.8521 15.0856 25.8521C15.0357 25.8521 14.89 25.9978 14.89 26.0477C14.89 26.0688 14.8819 26.0861 14.872 26.0861C14.8616 26.0861 14.854 26.1428 14.854 26.22C14.854 26.2937 14.8621 26.359 14.872 26.3651C14.8819 26.3712 14.89 26.3896 14.89 26.4058C14.89 26.4456 15.0451 26.5901 15.0879 26.5901C15.1066 26.5901 15.1269 26.5982 15.133 26.6081C15.1403 26.62 15.9516 26.6261 17.5084 26.6261H19.8726L19.9508 26.5856C19.9938 26.5633 20.0553 26.5172 20.0875 26.4831L20.146 26.4211V26.2204V26.0198L20.0668 25.936C20.0232 25.8899 19.9751 25.8521 19.9598 25.8521C19.9446 25.8521 19.9271 25.844 19.921 25.8341C19.9137 25.8223 19.0928 25.8161 17.5169 25.8161C15.9336 25.8161 15.124 25.8222 15.124 25.8341ZM20.978 25.8533C20.8987 25.8999 20.794 26.0064 20.794 26.0405C20.794 26.0557 20.7859 26.0681 20.776 26.0681C20.7654 26.0681 20.758 26.1311 20.758 26.2211C20.758 26.3111 20.7654 26.3741 20.776 26.3741C20.7859 26.3741 20.794 26.3847 20.794 26.3976C20.794 26.433 20.9037 26.5456 20.9798 26.5884L21.0471 26.6261H25.8958H30.7446L30.8228 26.5856C30.9823 26.503 30.9994 26.4676 30.9997 26.2185C31 25.9734 30.9843 25.9394 30.8316 25.8536L30.7649 25.8161L25.901 25.8174C21.1336 25.8186 21.0358 25.8194 20.978 25.8533ZM21.748 27.3821C21.748 27.392 21.7212 27.4001 21.6885 27.4001C21.6224 27.4001 21.496 27.4993 21.496 27.551C21.496 27.567 21.4879 27.5801 21.478 27.5801C21.4681 27.5801 21.46 27.5958 21.46 27.615C21.46 27.6343 21.4519 27.655 21.442 27.6611C21.4321 27.6672 21.424 27.7204 21.424 27.7792C21.424 27.8385 21.432 27.8861 21.442 27.8861C21.4519 27.8861 21.46 27.9024 21.46 27.9223C21.46 28.0311 21.5967 28.1543 21.7489 28.1828C21.8784 28.207 22.126 28.0998 22.126 28.0196C22.126 28.0056 22.1328 27.9941 22.1411 27.9941C22.1494 27.9941 22.1656 27.9735 22.1771 27.9483C22.2029 27.8918 22.2052 27.6161 22.18 27.6161C22.1701 27.6161 22.162 27.6055 22.162 27.5926C22.162 27.563 22.047 27.4361 22.0201 27.4361C22.009 27.4361 22 27.428 22 27.4181C22 27.4082 21.9802 27.4001 21.9561 27.4001C21.9319 27.4001 21.9071 27.392 21.901 27.3821C21.8949 27.3722 21.8579 27.3641 21.8189 27.3641C21.7799 27.3641 21.748 27.3722 21.748 27.3821ZM22.945 27.3821C22.9389 27.392 22.9181 27.4001 22.8989 27.4001C22.8797 27.4001 22.864 27.4082 22.864 27.4181C22.864 27.428 22.8516 27.4361 22.8364 27.4361C22.8212 27.4361 22.7807 27.4642 22.7464 27.4985C22.7121 27.5328 22.684 27.5733 22.684 27.5885C22.684 27.6037 22.6759 27.6161 22.666 27.6161C22.6396 27.6161 22.6435 27.8966 22.6705 27.9442C22.7087 28.0114 22.7978 28.0978 22.8695 28.1371L22.938 28.1747H25.9523C27.6102 28.1747 28.988 28.1693 29.0143 28.1627C29.0848 28.145 29.218 28.0267 29.218 27.9817C29.218 27.9687 29.2261 27.9581 29.236 27.9581C29.2459 27.9581 29.254 27.9343 29.254 27.9052C29.254 27.8761 29.2621 27.8472 29.272 27.8411C29.2819 27.835 29.29 27.8026 29.29 27.7691C29.29 27.7356 29.2819 27.7032 29.272 27.6971C29.2621 27.691 29.254 27.6703 29.254 27.651C29.254 27.6318 29.2459 27.6161 29.236 27.6161C29.2261 27.6161 29.218 27.6017 29.218 27.5841C29.218 27.5665 29.2018 27.5404 29.182 27.5261C29.1622 27.5119 29.146 27.4911 29.146 27.4799C29.146 27.4426 29.0807 27.4001 29.0231 27.4001C28.9917 27.4001 28.966 27.392 28.966 27.3821C28.966 27.3702 27.9524 27.3641 25.9611 27.3641C23.9772 27.3641 22.9523 27.3702 22.945 27.3821ZM18.076 28.9661C18.076 28.976 18.0655 28.9841 18.0526 28.9841C18.0197 28.9841 17.8915 29.1111 17.8645 29.1703C17.8376 29.2295 17.8339 29.4881 17.86 29.4881C17.8699 29.4881 17.878 29.5039 17.878 29.5232C17.878 29.5543 17.9783 29.6501 18.0109 29.6501C18.0179 29.6501 18.0409 29.6663 18.0621 29.6861C18.1152 29.7356 18.3568 29.7387 18.4101 29.6906C18.4293 29.6733 18.4671 29.6477 18.4941 29.6338C18.607 29.5756 18.674 29.3114 18.612 29.1695C18.5841 29.1058 18.4626 28.9841 18.427 28.9841C18.4121 28.9841 18.4 28.976 18.4 28.9661C18.4 28.9555 18.334 28.9481 18.238 28.9481C18.142 28.9481 18.076 28.9555 18.076 28.9661ZM19.282 28.9661C19.282 28.976 19.2702 28.9841 19.2558 28.9841C19.2219 28.9841 19.138 29.068 19.138 29.1019C19.138 29.1163 19.1299 29.1281 19.12 29.1281C19.1101 29.1281 19.102 29.1524 19.102 29.1821C19.102 29.2118 19.0939 29.2361 19.084 29.2361C19.0741 29.2361 19.066 29.2721 19.066 29.316C19.066 29.36 19.0741 29.401 19.084 29.4071C19.0939 29.4132 19.102 29.433 19.102 29.4511C19.102 29.5184 19.1973 29.6501 19.246 29.6501C19.2567 29.6501 19.2829 29.6663 19.3041 29.6861C19.3481 29.7271 25.42 29.7449 25.42 29.7041C25.42 29.6942 25.4362 29.6861 25.456 29.6861C25.4758 29.6861 25.492 29.68 25.492 29.6725C25.492 29.665 25.5164 29.6481 25.5463 29.6349C25.6457 29.5909 25.708 29.4735 25.708 29.3301C25.708 29.2066 25.6719 29.0921 25.6329 29.0921C25.6228 29.0921 25.5918 29.0678 25.564 29.0381C25.5362 29.0084 25.5006 28.9841 25.4848 28.9841C25.469 28.9841 25.456 28.976 25.456 28.9661C25.456 28.9542 24.415 28.9481 22.369 28.9481C20.323 28.9481 19.282 28.9542 19.282 28.9661Z" fill="#E4147C" />
    <path fill-rule="evenodd" clip-rule="evenodd" d="M23.1585 14.2964C23.15 14.3047 23.0904 14.3134 23.026 14.3158C22.9617 14.3181 22.905 14.326 22.9 14.3333C22.8951 14.3406 22.8546 14.3488 22.81 14.3515C22.7655 14.3542 22.7189 14.364 22.7065 14.3734C22.6915 14.3848 22.684 14.3831 22.684 14.368C22.684 14.3513 22.6779 14.3507 22.6598 14.3658C22.6465 14.3768 22.5878 14.389 22.5293 14.3929C22.3922 14.402 22.306 14.4219 22.306 14.4445C22.306 14.4544 22.2923 14.4513 22.2756 14.4378C22.2549 14.421 22.2495 14.4202 22.2587 14.4355C22.2724 14.4585 22.2672 14.4603 22.1764 14.4655C22.1497 14.467 22.122 14.4741 22.1149 14.4811C22.1079 14.4882 22.0881 14.494 22.0711 14.494C22.0541 14.494 22.0175 14.5058 21.9899 14.5201C21.9622 14.5345 21.9329 14.5421 21.9248 14.5371C21.9167 14.532 21.91 14.5365 21.91 14.547C21.91 14.5575 21.8954 14.566 21.8774 14.566C21.8595 14.566 21.8113 14.5822 21.7703 14.602C21.7293 14.6218 21.6832 14.638 21.6679 14.638C21.6526 14.638 21.64 14.6461 21.64 14.656C21.64 14.6659 21.6278 14.674 21.6128 14.674C21.584 14.674 21.5119 14.7098 21.495 14.7325C21.4895 14.7398 21.4638 14.7476 21.4378 14.7498C21.4119 14.7519 21.3946 14.7601 21.3994 14.7679C21.4042 14.7757 21.3875 14.782 21.3621 14.782C21.3368 14.782 21.316 14.7882 21.316 14.7956C21.316 14.817 21.2034 14.8615 21.1585 14.8578C21.1363 14.8559 21.118 14.8625 21.118 14.8722C21.118 14.882 21.1055 14.89 21.0903 14.89C21.0621 14.89 21.0356 14.908 20.9745 14.9685C20.956 14.9868 20.9329 14.997 20.9233 14.9911C20.9137 14.9851 20.9008 14.9932 20.8948 15.009C20.8885 15.0254 20.8722 15.0334 20.8569 15.0275C20.8421 15.0218 20.83 15.025 20.83 15.0346C20.83 15.0442 20.8183 15.052 20.8039 15.052C20.7896 15.052 20.7714 15.0626 20.7634 15.0754C20.7555 15.0883 20.7103 15.1212 20.663 15.1485C20.6157 15.1758 20.5672 15.2139 20.5552 15.2331C20.5432 15.2523 20.5209 15.268 20.5057 15.268C20.4905 15.268 20.4663 15.2842 20.452 15.304C20.4378 15.3238 20.4076 15.34 20.3851 15.34C20.3625 15.34 20.344 15.3462 20.344 15.3536C20.344 15.3612 20.3197 15.378 20.2899 15.3912C20.2602 15.4044 20.2396 15.4213 20.2443 15.4289C20.249 15.4364 20.2328 15.4533 20.2084 15.4664C20.184 15.4795 20.164 15.4969 20.164 15.5051C20.164 15.5133 20.1516 15.52 20.1365 15.52C20.1213 15.52 20.1035 15.5342 20.0969 15.5515C20.0817 15.5915 19.9546 15.7107 19.8895 15.746C19.8623 15.7608 19.84 15.7814 19.84 15.7916C19.84 15.8018 19.8334 15.8061 19.8252 15.801C19.811 15.7922 19.7617 15.8383 19.7546 15.8672C19.7526 15.875 19.7164 15.9083 19.674 15.9412C19.6317 15.9741 19.5991 16.0103 19.6015 16.0216C19.604 16.0328 19.5925 16.042 19.576 16.042C19.5596 16.042 19.5508 16.0468 19.5565 16.0525C19.5677 16.0636 19.5552 16.0807 19.4535 16.1933C19.4186 16.2319 19.39 16.2685 19.39 16.2746C19.39 16.2806 19.3719 16.2935 19.3499 16.3033C19.3278 16.313 19.3007 16.3393 19.2896 16.3617C19.2786 16.384 19.242 16.4326 19.2083 16.4696C19.1746 16.5067 19.146 16.5431 19.1448 16.5505C19.1436 16.558 19.1415 16.5767 19.1403 16.5921C19.139 16.6076 19.1299 16.6152 19.12 16.609C19.1101 16.6029 19.1016 16.6126 19.1011 16.6305C19.1007 16.6484 19.0684 16.6954 19.0295 16.735C18.9906 16.7746 18.9495 16.8293 18.9382 16.8565C18.9269 16.8838 18.9115 16.906 18.9039 16.906C18.8964 16.906 18.8853 16.9202 18.8793 16.9375C18.8733 16.9549 18.8521 16.9933 18.832 17.023C18.812 17.0527 18.7907 17.0912 18.7847 17.1085C18.7788 17.1259 18.7662 17.14 18.7569 17.14C18.7475 17.14 18.7445 17.1475 18.7501 17.1565C18.7557 17.1656 18.7517 17.1758 18.7412 17.1793C18.7248 17.1848 18.7129 17.2171 18.7074 17.2705C18.7067 17.278 18.6939 17.284 18.679 17.284C18.6557 17.284 18.6446 17.3364 18.6536 17.4035C18.6544 17.4099 18.6483 17.42 18.6401 17.426C18.6162 17.4435 18.58 17.515 18.58 17.5448C18.58 17.5598 18.5719 17.572 18.562 17.572C18.5521 17.572 18.544 17.5886 18.544 17.6088C18.544 17.629 18.5278 17.6629 18.508 17.6842C18.4882 17.7054 18.472 17.7375 18.472 17.7554C18.472 17.7734 18.4639 17.788 18.454 17.788C18.4441 17.788 18.436 17.8083 18.436 17.833C18.436 17.8578 18.4279 17.878 18.418 17.878C18.4081 17.878 18.4 17.8988 18.4 17.9241C18.4 17.9559 18.3931 17.9662 18.3775 17.9572C18.3652 17.9501 18.3607 17.9505 18.3676 17.9582C18.3786 17.9704 18.36 18.0346 18.31 18.157C18.2815 18.2269 18.2685 18.2655 18.2618 18.3006C18.2581 18.3203 18.2471 18.3442 18.2375 18.3537C18.2149 18.3764 18.2148 18.4054 18.2375 18.3914C18.2471 18.3855 18.2395 18.4151 18.2206 18.4573C18.1958 18.5127 18.1916 18.5404 18.2053 18.5571C18.2159 18.5697 18.217 18.58 18.2079 18.58C18.1988 18.58 18.1893 18.6104 18.1869 18.6475C18.1844 18.6846 18.1746 18.7227 18.1652 18.7321C18.1557 18.7415 18.148 18.7881 18.148 18.8356C18.148 18.8832 18.1413 18.922 18.1331 18.922C18.1249 18.922 18.1164 18.9686 18.1141 19.0255C18.1119 19.0825 18.1024 19.1317 18.093 19.135C18.0837 19.1384 18.076 19.1966 18.076 19.2645C18.076 19.3324 18.0692 19.3922 18.0608 19.3973C18.0164 19.4248 18.0416 20.11 18.0871 20.11C18.1008 20.11 18.112 20.1249 18.112 20.143C18.112 20.1611 18.1323 20.1868 18.157 20.2C18.1818 20.2133 18.202 20.2309 18.202 20.2391C18.202 20.2473 20.6725 20.254 23.692 20.254C27.3401 20.254 29.182 20.248 29.182 20.236C29.182 20.2261 29.1964 20.218 29.2141 20.218C29.2317 20.218 29.2578 20.2018 29.272 20.182C29.2863 20.1622 29.3084 20.146 29.321 20.146C29.3337 20.146 29.3441 20.1359 29.3441 20.1235C29.3442 20.1112 29.3551 20.0803 29.3682 20.0551C29.394 20.0056 29.4 19.674 29.3755 19.6496C29.3681 19.6421 29.362 19.5528 29.362 19.4511C29.362 19.3472 29.3542 19.2613 29.344 19.255C29.3341 19.2489 29.326 19.1958 29.326 19.137C29.326 19.0777 29.318 19.03 29.308 19.03C29.2981 19.03 29.29 18.99 29.29 18.9411C29.29 18.8922 29.2819 18.8472 29.272 18.841C29.2621 18.8349 29.254 18.7944 29.254 18.751C29.254 18.7077 29.2459 18.6672 29.236 18.661C29.2261 18.6549 29.218 18.6261 29.218 18.597C29.218 18.5679 29.2099 18.544 29.2 18.544C29.1901 18.544 29.182 18.5202 29.182 18.4911C29.182 18.462 29.1739 18.4332 29.164 18.427C29.1541 18.4209 29.146 18.3685 29.146 18.3105C29.146 18.2525 29.1396 18.2024 29.1318 18.199C29.124 18.1957 29.1042 18.1525 29.0879 18.103C29.0468 17.978 29.0127 17.8887 29.002 17.878C28.9934 17.8694 28.9841 17.8385 28.9768 17.7943C28.975 17.783 28.9637 17.762 28.9519 17.7477C28.94 17.7334 28.9357 17.7164 28.9422 17.7099C28.9487 17.7034 28.9446 17.698 28.9331 17.698C28.9215 17.698 28.9118 17.6839 28.9115 17.6665C28.9111 17.6492 28.8993 17.6197 28.885 17.6009C28.8708 17.5821 28.8634 17.5599 28.8687 17.5514C28.8739 17.5429 28.8709 17.536 28.862 17.536C28.8531 17.536 28.8351 17.5038 28.8221 17.4643C28.8091 17.4249 28.7835 17.379 28.7652 17.3625C28.747 17.346 28.732 17.3201 28.732 17.3049C28.732 17.2898 28.7145 17.2587 28.693 17.2359C28.6716 17.213 28.6528 17.1801 28.6514 17.1627C28.6476 17.1174 28.5869 16.996 28.568 16.996C28.5592 16.996 28.552 16.9798 28.552 16.96C28.552 16.9402 28.5459 16.924 28.5384 16.924C28.5309 16.924 28.5141 16.8997 28.5009 16.87C28.4877 16.8402 28.4695 16.8204 28.4605 16.826C28.4514 16.8316 28.444 16.8201 28.444 16.8003C28.444 16.7803 28.4282 16.7594 28.408 16.753C28.3882 16.7467 28.372 16.7311 28.372 16.7183C28.372 16.7054 28.3479 16.6675 28.3183 16.634C28.2888 16.6005 28.2645 16.567 28.2643 16.5595C28.2642 16.5521 28.2478 16.5298 28.228 16.51C28.2082 16.4902 28.192 16.4617 28.192 16.4466C28.192 16.4175 28.0538 16.2701 28.0105 16.253C27.9964 16.2474 27.9944 16.2423 28.006 16.2415C28.0175 16.2407 27.9547 16.1682 27.8665 16.0804C27.7782 15.9925 27.706 15.9152 27.706 15.9086C27.706 15.89 27.62 15.808 27.6005 15.808C27.591 15.808 27.5628 15.7837 27.5378 15.754C27.5128 15.7243 27.4855 15.7 27.4772 15.7C27.4688 15.7 27.4503 15.6838 27.436 15.664C27.4218 15.6442 27.4031 15.628 27.3946 15.628C27.3743 15.628 27.238 15.4858 27.238 15.4646C27.238 15.4555 27.2244 15.448 27.2078 15.448C27.1912 15.448 27.155 15.4217 27.1274 15.3895C27.0852 15.3405 27.0741 15.3354 27.0588 15.358C27.0488 15.3729 27.0404 15.3763 27.0403 15.3656C27.0402 15.3549 27.0179 15.3346 26.9909 15.3206C26.9638 15.3065 26.9198 15.2744 26.893 15.2492C26.8662 15.224 26.8216 15.1916 26.7937 15.1773C26.7659 15.163 26.7299 15.1371 26.7139 15.1197C26.6979 15.1023 26.6756 15.088 26.6644 15.088C26.6532 15.088 26.644 15.0818 26.644 15.0741C26.644 15.057 26.5165 14.9873 26.4965 14.9935C26.4886 14.996 26.482 14.9908 26.482 14.9818C26.482 14.9729 26.4574 14.957 26.4272 14.9465C26.3971 14.9359 26.3493 14.9109 26.321 14.8907C26.2926 14.8706 26.2464 14.8539 26.2182 14.8536C26.1901 14.8534 26.1468 14.8374 26.122 14.818C26.0973 14.7987 26.0629 14.7827 26.0455 14.7825C26.0282 14.7822 26.014 14.7753 26.014 14.7669C26.014 14.7586 25.9796 14.7409 25.9375 14.7276C25.8955 14.7142 25.8395 14.6886 25.8132 14.6707C25.787 14.6527 25.7424 14.6374 25.7142 14.6366C25.6861 14.6358 25.6736 14.631 25.6865 14.6258C25.6994 14.6206 25.6265 14.5887 25.5245 14.5549C25.4225 14.5211 25.3228 14.4855 25.303 14.4756C25.2832 14.4657 25.2448 14.456 25.2175 14.454C25.1903 14.4519 25.168 14.4432 25.168 14.4346C25.168 14.4261 25.1579 14.4226 25.1455 14.427C25.1332 14.4313 25.1043 14.4279 25.0814 14.4194C25.0584 14.411 24.9776 14.3995 24.9019 14.394C24.8261 14.3884 24.7557 14.377 24.7456 14.3687C24.7354 14.3604 24.6825 14.349 24.628 14.3434C24.4094 14.321 24.2753 14.3014 24.2426 14.287C24.2155 14.2752 24.2114 14.2774 24.2235 14.2975C24.2358 14.3178 24.2337 14.3188 24.213 14.3024C24.1822 14.2779 23.1833 14.2722 23.1585 14.2964Z" fill="#54CCCB" />
    <path fill-rule="evenodd" clip-rule="evenodd" d="M19.6817 15.9076C19.6519 15.9414 19.6766 15.9407 19.7219 15.9064C19.7464 15.8878 19.7491 15.8802 19.7309 15.8806C19.7166 15.881 19.6945 15.8932 19.6817 15.9076Z" fill="#54D0A4" />
  </g>
  <defs>
    <filter id="filter0_di_1178_4561" x="0" y="0" width="44" height="44" filterUnits="userSpaceOnUse" color-interpolation-filters="sRGB">
      <feFlood flood-opacity="0" result="BackgroundImageFix" />
      <feColorMatrix in="SourceAlpha" type="matrix" values="0 0 0 0 0 0 0 0 0 0 0 0 0 0 0 0 0 0 127 0" result="hardAlpha" />
      <feOffset />
      <feGaussianBlur stdDeviation="3.5" />
      <feComposite in2="hardAlpha" operator="out" />
      <feColorMatrix type="matrix" values="0 0 0 0 1 0 0 0 0 1 0 0 0 0 1 0 0 0 0.25 0" />
      <feBlend mode="normal" in2="BackgroundImageFix" result="effect1_dropShadow_1178_4561" />
      <feBlend mode="normal" in="SourceGraphic" in2="effect1_dropShadow_1178_4561" result="shape" />
      <feColorMatrix in="SourceAlpha" type="matrix" values="0 0 0 0 0 0 0 0 0 0 0 0 0 0 0 0 0 0 127 0" result="hardAlpha" />
      <feOffset dy="4" />
      <feGaussianBlur stdDeviation="2" />
      <feComposite in2="hardAlpha" operator="arithmetic" k2="-1" k3="1" />
      <feColorMatrix type="matrix" values="0 0 0 0 1 0 0 0 0 1 0 0 0 0 1 0 0 0 0.3 0" />
      <feBlend mode="normal" in2="shape" result="effect2_innerShadow_1178_4561" />
    </filter>
    <linearGradient id="paint0_linear_1178_4561" x1="7" y1="17.5" x2="34" y2="31" gradientUnits="userSpaceOnUse">
      <stop stop-color="#FFBE73" />
      <stop offset="1" stop-color="#E6FF4F" />
    </linearGradient>
  </defs>
</svg>
  