<svg width="25" height="25" viewBox="0 0 25 25" fill="none" xmlns="http://www.w3.org/2000/svg">
  <path
    d="M16.0013 17.1773H8.96679V10.1446L3.94729 5.12427C2.04385 7.3064 0.996666 10.1047 1.00001 13C0.998894 14.5762 1.3086 16.1371 1.91142 17.5935C2.51424 19.0499 3.39835 20.3733 4.51317 21.4878C5.62798 22.6023 6.95164 23.4862 8.40843 24.0888C9.86523 24.6915 11.4266 25.0012 13.0032 25C15.8975 25.0015 18.6939 23.9522 20.8725 22.0471L16.0013 17.1773Z"
    fill="white" />
  <path
    d="M10.1257 8.98591H17.1603V16.0186L22.0336 20.8906C23.9481 18.7079 25.0025 15.9031 25 13.0001C24.9948 9.82009 23.7295 6.77171 21.4809 4.52255C19.2324 2.27339 16.1839 1.00674 13.0032 1.00002C10.0969 0.994875 7.28855 2.04924 5.10413 3.9656L10.1257 8.98591Z"
    fill="white" />
</svg>
  