<svg width="44" height="44" viewBox="0 0 44 44" fill="none" xmlns="http://www.w3.org/2000/svg">
  <g filter="url(#filter0_di_1178_4498)">
    <path d="M7 22C7 13.7157 13.7157 7 22 7C30.2843 7 37 13.7157 37 22C37 30.2843 30.2843 37 22 37C13.7157 37 7 30.2843 7 22Z" fill="url(#paint0_linear_1178_4498)" shape-rendering="crispEdges" />
    <path d="M30.1318 16.3174C29.9503 15.6306 29.3672 14.9438 28.3175 14.1792C27.4752 13.5701 26.581 13.2202 25.8683 13.2202C25.7257 13.2202 25.5961 13.2332 25.4665 13.2591C25.1426 13.3239 24.8575 13.5571 24.676 13.907C24.4557 14.3217 24.4039 14.879 24.5464 15.2159C24.5983 15.3196 24.6631 15.4492 24.7408 15.5658C24.054 15.9805 23.6652 16.0971 23.6134 16.1101C25.4017 16.7062 26.892 17.9502 27.8251 19.5701L27.838 19.4146C27.8769 18.987 28.0065 18.4945 28.1879 17.9891C28.3693 18.0409 28.5508 18.0669 28.7322 18.0669C29.2117 18.0669 29.6264 17.8725 29.8855 17.5226C30.1447 17.1727 30.2484 16.7062 30.1318 16.3174Z" fill="#5E12A0" />
    <path d="M28.2656 17.6133C29.4449 17.9372 29.9244 17.0301 29.7689 16.421C29.6004 15.812 29.0561 15.1899 28.0971 14.4902C27.1382 13.7904 26.1663 13.5053 25.5442 13.6349C24.9222 13.7645 24.7408 14.7105 24.8963 15.0733C24.9611 15.2159 25.1036 15.4232 25.298 15.6565C25.0518 15.8249 24.8185 15.9545 24.6241 16.0712C25.8164 16.6025 26.8531 17.4318 27.6306 18.4686C27.7213 18.1187 27.8509 17.8077 27.9676 17.5355C28.0583 17.5485 28.1619 17.5744 28.2656 17.6133Z" fill="url(#paint1_radial_1178_4498)" />
    <path d="M21.514 30.3131C25.5147 30.3131 28.758 27.0698 28.758 23.069C28.758 19.0682 25.5147 15.825 21.514 15.825C17.5132 15.825 14.2699 19.0682 14.2699 23.069C14.2699 27.0698 17.5132 30.3131 21.514 30.3131Z" fill="url(#paint2_radial_1178_4498)" />
    <path opacity="0.6" d="M29.1727 15.825C28.1878 14.7883 27.3585 14.5162 26.3606 14.2959C25.5831 14.1145 25.7904 13.6738 26.7364 13.7646C26.2829 13.6091 25.8552 13.5702 25.5442 13.635C24.9222 13.7646 24.7407 14.7106 24.8962 15.0734C24.961 15.216 25.1036 15.4233 25.298 15.6566C24.9481 15.8898 24.65 16.0583 24.4038 16.1879C24.5204 16.2397 24.663 16.3045 24.8315 16.3952C25.2721 16.6285 25.7515 17.0173 25.7515 17.0173C25.0258 16.3952 25.1813 16.1101 26.1792 15.4103C26.4902 15.19 27.0604 15.216 27.5917 15.4881C28.123 15.7602 28.7451 16.4471 28.7451 16.4471L28.1489 17.5875C28.1878 17.6004 28.2267 17.6134 28.2656 17.6263C28.6414 17.73 28.9394 17.7041 29.1727 17.6134C29.4448 17.4449 30.1576 16.8747 29.1727 15.825Z" fill="#A98698" />
    <path d="M26.3477 14.9178C26.6069 15.0215 26.9438 15.2029 27.3585 15.4751C27.851 15.7991 28.2786 16.1619 28.5507 16.447C28.0972 17.0431 27.7991 17.8595 27.6177 18.4297C27.7084 18.5593 27.8121 18.6889 27.9028 18.8185C27.9935 18.4945 28.149 18.015 28.3564 17.5356C28.4082 17.5485 28.473 17.5485 28.5378 17.5485C28.6933 17.5485 28.8747 17.5226 29.0173 17.406C29.1209 17.3282 29.2376 17.1857 29.2246 16.9265C29.2246 16.6803 29.0302 16.3692 28.6285 15.9934C28.3434 15.7213 27.9546 15.4232 27.5659 15.1511C26.4514 14.4124 25.6739 14.2051 25.324 14.555C25.0907 14.7883 25.1166 15.0733 25.1944 15.2807C24.7797 15.5528 24.4298 15.7472 24.1965 15.8768C24.352 15.9286 24.4946 15.9934 24.6501 16.0582C25.0648 15.8379 25.6609 15.4621 26.3477 14.9178ZM28.797 16.771C28.8358 16.8358 28.8488 16.9006 28.8488 16.9394C28.8488 17.0561 28.8099 17.0949 28.784 17.1209C28.7322 17.1597 28.6285 17.1857 28.5378 17.1857C28.6155 17.0302 28.7063 16.9006 28.797 16.771ZM25.5961 14.8401C25.635 14.8012 25.7386 14.7753 25.9071 14.8012C25.7775 14.9049 25.6479 14.9956 25.5183 15.0863C25.5054 14.9956 25.5183 14.9049 25.5961 14.8401Z" fill="#5E12A0" />
    <path d="M21.514 15.3972C17.2764 15.3972 13.8423 18.8313 13.8423 23.0689C13.8423 27.3065 17.2764 30.7406 21.514 30.7406C25.7516 30.7406 29.1857 27.3065 29.1857 23.0689C29.1857 18.8313 25.7386 15.3972 21.514 15.3972ZM21.514 30.313C17.5097 30.313 14.2699 27.0732 14.2699 23.0689C14.2699 19.0646 17.5097 15.8249 21.514 15.8249C25.5183 15.8249 28.7581 19.0646 28.7581 23.0689C28.7581 27.0732 25.5054 30.313 21.514 30.313Z" fill="#5E12A0" />
    <path opacity="0.6" d="M21.514 30.3131C25.5147 30.3131 28.758 27.0698 28.758 23.069C28.758 19.0682 25.5147 15.825 21.514 15.825C17.5132 15.825 14.2699 19.0682 14.2699 23.069C14.2699 27.0698 17.5132 30.3131 21.514 30.3131Z" fill="url(#paint3_linear_1178_4498)" />
    <path opacity="0.6" d="M21.4621 29.4318C17.5097 28.7969 14.8271 25.0776 15.4751 21.1251C15.7602 19.3757 16.6414 17.8854 17.8855 16.8098C16.0712 17.8595 14.7235 19.6867 14.3606 21.9156C13.7256 25.8681 16.4081 29.5874 20.3477 30.2223C22.5507 30.5852 24.676 29.8984 26.244 28.5506C24.8574 29.3541 23.1727 29.704 21.4621 29.4318Z" fill="#A98698" />
    <path opacity="0.6" d="M22.6673 15.9287C20.8401 15.6307 19.0648 16.0454 17.6134 16.9654C17.5874 16.9914 17.5615 17.0173 17.5615 17.0173C18.1188 16.6803 18.9352 16.3823 18.9352 16.3823C16.8358 17.6004 16.1879 18.987 16.1879 18.987C17.0043 17.406 19.4017 16.2916 21.2807 16.2138C23.1598 16.1361 24.3909 16.6933 25.8941 17.8985C27.3974 19.1166 28.3045 21.6047 28.2138 23.5745C28.136 25.5443 27.0993 27.1382 27.0993 27.1382C27.8121 26.2181 28.2397 25.5443 28.5118 24.8574C28.5637 24.6501 28.6155 24.4428 28.6414 24.2225C29.2894 20.2829 26.6198 16.5637 22.6673 15.9287Z" fill="url(#paint4_linear_1178_4498)" />
    <path d="M28.3952 23.0042C28.3952 26.8011 25.311 29.8854 21.514 29.8854C17.7171 29.8854 14.6199 26.8011 14.6199 23.0042H28.3952Z" fill="url(#paint5_linear_1178_4498)" />
    <g opacity="0.6">
      <path opacity="0.6" d="M27.851 23.0042C27.851 26.7104 24.9223 29.7428 21.2419 29.8854C21.3327 29.8854 21.4234 29.8854 21.5141 29.8854C25.3111 29.8854 28.3953 26.8011 28.3953 23.0042H27.851Z" fill="url(#paint6_linear_1178_4498)" />
    </g>
    <g opacity="0.7">
      <path opacity="0.7" d="M15.5918 23.0042H14.6199C14.6199 26.8011 17.7041 29.8854 21.5011 29.8854C21.6695 29.8854 21.8251 29.8854 21.9806 29.8724C18.4168 29.6132 15.5918 26.6327 15.5918 23.0042Z" fill="url(#paint7_linear_1178_4498)" />
    </g>
    <path d="M28.3823 23.0691C28.3823 22.2786 27.0086 21.825 25.1814 21.6695C23.8596 21.5658 22.5248 21.6954 20.9957 22.1619C19.6739 22.5507 18.4816 22.4859 17.6134 22.3822C15.6825 22.1619 14.6199 22.136 14.6199 23.0691C14.6199 24.4168 17.3672 26.1014 21.4881 25.5183C23.5745 25.2202 24.6501 24.6112 25.8812 24.1965C27.216 23.7559 28.3823 23.7688 28.3823 23.0691Z" fill="url(#paint8_linear_1178_4498)" />
    <path d="M23.7688 19.8033C24.413 19.8033 24.9352 19.2811 24.9352 18.637C24.9352 17.9929 24.413 17.4707 23.7688 17.4707C23.1247 17.4707 22.6025 17.9929 22.6025 18.637C22.6025 19.2811 23.1247 19.8033 23.7688 19.8033Z" fill="white" />
    <path d="M25.6738 20.6716C25.9458 20.6716 26.1663 20.4512 26.1663 20.1792C26.1663 19.9072 25.9458 19.6868 25.6738 19.6868C25.4019 19.6868 25.1814 19.9072 25.1814 20.1792C25.1814 20.4512 25.4019 20.6716 25.6738 20.6716Z" fill="white" />
    <g opacity="0.6">
      <path opacity="0.6" d="M27.4363 17.704C27.4233 17.704 27.4104 17.704 27.4104 17.704C27.3326 17.6911 27.2808 17.6133 27.2937 17.5226C27.4104 16.9265 27.9028 16.3563 27.9287 16.3304C27.9806 16.2656 28.0842 16.2656 28.1361 16.3174C28.2009 16.3693 28.2009 16.4729 28.149 16.5248C28.1361 16.5377 27.6825 17.069 27.5788 17.5874C27.5659 17.6652 27.5011 17.704 27.4363 17.704Z" fill="url(#paint9_linear_1178_4498)" />
    </g>
    <path opacity="0.2" d="M21.0346 28.473C21.235 28.473 21.3975 28.3106 21.3975 28.1102C21.3975 27.9098 21.235 27.7473 21.0346 27.7473C20.8342 27.7473 20.6718 27.9098 20.6718 28.1102C20.6718 28.3106 20.8342 28.473 21.0346 28.473Z" fill="white" />
    <g opacity="0.4">
      <path opacity="0.6" d="M20.8272 28.3434C20.6847 28.2009 20.6847 27.9676 20.8272 27.825C20.8531 27.7991 20.879 27.7862 20.905 27.7603C20.8531 27.7732 20.8142 27.7991 20.7754 27.838C20.6328 27.9806 20.6328 28.2138 20.7754 28.3564C20.892 28.473 21.0734 28.4989 21.216 28.4212C21.0864 28.473 20.9309 28.4471 20.8272 28.3434Z" fill="url(#paint10_linear_1178_4498)" />
    </g>
    <path opacity="0.3" d="M21.1642 28.0066C21.2071 28.0066 21.2419 27.9718 21.2419 27.9288C21.2419 27.8859 21.2071 27.8511 21.1642 27.8511C21.1212 27.8511 21.0864 27.8859 21.0864 27.9288C21.0864 27.9718 21.1212 28.0066 21.1642 28.0066Z" fill="white" />
    <path opacity="0.2" d="M22.9266 28.2914C23.127 28.2914 23.2894 28.1289 23.2894 27.9285C23.2894 27.7281 23.127 27.5657 22.9266 27.5657C22.7262 27.5657 22.5637 27.7281 22.5637 27.9285C22.5637 28.1289 22.7262 28.2914 22.9266 28.2914Z" fill="white" />
    <g opacity="0.4">
      <path opacity="0.6" d="M22.7192 28.1618C22.5766 28.0192 22.5766 27.786 22.7192 27.6434C22.7451 27.6175 22.771 27.6045 22.7969 27.5786C22.7451 27.5916 22.7062 27.6175 22.6673 27.6564C22.5248 27.7989 22.5248 28.0322 22.6673 28.1747C22.784 28.2914 22.9654 28.3173 23.1079 28.2395C22.9784 28.2914 22.8228 28.2654 22.7192 28.1618Z" fill="url(#paint11_linear_1178_4498)" />
    </g>
    <path opacity="0.3" d="M23.0561 27.8249C23.0991 27.8249 23.1339 27.7901 23.1339 27.7472C23.1339 27.7042 23.0991 27.6694 23.0561 27.6694C23.0132 27.6694 22.9784 27.7042 22.9784 27.7472C22.9784 27.7901 23.0132 27.8249 23.0561 27.8249Z" fill="white" />
    <path opacity="0.2" d="M21.9935 29.1339C22.1438 29.1339 22.2656 29.012 22.2656 28.8617C22.2656 28.7114 22.1438 28.5896 21.9935 28.5896C21.8432 28.5896 21.7213 28.7114 21.7213 28.8617C21.7213 29.012 21.8432 29.1339 21.9935 29.1339Z" fill="white" />
    <g opacity="0.4">
      <path opacity="0.6" d="M21.8379 29.0302C21.7343 28.9265 21.7343 28.7451 21.8379 28.6414C21.8509 28.6285 21.8768 28.6155 21.8898 28.6025C21.8509 28.6155 21.825 28.6414 21.7991 28.6673C21.6954 28.771 21.6954 28.9524 21.7991 29.0561C21.8898 29.1468 22.0194 29.1598 22.136 29.095C22.0323 29.1339 21.9157 29.1079 21.8379 29.0302Z" fill="url(#paint12_linear_1178_4498)" />
    </g>
    <path opacity="0.3" d="M22.0842 28.7709C22.1128 28.7709 22.136 28.7477 22.136 28.7191C22.136 28.6904 22.1128 28.6672 22.0842 28.6672C22.0556 28.6672 22.0323 28.6904 22.0323 28.7191C22.0323 28.7477 22.0556 28.7709 22.0842 28.7709Z" fill="white" />
    <path opacity="0.2" d="M19.4924 28.3433C19.8216 28.3433 20.0885 28.0765 20.0885 27.7472C20.0885 27.418 19.8216 27.1511 19.4924 27.1511C19.1631 27.1511 18.8962 27.418 18.8962 27.7472C18.8962 28.0765 19.1631 28.3433 19.4924 28.3433Z" fill="white" />
    <g opacity="0.4">
      <path opacity="0.6" d="M19.1554 28.123C18.9221 27.8897 18.9221 27.5139 19.1554 27.2807C19.1943 27.2418 19.2332 27.2159 19.285 27.1899C19.2072 27.2159 19.1425 27.2677 19.0777 27.3195C18.8444 27.5528 18.8444 27.9286 19.0777 28.1619C19.272 28.3562 19.5701 28.3951 19.8034 28.2526C19.5831 28.3433 19.3239 28.3044 19.1554 28.123Z" fill="url(#paint13_linear_1178_4498)" />
    </g>
    <path opacity="0.3" d="M19.6997 27.5658C19.7712 27.5658 19.8292 27.5078 19.8292 27.4362C19.8292 27.3647 19.7712 27.3066 19.6997 27.3066C19.6281 27.3066 19.5701 27.3647 19.5701 27.4362C19.5701 27.5078 19.6281 27.5658 19.6997 27.5658Z" fill="white" />
    <path opacity="0.2" d="M24.8185 26.879C25.1477 26.879 25.4146 26.6121 25.4146 26.2829C25.4146 25.9537 25.1477 25.6868 24.8185 25.6868C24.4893 25.6868 24.2224 25.9537 24.2224 26.2829C24.2224 26.6121 24.4893 26.879 24.8185 26.879Z" fill="white" />
    <g opacity="0.4">
      <path opacity="0.6" d="M24.4686 26.6586C24.2354 26.4254 24.2354 26.0496 24.4686 25.8163C24.5075 25.7774 24.5464 25.7515 24.5982 25.7256C24.5205 25.7515 24.4557 25.8033 24.3909 25.8552C24.1576 26.0884 24.1576 26.4642 24.3909 26.6975C24.5853 26.8919 24.8833 26.9308 25.1166 26.7882C24.8963 26.8789 24.6501 26.8401 24.4686 26.6586Z" fill="url(#paint14_linear_1178_4498)" />
    </g>
    <path opacity="0.3" d="M25.0258 26.1015C25.0974 26.1015 25.1554 26.0434 25.1554 25.9719C25.1554 25.9003 25.0974 25.8423 25.0258 25.8423C24.9543 25.8423 24.8962 25.9003 24.8962 25.9719C24.8962 26.0434 24.9543 26.1015 25.0258 26.1015Z" fill="white" />
  </g>
  <defs>
    <filter id="filter0_di_1178_4498" x="0" y="0" width="44" height="44" filterUnits="userSpaceOnUse" color-interpolation-filters="sRGB">
      <feFlood flood-opacity="0" result="BackgroundImageFix" />
      <feColorMatrix in="SourceAlpha" type="matrix" values="0 0 0 0 0 0 0 0 0 0 0 0 0 0 0 0 0 0 127 0" result="hardAlpha" />
      <feOffset />
      <feGaussianBlur stdDeviation="3.5" />
      <feComposite in2="hardAlpha" operator="out" />
      <feColorMatrix type="matrix" values="0 0 0 0 1 0 0 0 0 1 0 0 0 0 1 0 0 0 0.25 0" />
      <feBlend mode="normal" in2="BackgroundImageFix" result="effect1_dropShadow_1178_4498" />
      <feBlend mode="normal" in="SourceGraphic" in2="effect1_dropShadow_1178_4498" result="shape" />
      <feColorMatrix in="SourceAlpha" type="matrix" values="0 0 0 0 0 0 0 0 0 0 0 0 0 0 0 0 0 0 127 0" result="hardAlpha" />
      <feOffset dy="4" />
      <feGaussianBlur stdDeviation="2" />
      <feComposite in2="hardAlpha" operator="arithmetic" k2="-1" k3="1" />
      <feColorMatrix type="matrix" values="0 0 0 0 1 0 0 0 0 1 0 0 0 0 1 0 0 0 0.3 0" />
      <feBlend mode="normal" in2="shape" result="effect2_innerShadow_1178_4498" />
    </filter>
    <linearGradient id="paint0_linear_1178_4498" x1="12.5" y1="9.5" x2="30" y2="36" gradientUnits="userSpaceOnUse">
      <stop stop-color="#B03E97" />
      <stop offset="1" stop-color="#7DA2FF" />
    </linearGradient>
    <radialGradient id="paint1_radial_1178_4498" cx="0" cy="0" r="1" gradientUnits="userSpaceOnUse" gradientTransform="translate(29.5325 15.6046) scale(5.79193 5.79193)">
      <stop stop-color="#FFEAFF" stop-opacity="0.6" />
      <stop offset="0.6807" stop-color="#A087C9" />
      <stop offset="1" stop-color="#10002F" />
    </radialGradient>
    <radialGradient id="paint2_radial_1178_4498" cx="0" cy="0" r="1" gradientUnits="userSpaceOnUse" gradientTransform="translate(26.3101 18.0748) scale(14.1708)">
      <stop stop-color="#FFEAFF" stop-opacity="0.6" />
      <stop offset="0.6807" stop-color="#A087C9" />
      <stop offset="1" stop-color="#10002F" />
    </radialGradient>
    <linearGradient id="paint3_linear_1178_4498" x1="20.3547" y1="30.2208" x2="22.6732" y2="15.9172" gradientUnits="userSpaceOnUse">
      <stop stop-color="#81FFFF" />
      <stop offset="0.6202" stop-color="white" stop-opacity="0" />
    </linearGradient>
    <linearGradient id="paint4_linear_1178_4498" x1="26.6148" y1="18.1446" x2="20.6246" y2="23.6408" gradientUnits="userSpaceOnUse">
      <stop offset="0.2888" stop-color="white" />
      <stop offset="0.7796" stop-color="white" stop-opacity="0" />
    </linearGradient>
    <linearGradient id="paint5_linear_1178_4498" x1="14.6199" y1="26.4448" x2="28.3952" y2="26.4448" gradientUnits="userSpaceOnUse">
      <stop stop-color="#0002E9" />
      <stop offset="0.9952" stop-color="#FF00C7" />
    </linearGradient>
    <linearGradient id="paint6_linear_1178_4498" x1="29.0473" y1="23.6119" x2="21.5544" y2="30.6931" gradientUnits="userSpaceOnUse">
      <stop offset="0.2888" stop-color="white" />
      <stop offset="0.7796" stop-color="white" stop-opacity="0" />
    </linearGradient>
    <linearGradient id="paint7_linear_1178_4498" x1="14.6199" y1="26.4448" x2="21.9806" y2="26.4448" gradientUnits="userSpaceOnUse">
      <stop stop-color="#000292" />
      <stop offset="0.9952" stop-color="#7D00C7" />
    </linearGradient>
    <linearGradient id="paint8_linear_1178_4498" x1="14.6349" y1="23.6365" x2="28.3827" y2="23.6365" gradientUnits="userSpaceOnUse">
      <stop stop-color="#000292" />
      <stop offset="0.9952" stop-color="#BE00C7" />
    </linearGradient>
    <linearGradient id="paint9_linear_1178_4498" x1="28.1602" y1="16.2692" x2="27.1721" y2="17.8748" gradientUnits="userSpaceOnUse">
      <stop offset="0.2888" stop-color="white" />
      <stop offset="0.7796" stop-color="white" stop-opacity="0" />
    </linearGradient>
    <linearGradient id="paint10_linear_1178_4498" x1="20.6685" y1="28.1129" x2="21.2167" y2="28.1129" gradientUnits="userSpaceOnUse">
      <stop offset="0.2888" stop-color="white" />
      <stop offset="0.7796" stop-color="white" stop-opacity="0" />
    </linearGradient>
    <linearGradient id="paint11_linear_1178_4498" x1="22.5587" y1="27.9313" x2="23.107" y2="27.9313" gradientUnits="userSpaceOnUse">
      <stop offset="0.2888" stop-color="white" />
      <stop offset="0.7796" stop-color="white" stop-opacity="0" />
    </linearGradient>
    <linearGradient id="paint12_linear_1178_4498" x1="21.7196" y1="28.869" x2="22.1312" y2="28.869" gradientUnits="userSpaceOnUse">
      <stop offset="0.2888" stop-color="white" />
      <stop offset="0.7796" stop-color="white" stop-opacity="0" />
    </linearGradient>
    <linearGradient id="paint13_linear_1178_4498" x1="18.8968" y1="27.7641" x2="19.7921" y2="27.7641" gradientUnits="userSpaceOnUse">
      <stop offset="0.2888" stop-color="white" />
      <stop offset="0.7796" stop-color="white" stop-opacity="0" />
    </linearGradient>
    <linearGradient id="paint14_linear_1178_4498" x1="24.215" y1="26.2997" x2="25.1103" y2="26.2997" gradientUnits="userSpaceOnUse">
      <stop offset="0.2888" stop-color="white" />
      <stop offset="0.7796" stop-color="white" stop-opacity="0" />
    </linearGradient>
  </defs>
</svg>
  