<svg width="26" height="26" viewBox="0 0 26 26" fill="none" xmlns="http://www.w3.org/2000/svg">
  <path d="M23.742 0H1.49653C0.670019 0 0 0.670019 0 1.49653V23.741C0 24.5675 0.670019 25.2375 1.49653 25.2375H23.742C24.5685 25.2375 25.2385 24.5675 25.2385 23.741V1.49653C25.2385 0.670019 24.5685 0 23.742 0Z" fill="white" />
  <path d="M19.2767 13.3978C19.2767 14.41 19.0444 15.3392 18.5798 16.1854C18.1152 17.0151 17.4017 17.6871 16.4393 18.2015C15.4769 18.7159 14.2822 18.9731 12.8552 18.9731H10.2169V25.2453H5.96082V7.77271H12.8552C14.249 7.77271 15.4271 8.0133 16.3895 8.4945C17.3519 8.9757 18.0737 9.63946 18.5549 10.4857C19.0361 11.332 19.2767 12.3027 19.2767 13.3978ZM12.5316 15.5881C13.3447 15.5881 13.9504 15.3973 14.3486 15.0156C14.7468 14.634 14.9459 14.0947 14.9459 13.3978C14.9459 12.7009 14.7468 12.1616 14.3486 11.78C13.9504 11.3983 13.3447 11.2075 12.5316 11.2075H10.2169V15.5881H12.5316Z" fill="black" />
  <path d="M19.2769 3.34619H5.96094V6.15813H19.2769V3.34619Z" fill="#E50913" />
</svg>