<svg width="30" height="30" viewBox="0 0 30 30" fill="none" xmlns="http://www.w3.org/2000/svg">
  <path d="M14.8005 18.7798C14.8005 18.7798 11.0029 21.3739 12.7094 24.8539C13.9094 27.298 15.0899 27.8221 17.6258 29.0362C19.3817 29.8745 25.9588 24.1198 26.6929 20.7862L16.0994 17.9892L14.8005 18.7798ZM6.04053 7.28095C6.1817 7.42212 7.28464 10.0215 9.65817 10.078C12.0317 10.1345 24.547 4.96389 24.547 4.96389C24.547 4.96389 18.6705 -1.98552 9.26288 2.25154L6.04053 7.28095Z" fill="#1736A3" />
  <path d="M26.8905 22.7908C27.007 22.7643 24.7164 26.9731 20.7317 28.9214C20.7317 28.9214 19.0075 29.5143 18.727 28.5543C18.4446 27.5925 20.2517 24.3437 26.8905 22.7908ZM0.769309 10.4484C0.769309 10.4484 10.7787 20.4578 8.53401 29.1014C8.53401 29.1014 -3.03893 25.2437 0.769309 10.4484ZM1.35166 8.86194C1.35166 8.86194 3.64049 9.08782 6.8046 7.25253C9.65813 5.59371 12.1199 2.44723 9.3246 2.11371C8.59911 2.02984 7.86546 2.17287 7.2246 2.52312C6.01754 3.17782 3.82754 4.82782 1.35343 8.86194H1.35166ZM27.7393 20.9255C27.8893 20.8725 31.5811 11.7155 23.5023 3.94723C23.5023 3.94723 21.2134 2.22312 13.867 5.21782C6.52225 8.21253 7.53872 11.0378 7.82107 12.0543C8.10343 13.0725 9.43225 16.1219 14.6311 18.4108C19.8281 20.6996 25.1964 21.8308 27.7393 20.9255Z" fill="#548AF5" />
</svg>
  