<svg width="24" height="25" viewBox="0 0 24 25" fill="none" xmlns="http://www.w3.org/2000/svg">
  <path d="M0 2.39704V9.70729V9.42088C0.0556199 15.6673 5.39513 21 12 21C18.6049 21 23.9444 15.9537 24 9.70729V2.39704C24 2.39704 22.3314 1.606 20.4403 3.50176C19.2306 4.71559 18.2572 9.1072 15.657 9.13447C12.1808 9.18903 9.81692 4.66104 6.99421 2.96986C4.03245 1.19685 0 2.39704 0 2.39704Z" fill="url(#paint0_linear_2350_19924)" />
  <path d="M0 2.39704V9.70729V9.42088C0.0556199 15.6673 5.39513 21 12 21C18.6049 21 23.9444 15.9537 24 9.70729V2.39704C24 2.39704 22.3314 1.606 20.4403 3.50176C19.2306 4.71559 18.2572 9.1072 15.657 9.13447C12.1808 9.18903 9.81692 4.66104 6.99421 2.96986C4.03245 1.19685 0 2.39704 0 2.39704Z" fill="url(#paint1_linear_2350_19924)" />
  <path d="M24 9.5259V4.28847C23.3191 4.40111 22.4852 4.73901 21.6097 5.55559C20.2478 6.82271 19.1639 11.3984 16.2455 11.4407C12.3544 11.497 9.70006 6.7664 6.53156 4.99243C4.32195 3.78163 1.58425 3.92242 0 4.16176V9.53998V9.21616C0.0555877 16.1149 5.40591 22 11.9931 22C18.5941 22 23.9444 16.4247 24 9.5259V9.5259Z" fill="url(#paint2_linear_2350_19924)" />
  <path d="M24 9.5259V4.28847C23.3191 4.40111 22.4852 4.73901 21.6097 5.55559C20.2478 6.82271 19.1639 11.3984 16.2455 11.4407C12.3544 11.497 9.70006 6.7664 6.53156 4.99243C4.32195 3.78163 1.58425 3.92242 0 4.16176V9.53998V9.21616C0.0555877 16.1149 5.40591 22 11.9931 22C18.5941 22 23.9444 16.4247 24 9.5259V9.5259Z" fill="url(#paint3_linear_2350_19924)" />
  <path d="M21 10.3304V9.40276C20.5929 9.55555 20.1419 9.80656 19.6798 10.1995C18.5136 11.1817 17.5895 14.7287 15.1031 14.7614C11.7805 14.8051 9.52519 11.138 6.81876 9.76291C5.25651 8.98803 3.36422 8.93346 2 9.0426V10.3413V10.0903C2.04401 15.4381 6.27968 20 11.4945 20C16.7203 20 20.956 15.6782 21 10.3304V10.3304Z" fill="url(#paint4_linear_2350_19924)" />
  <defs>
    <linearGradient id="paint0_linear_2350_19924" x1="-1.86202" y1="16.503" x2="28.5532" y2="0.288148" gradientUnits="userSpaceOnUse">
      <stop stop-color="#FDA9FF" />
      <stop offset="0.028" stop-color="#F9AAFF" />
      <stop offset="0.243" stop-color="#DCB3FF" />
      <stop offset="0.367" stop-color="#D1B6FF" />
      <stop offset="0.89" stop-color="#4DFFE5" />
    </linearGradient>
    <linearGradient id="paint1_linear_2350_19924" x1="10.6539" y1="11.5726" x2="13.7029" y2="0.174555" gradientUnits="userSpaceOnUse">
      <stop stop-color="#16183C" stop-opacity="0.3" />
      <stop offset="0.867" stop-color="#16183C" stop-opacity="0" />
    </linearGradient>
    <linearGradient id="paint2_linear_2350_19924" x1="-0.830481" y1="16.6913" x2="26.7819" y2="4.62943" gradientUnits="userSpaceOnUse">
      <stop stop-color="#FDA9FF" />
      <stop offset="0.028" stop-color="#F9AAFF" />
      <stop offset="0.243" stop-color="#DCB3FF" />
      <stop offset="0.367" stop-color="#D1B6FF" />
      <stop offset="0.89" stop-color="#4DFFE5" />
    </linearGradient>
    <linearGradient id="paint3_linear_2350_19924" x1="9.24882" y1="14.0136" x2="13.5504" y2="5.28585" gradientUnits="userSpaceOnUse">
      <stop stop-color="#16183C" stop-opacity="0.3" />
      <stop offset="0.867" stop-color="#16183C" stop-opacity="0" />
    </linearGradient>
    <linearGradient id="paint4_linear_2350_19924" x1="0.409259" y1="17.2589" x2="19.9133" y2="9.71114" gradientUnits="userSpaceOnUse">
      <stop stop-color="#FDA9FF" />
      <stop offset="0.028" stop-color="#F9AAFF" />
      <stop offset="0.243" stop-color="#DCB3FF" />
      <stop offset="0.367" stop-color="#D1B6FF" />
      <stop offset="0.89" stop-color="#4DFFE5" />
    </linearGradient>
  </defs>
</svg>
  