<svg width="100" height="100" viewBox="0 0 100 100" fill="none" xmlns="http://www.w3.org/2000/svg">
  <circle cx="50" cy="50" r="50" fill="#4FAEF8" />
  <line x1="79.7313" y1="21.8035" x2="54.7313" y2="45.8035" stroke="white" stroke-width="5" />
  <line x1="79.7313" y1="21.8035" x2="54.7313" y2="45.8035" stroke="white" stroke-width="5" />
  <line x1="79.7313" y1="21.8035" x2="54.7313" y2="45.8035" stroke="white" stroke-width="5" />
  <line x1="79.7313" y1="21.8035" x2="54.7313" y2="45.8035" stroke="white" stroke-width="5" />
  <line x1="79.1965" y1="80.7313" x2="55.1965" y2="55.7313" stroke="white" stroke-width="5" />
  <line x1="79.1965" y1="80.7313" x2="55.1965" y2="55.7313" stroke="white" stroke-width="5" />
  <line x1="79.1965" y1="80.7313" x2="55.1965" y2="55.7313" stroke="white" stroke-width="5" />
  <line x1="79.1965" y1="80.7313" x2="55.1965" y2="55.7313" stroke="white" stroke-width="5" />
  <line x1="44.7678" y1="55.7678" x2="19.7678" y2="80.7678" stroke="white" stroke-width="5" />
  <line x1="44.7678" y1="55.7678" x2="19.7678" y2="80.7678" stroke="white" stroke-width="5" />
  <line x1="44.7678" y1="55.7678" x2="19.7678" y2="80.7678" stroke="white" stroke-width="5" />
  <line x1="44.7678" y1="55.7678" x2="19.7678" y2="80.7678" stroke="white" stroke-width="5" />
  <line x1="44.2322" y1="45.7678" x2="20.2322" y2="21.7678" stroke="white" stroke-width="5" />
  <line x1="44.2322" y1="45.7678" x2="20.2322" y2="21.7678" stroke="white" stroke-width="5" />
  <line x1="44.2322" y1="45.7678" x2="20.2322" y2="21.7678" stroke="white" stroke-width="5" />
  <line x1="44.2322" y1="45.7678" x2="20.2322" y2="21.7678" stroke="white" stroke-width="5" />
</svg>
  